<?xml version="1.0" encoding="UTF-8" standalone="no"?>
<!DOCTYPE svg PUBLIC "-//W3C//DTD SVG 1.1//EN"
 "http://www.w3.org/Graphics/SVG/1.1/DTD/svg11.dtd">
<!-- Generated by graphviz version 2.40.1 (20161225.0304)
 -->
<!-- Title: hierarchy Pages: 1 -->
<svg width="505pt" height="259pt"
     viewBox="0.00 0.00 504.53 259.00" xmlns="http://www.w3.org/2000/svg">
<g id="graph0" class="graph" transform="scale(1 1) rotate(0) translate(4 255)">
<title>hierarchy</title>
<polygon fill="#ffffff" stroke="transparent" points="-4,4 -4,-255 500.5269,-255 500.5269,4 -4,4"/>
<text text-anchor="middle" x="248.2634" y="-36.8" font-family="Helvetica,sans-Serif" font-size="14.00" fill="#000000">Portfolio</text>
<text text-anchor="middle" x="248.2634" y="-6.8" font-family="Helvetica,sans-Serif" font-size="14.00" fill="#000000">package: com.tempoplugin.budget.api.event</text>
<!-- Event -->
<g id="node1" class="node">
<title>Event</title>
<polygon fill="#f2f2f2" stroke="#000000" points="219.4824,-214.5 219.4824,-250.5 273.4824,-250.5 273.4824,-214.5 219.4824,-214.5"/>
<text text-anchor="middle" x="246.3823" y="-228.3" font-family="Helvetica,sans-Serif" font-size="14.00" fill="#000000">Event</text>
</g>
<!-- PortfolioEvent -->
<g id="node2" class="node">
<title>PortfolioEvent</title>
<polygon fill="#f2f2f2" stroke="#000000" points="194.9033,-141.5 194.9033,-177.5 298.0615,-177.5 298.0615,-141.5 194.9033,-141.5"/>
<text text-anchor="middle" x="246.4824" y="-155.3" font-family="Helvetica,sans-Serif" font-size="14.00" fill="#000000">PortfolioEvent</text>
</g>
<!-- Event&#45;&gt;PortfolioEvent -->
<g id="edge1" class="edge">
<title>Event&#45;&gt;PortfolioEvent</title>
<path fill="none" stroke="#000000" d="M246.4824,-204.3688C246.4824,-195.3769 246.4824,-185.6687 246.4824,-177.5904"/>
<polygon fill="none" stroke="#000000" points="242.9825,-204.455 246.4824,-214.4551 249.9825,-204.4551 242.9825,-204.455"/>
</g>
<!-- PortfolioCreatedEvent -->
<g id="node3" class="node">
<title>PortfolioCreatedEvent</title>
<polygon fill="#f2f2f2" stroke="#000000" points="0,-68.5 0,-104.5 152.9648,-104.5 152.9648,-68.5 0,-68.5"/>
<text text-anchor="middle" x="76.4824" y="-82.3" font-family="Helvetica,sans-Serif" font-size="14.00" fill="#000000">PortfolioCreatedEvent</text>
</g>
<!-- PortfolioEvent&#45;&gt;PortfolioCreatedEvent -->
<g id="edge2" class="edge">
<title>PortfolioEvent&#45;&gt;PortfolioCreatedEvent</title>
<path fill="none" stroke="#000000" d="M194.9853,-137.3865C170.5502,-126.8938 141.7174,-114.5127 118.6107,-104.5904"/>
<polygon fill="none" stroke="#000000" points="193.8903,-140.7253 204.4599,-141.4551 196.6523,-134.2932 193.8903,-140.7253"/>
</g>
<!-- PortfolioDeletedEvent -->
<g id="node4" class="node">
<title>PortfolioDeletedEvent</title>
<polygon fill="#f2f2f2" stroke="#000000" points="170.7759,-68.5 170.7759,-104.5 322.189,-104.5 322.189,-68.5 170.7759,-68.5"/>
<text text-anchor="middle" x="246.4824" y="-82.3" font-family="Helvetica,sans-Serif" font-size="14.00" fill="#000000">PortfolioDeletedEvent</text>
</g>
<!-- PortfolioEvent&#45;&gt;PortfolioDeletedEvent -->
<g id="edge3" class="edge">
<title>PortfolioEvent&#45;&gt;PortfolioDeletedEvent</title>
<path fill="none" stroke="#000000" d="M246.4824,-131.3688C246.4824,-122.3769 246.4824,-112.6687 246.4824,-104.5904"/>
<polygon fill="none" stroke="#000000" points="242.9825,-131.455 246.4824,-141.4551 249.9825,-131.4551 242.9825,-131.455"/>
</g>
<!-- PortfolioUpdatedEvent -->
<g id="node5" class="node">
<title>PortfolioUpdatedEvent</title>
<polygon fill="#f2f2f2" stroke="#000000" points="340.438,-68.5 340.438,-104.5 496.5269,-104.5 496.5269,-68.5 340.438,-68.5"/>
<text text-anchor="middle" x="418.4824" y="-82.3" font-family="Helvetica,sans-Serif" font-size="14.00" fill="#000000">PortfolioUpdatedEvent</text>
</g>
<!-- PortfolioEvent&#45;&gt;PortfolioUpdatedEvent -->
<g id="edge4" class="edge">
<title>PortfolioEvent&#45;&gt;PortfolioUpdatedEvent</title>
<path fill="none" stroke="#000000" d="M298.2575,-137.5257C323.0497,-127.0034 352.3765,-114.5566 375.8586,-104.5904"/>
<polygon fill="none" stroke="#000000" points="296.8371,-134.3263 288.9993,-141.4551 299.572,-140.77 296.8371,-134.3263"/>
</g>
</g>
</svg>
