<?xml version="1.0" encoding="UTF-8" standalone="no"?>
<!DOCTYPE svg PUBLIC "-//W3C//DTD SVG 1.1//EN"
 "http://www.w3.org/Graphics/SVG/1.1/DTD/svg11.dtd">
<!-- Generated by graphviz version 2.38.0 (20140413.2041)
 -->
<!-- Title: hierarchy Pages: 1 -->
<svg width="429pt" height="2012pt"
 viewBox="0.00 0.00 429.00 2012.00" xmlns="http://www.w3.org/2000/svg" xmlns:xlink="http://www.w3.org/1999/xlink">
<g id="graph0" class="graph" transform="scale(1 1) rotate(0) translate(4 2008)">
<title>hierarchy</title>
<polygon fill="white" stroke="none" points="-4,4 -4,-2008 425,-2008 425,4 -4,4"/>
<g id="clust1" class="cluster"><title>cluster_account</title>
<polygon fill="none" stroke="black" points="74,-1380 74,-1996 413,-1996 413,-1380 74,-1380"/>
<text text-anchor="middle" x="243.5" y="-1980.8" font-family="Helvetica,sans-Serif" font-size="14.00">Accounts</text>
</g>
<g id="clust2" class="cluster"><title>cluster_account</title>
<polygon fill="none" stroke="black" points="87,-1778 87,-1965 400,-1965 400,-1778 87,-1778"/>
<text text-anchor="middle" x="243.5" y="-1949.8" font-family="Helvetica,sans-Serif" font-size="14.00">Account</text>
</g>
<g id="clust4" class="cluster"><title>cluster_category</title>
<polygon fill="none" stroke="black" points="84,-1583 84,-1770 403,-1770 403,-1583 84,-1583"/>
<text text-anchor="middle" x="243.5" y="-1754.8" font-family="Helvetica,sans-Serif" font-size="14.00">Category</text>
</g>
<g id="clust6" class="cluster"><title>cluster_customer</title>
<polygon fill="none" stroke="black" points="82,-1388 82,-1575 405,-1575 405,-1388 82,-1388"/>
<text text-anchor="middle" x="243.5" y="-1559.8" font-family="Helvetica,sans-Serif" font-size="14.00">Customer</text>
</g>
<g id="clust8" class="cluster"><title>cluster_budget</title>
<polygon fill="none" stroke="black" points="77,-561 77,-1372 410,-1372 410,-561 77,-561"/>
<text text-anchor="middle" x="243.5" y="-1356.8" font-family="Helvetica,sans-Serif" font-size="14.00">Budgets</text>
</g>
<g id="clust9" class="cluster"><title>cluster_folio</title>
<polygon fill="none" stroke="black" points="97,-1154 97,-1341 390,-1341 390,-1154 97,-1154"/>
<text text-anchor="middle" x="243.5" y="-1325.8" font-family="Helvetica,sans-Serif" font-size="14.00">Folio</text>
</g>
<g id="clust11" class="cluster"><title>cluster_portfolio</title>
<polygon fill="none" stroke="black" points="86.5,-959 86.5,-1146 400.5,-1146 400.5,-959 86.5,-959"/>
<text text-anchor="middle" x="243.5" y="-1130.8" font-family="Helvetica,sans-Serif" font-size="14.00">Portfolio</text>
</g>
<g id="clust13" class="cluster"><title>cluster_expense</title>
<polygon fill="none" stroke="black" points="85,-764 85,-951 402,-951 402,-764 85,-764"/>
<text text-anchor="middle" x="243.5" y="-935.8" font-family="Helvetica,sans-Serif" font-size="14.00">Expense</text>
</g>
<g id="clust15" class="cluster"><title>cluster_position</title>
<polygon fill="none" stroke="black" points="87.5,-569 87.5,-756 399.5,-756 399.5,-569 87.5,-569"/>
<text text-anchor="middle" x="243.5" y="-740.8" font-family="Helvetica,sans-Serif" font-size="14.00">Position</text>
</g>
<g id="clust17" class="cluster"><title>cluster_planner</title>
<polygon fill="none" stroke="black" points="74,-327 74,-553 413,-553 413,-327 74,-327"/>
<text text-anchor="middle" x="243.5" y="-537.8" font-family="Helvetica,sans-Serif" font-size="14.00">Planner</text>
</g>
<g id="clust18" class="cluster"><title>cluster_allocation</title>
<polygon fill="none" stroke="black" points="82,-335 82,-522 405,-522 405,-335 82,-335"/>
<text text-anchor="middle" x="243.5" y="-506.8" font-family="Helvetica,sans-Serif" font-size="14.00">Allocation</text>
</g>
<g id="clust20" class="cluster"><title>cluster_teams</title>
<polygon fill="none" stroke="black" points="86,-93 86,-319 401,-319 401,-93 86,-93"/>
<text text-anchor="middle" x="243.5" y="-303.8" font-family="Helvetica,sans-Serif" font-size="14.00">Teams</text>
</g>
<g id="clust21" class="cluster"><title>cluster_team</title>
<polygon fill="none" stroke="black" points="94,-101 94,-288 393,-288 393,-101 94,-101"/>
<text text-anchor="middle" x="243.5" y="-272.8" font-family="Helvetica,sans-Serif" font-size="14.00">Team</text>
</g>
<g id="clust23" class="cluster"><title>cluster_timesheets</title>
<polygon fill="none" stroke="black" points="85,-8 85,-85 205,-85 205,-8 85,-8"/>
<text text-anchor="middle" x="145" y="-69.8" font-family="Helvetica,sans-Serif" font-size="14.00">Timesheets</text>
</g>
<!-- Event -->
<g id="node1" class="node"><title>Event</title>
<polygon fill="#f2f2f2" stroke="black" points="0,-925 0,-961 54,-961 54,-925 0,-925"/>
<text text-anchor="middle" x="27" y="-939.3" font-family="Helvetica,sans-Serif" font-size="14.00">Event</text>
</g>
<!-- AccountEvent -->
<g id="node2" class="node"><title>AccountEvent</title>
<polygon fill="#f2f2f2" stroke="black" points="95,-1814 95,-1850 195,-1850 195,-1814 95,-1814"/>
<text text-anchor="middle" x="145" y="-1828.3" font-family="Helvetica,sans-Serif" font-size="14.00">AccountEvent</text>
</g>
<!-- Event&#45;&gt;AccountEvent -->
<g id="edge1" class="edge"><title>Event&#45;&gt;AccountEvent</title>
<path fill="none" stroke="black" d="M28.2304,-971.328C29.5252,-1108.61 37.219,-1701.07 74,-1774 82.3147,-1790.49 97.6507,-1804.02 111.853,-1813.85"/>
<polygon fill="none" stroke="black" points="31.7292,-971.164 28.1389,-961.196 24.7295,-971.227 31.7292,-971.164"/>
</g>
<!-- CategoryEvent -->
<g id="node3" class="node"><title>CategoryEvent</title>
<polygon fill="#f2f2f2" stroke="black" points="92,-1619 92,-1655 198,-1655 198,-1619 92,-1619"/>
<text text-anchor="middle" x="145" y="-1633.3" font-family="Helvetica,sans-Serif" font-size="14.00">CategoryEvent</text>
</g>
<!-- Event&#45;&gt;CategoryEvent -->
<g id="edge2" class="edge"><title>Event&#45;&gt;CategoryEvent</title>
<path fill="none" stroke="black" d="M28.7475,-971.41C31.9857,-1087.78 45.9216,-1524.47 74,-1579 82.4538,-1595.42 97.8017,-1608.94 111.976,-1618.79"/>
<polygon fill="none" stroke="black" points="32.2397,-971.072 28.4674,-961.171 25.2423,-971.263 32.2397,-971.072"/>
</g>
<!-- CustomerEvent -->
<g id="node4" class="node"><title>CustomerEvent</title>
<polygon fill="#f2f2f2" stroke="black" points="90,-1424 90,-1460 200,-1460 200,-1424 90,-1424"/>
<text text-anchor="middle" x="145" y="-1438.3" font-family="Helvetica,sans-Serif" font-size="14.00">CustomerEvent</text>
</g>
<!-- Event&#45;&gt;CustomerEvent -->
<g id="edge3" class="edge"><title>Event&#45;&gt;CustomerEvent</title>
<path fill="none" stroke="black" d="M29.3915,-971.567C33.5835,-1051.58 47.4667,-1276.49 74,-1345 85.8508,-1375.6 109.738,-1405.38 126.289,-1423.69"/>
<polygon fill="none" stroke="black" points="32.8711,-971.078 28.864,-961.27 25.8803,-971.436 32.8711,-971.078"/>
</g>
<!-- FolioEvent -->
<g id="node5" class="node"><title>FolioEvent</title>
<polygon fill="#f2f2f2" stroke="black" points="105,-1190 105,-1226 185,-1226 185,-1190 105,-1190"/>
<text text-anchor="middle" x="145" y="-1204.3" font-family="Helvetica,sans-Serif" font-size="14.00">FolioEvent</text>
</g>
<!-- Event&#45;&gt;FolioEvent -->
<g id="edge4" class="edge"><title>Event&#45;&gt;FolioEvent</title>
<path fill="none" stroke="black" d="M28.5735,-971.096C30.6171,-1013.01 39.1981,-1093.08 74,-1150 83.8793,-1166.16 99.8776,-1179.91 114.088,-1189.97"/>
<polygon fill="none" stroke="black" points="32.069,-970.911 28.1754,-961.057 25.0745,-971.188 32.069,-970.911"/>
</g>
<!-- PortfolioEvent -->
<g id="node6" class="node"><title>PortfolioEvent</title>
<polygon fill="#f2f2f2" stroke="black" points="94.5,-995 94.5,-1031 195.5,-1031 195.5,-995 94.5,-995"/>
<text text-anchor="middle" x="145" y="-1009.3" font-family="Helvetica,sans-Serif" font-size="14.00">PortfolioEvent</text>
</g>
<!-- Event&#45;&gt;PortfolioEvent -->
<g id="edge5" class="edge"><title>Event&#45;&gt;PortfolioEvent</title>
<path fill="none" stroke="black" d="M62.7465,-963.968C79.05,-973.806 98.2912,-985.417 113.956,-994.87"/>
<polygon fill="none" stroke="black" points="64.4029,-960.879 54.0327,-958.709 60.7862,-966.873 64.4029,-960.879"/>
</g>
<!-- ExpenseEvent -->
<g id="node7" class="node"><title>ExpenseEvent</title>
<polygon fill="#f2f2f2" stroke="black" points="93,-855 93,-891 197,-891 197,-855 93,-855"/>
<text text-anchor="middle" x="145" y="-869.3" font-family="Helvetica,sans-Serif" font-size="14.00">ExpenseEvent</text>
</g>
<!-- Event&#45;&gt;ExpenseEvent -->
<g id="edge6" class="edge"><title>Event&#45;&gt;ExpenseEvent</title>
<path fill="none" stroke="black" d="M62.7465,-922.032C79.05,-912.194 98.2912,-900.583 113.956,-891.13"/>
<polygon fill="none" stroke="black" points="60.7862,-919.127 54.0327,-927.291 64.4029,-925.121 60.7862,-919.127"/>
</g>
<!-- PositionEvent -->
<g id="node8" class="node"><title>PositionEvent</title>
<polygon fill="#f2f2f2" stroke="black" points="95.5,-661 95.5,-697 194.5,-697 194.5,-661 95.5,-661"/>
<text text-anchor="middle" x="145" y="-675.3" font-family="Helvetica,sans-Serif" font-size="14.00">PositionEvent</text>
</g>
<!-- Event&#45;&gt;PositionEvent -->
<g id="edge7" class="edge"><title>Event&#45;&gt;PositionEvent</title>
<path fill="none" stroke="black" d="M30.9792,-914.748C35.8024,-877.512 47.5915,-810.791 74,-760 86.6895,-735.594 108.103,-712.335 123.912,-697.054"/>
<polygon fill="none" stroke="black" points="27.4812,-914.52 29.7471,-924.87 34.4299,-915.366 27.4812,-914.52"/>
</g>
<!-- AllocationEvent -->
<g id="node9" class="node"><title>AllocationEvent</title>
<polygon fill="#f2f2f2" stroke="black" points="90,-427 90,-463 200,-463 200,-427 90,-427"/>
<text text-anchor="middle" x="145" y="-441.3" font-family="Helvetica,sans-Serif" font-size="14.00">AllocationEvent</text>
</g>
<!-- Event&#45;&gt;AllocationEvent -->
<g id="edge8" class="edge"><title>Event&#45;&gt;AllocationEvent</title>
<path fill="none" stroke="black" d="M27.5872,-914.575C27.4788,-850.431 31.8474,-690.273 74,-565 87.0762,-526.139 113.654,-485.973 130.035,-463.372"/>
<polygon fill="none" stroke="black" points="24.0879,-914.738 27.6445,-924.718 31.0878,-914.699 24.0879,-914.738"/>
</g>
<!-- TeamEvent -->
<g id="node10" class="node"><title>TeamEvent</title>
<polygon fill="#f2f2f2" stroke="black" points="102,-193 102,-229 188,-229 188,-193 102,-193"/>
<text text-anchor="middle" x="145" y="-207.3" font-family="Helvetica,sans-Serif" font-size="14.00">TeamEvent</text>
</g>
<!-- Event&#45;&gt;TeamEvent -->
<g id="edge9" class="edge"><title>Event&#45;&gt;TeamEvent</title>
<path fill="none" stroke="black" d="M28.446,-914.631C30.3595,-809.456 39.425,-442.162 74,-331 86.1776,-291.848 113.05,-251.777 129.731,-229.273"/>
<polygon fill="none" stroke="black" points="24.9439,-914.729 28.2689,-924.789 31.9428,-914.851 24.9439,-914.729"/>
</g>
<!-- ApprovalEvent -->
<g id="node11" class="node"><title>ApprovalEvent</title>
<polygon fill="#f2f2f2" stroke="black" points="93,-17 93,-53 197,-53 197,-17 93,-17"/>
<text text-anchor="middle" x="145" y="-31.3" font-family="Helvetica,sans-Serif" font-size="14.00">ApprovalEvent</text>
</g>
<!-- Event&#45;&gt;ApprovalEvent -->
<g id="edge10" class="edge"><title>Event&#45;&gt;ApprovalEvent</title>
<path fill="none" stroke="black" d="M28.2505,-914.635C29.6484,-775.846 37.7828,-171.951 74,-97 82.6877,-79.0208 99.1866,-64.0058 113.985,-53.2571"/>
<polygon fill="none" stroke="black" points="24.7485,-914.835 28.1513,-924.868 31.7482,-914.902 24.7485,-914.835"/>
</g>
<!-- AccountCreatedEvent -->
<g id="node12" class="node"><title>AccountCreatedEvent</title>
<polygon fill="#f2f2f2" stroke="black" points="242.5,-1787 242.5,-1823 390.5,-1823 390.5,-1787 242.5,-1787"/>
<text text-anchor="middle" x="316.5" y="-1801.3" font-family="Helvetica,sans-Serif" font-size="14.00">AccountCreatedEvent</text>
</g>
<!-- AccountEvent&#45;&gt;AccountCreatedEvent -->
<g id="edge11" class="edge"><title>AccountEvent&#45;&gt;AccountCreatedEvent</title>
<path fill="none" stroke="black" d="M204.945,-1822.61C216.997,-1820.69 229.819,-1818.65 242.3,-1816.66"/>
<polygon fill="none" stroke="black" points="204.351,-1819.16 195.026,-1824.19 205.453,-1826.07 204.351,-1819.16"/>
</g>
<!-- AccountDeletedEvent -->
<g id="node13" class="node"><title>AccountDeletedEvent</title>
<polygon fill="#f2f2f2" stroke="black" points="243.5,-1842 243.5,-1878 389.5,-1878 389.5,-1842 243.5,-1842"/>
<text text-anchor="middle" x="316.5" y="-1856.3" font-family="Helvetica,sans-Serif" font-size="14.00">AccountDeletedEvent</text>
</g>
<!-- AccountEvent&#45;&gt;AccountDeletedEvent -->
<g id="edge12" class="edge"><title>AccountEvent&#45;&gt;AccountDeletedEvent</title>
<path fill="none" stroke="black" d="M205.146,-1841.77C217.446,-1843.8 230.541,-1845.97 243.252,-1848.07"/>
<polygon fill="none" stroke="black" points="205.463,-1838.28 195.026,-1840.1 204.322,-1845.18 205.463,-1838.28"/>
</g>
<!-- AccountUpdatedEvent -->
<g id="node14" class="node"><title>AccountUpdatedEvent</title>
<polygon fill="#f2f2f2" stroke="black" points="241,-1897 241,-1933 392,-1933 392,-1897 241,-1897"/>
<text text-anchor="middle" x="316.5" y="-1911.3" font-family="Helvetica,sans-Serif" font-size="14.00">AccountUpdatedEvent</text>
</g>
<!-- AccountEvent&#45;&gt;AccountUpdatedEvent -->
<g id="edge13" class="edge"><title>AccountEvent&#45;&gt;AccountUpdatedEvent</title>
<path fill="none" stroke="black" d="M180.17,-1855.85C196.558,-1866.6 216.772,-1878.9 236,-1888 242.72,-1891.18 249.917,-1894.16 257.135,-1896.91"/>
<polygon fill="none" stroke="black" points="181.751,-1852.69 171.489,-1850.06 177.869,-1858.52 181.751,-1852.69"/>
</g>
<!-- CategoryCreatedEvent -->
<g id="node15" class="node"><title>CategoryCreatedEvent</title>
<polygon fill="#f2f2f2" stroke="black" points="239.5,-1592 239.5,-1628 393.5,-1628 393.5,-1592 239.5,-1592"/>
<text text-anchor="middle" x="316.5" y="-1606.3" font-family="Helvetica,sans-Serif" font-size="14.00">CategoryCreatedEvent</text>
</g>
<!-- CategoryEvent&#45;&gt;CategoryCreatedEvent -->
<g id="edge14" class="edge"><title>CategoryEvent&#45;&gt;CategoryCreatedEvent</title>
<path fill="none" stroke="black" d="M208.217,-1627.09C218.375,-1625.47 228.999,-1623.78 239.444,-1622.12"/>
<polygon fill="none" stroke="black" points="207.564,-1623.65 198.239,-1628.68 208.665,-1630.56 207.564,-1623.65"/>
</g>
<!-- CategoryDeletedEvent -->
<g id="node16" class="node"><title>CategoryDeletedEvent</title>
<polygon fill="#f2f2f2" stroke="black" points="240.5,-1647 240.5,-1683 392.5,-1683 392.5,-1647 240.5,-1647"/>
<text text-anchor="middle" x="316.5" y="-1661.3" font-family="Helvetica,sans-Serif" font-size="14.00">CategoryDeletedEvent</text>
</g>
<!-- CategoryEvent&#45;&gt;CategoryDeletedEvent -->
<g id="edge15" class="edge"><title>CategoryEvent&#45;&gt;CategoryDeletedEvent</title>
<path fill="none" stroke="black" d="M208.12,-1647.26C218.611,-1648.99 229.6,-1650.81 240.379,-1652.59"/>
<polygon fill="none" stroke="black" points="208.675,-1643.81 198.239,-1645.63 207.534,-1650.71 208.675,-1643.81"/>
</g>
<!-- CategoryUpdatedEvent -->
<g id="node17" class="node"><title>CategoryUpdatedEvent</title>
<polygon fill="#f2f2f2" stroke="black" points="238,-1702 238,-1738 395,-1738 395,-1702 238,-1702"/>
<text text-anchor="middle" x="316.5" y="-1716.3" font-family="Helvetica,sans-Serif" font-size="14.00">CategoryUpdatedEvent</text>
</g>
<!-- CategoryEvent&#45;&gt;CategoryUpdatedEvent -->
<g id="edge16" class="edge"><title>CategoryEvent&#45;&gt;CategoryUpdatedEvent</title>
<path fill="none" stroke="black" d="M180.99,-1660.75C197.268,-1671.17 217.161,-1683.05 236,-1692 243.401,-1695.52 251.369,-1698.84 259.301,-1701.87"/>
<polygon fill="none" stroke="black" points="182.64,-1657.65 172.348,-1655.14 178.827,-1663.52 182.64,-1657.65"/>
</g>
<!-- CustomerCreatedEvent -->
<g id="node18" class="node"><title>CustomerCreatedEvent</title>
<polygon fill="#f2f2f2" stroke="black" points="237.5,-1397 237.5,-1433 395.5,-1433 395.5,-1397 237.5,-1397"/>
<text text-anchor="middle" x="316.5" y="-1411.3" font-family="Helvetica,sans-Serif" font-size="14.00">CustomerCreatedEvent</text>
</g>
<!-- CustomerEvent&#45;&gt;CustomerCreatedEvent -->
<g id="edge17" class="edge"><title>CustomerEvent&#45;&gt;CustomerCreatedEvent</title>
<path fill="none" stroke="black" d="M209.977,-1431.81C218.87,-1430.39 228.088,-1428.92 237.206,-1427.47"/>
<polygon fill="none" stroke="black" points="209.422,-1428.35 200.097,-1433.38 210.523,-1435.27 209.422,-1428.35"/>
</g>
<!-- CustomerDeletedEvent -->
<g id="node19" class="node"><title>CustomerDeletedEvent</title>
<polygon fill="#f2f2f2" stroke="black" points="238,-1452 238,-1488 395,-1488 395,-1452 238,-1452"/>
<text text-anchor="middle" x="316.5" y="-1466.3" font-family="Helvetica,sans-Serif" font-size="14.00">CustomerDeletedEvent</text>
</g>
<!-- CustomerEvent&#45;&gt;CustomerDeletedEvent -->
<g id="edge18" class="edge"><title>CustomerEvent&#45;&gt;CustomerDeletedEvent</title>
<path fill="none" stroke="black" d="M210.141,-1452.6C219.184,-1454.09 228.56,-1455.64 237.823,-1457.17"/>
<polygon fill="none" stroke="black" points="210.534,-1449.11 200.097,-1450.94 209.393,-1456.02 210.534,-1449.11"/>
</g>
<!-- CustomerUpdatedEvent -->
<g id="node20" class="node"><title>CustomerUpdatedEvent</title>
<polygon fill="#f2f2f2" stroke="black" points="236,-1507 236,-1543 397,-1543 397,-1507 236,-1507"/>
<text text-anchor="middle" x="316.5" y="-1521.3" font-family="Helvetica,sans-Serif" font-size="14.00">CustomerUpdatedEvent</text>
</g>
<!-- CustomerEvent&#45;&gt;CustomerUpdatedEvent -->
<g id="edge19" class="edge"><title>CustomerEvent&#45;&gt;CustomerUpdatedEvent</title>
<path fill="none" stroke="black" d="M180.99,-1465.75C197.268,-1476.17 217.161,-1488.05 236,-1497 243.401,-1500.52 251.369,-1503.84 259.301,-1506.87"/>
<polygon fill="none" stroke="black" points="182.64,-1462.65 172.348,-1460.14 178.827,-1468.52 182.64,-1462.65"/>
</g>
<!-- FolioCreatedEvent -->
<g id="node21" class="node"><title>FolioCreatedEvent</title>
<polygon fill="#f2f2f2" stroke="black" points="252.5,-1163 252.5,-1199 380.5,-1199 380.5,-1163 252.5,-1163"/>
<text text-anchor="middle" x="316.5" y="-1177.3" font-family="Helvetica,sans-Serif" font-size="14.00">FolioCreatedEvent</text>
</g>
<!-- FolioEvent&#45;&gt;FolioCreatedEvent -->
<g id="edge20" class="edge"><title>FolioEvent&#45;&gt;FolioCreatedEvent</title>
<path fill="none" stroke="black" d="M195.435,-1200.13C213.172,-1197.3 233.421,-1194.07 252.174,-1191.09"/>
<polygon fill="none" stroke="black" points="194.638,-1196.71 185.313,-1201.74 195.739,-1203.62 194.638,-1196.71"/>
</g>
<!-- FolioDeletedEvent -->
<g id="node22" class="node"><title>FolioDeletedEvent</title>
<polygon fill="#f2f2f2" stroke="black" points="253,-1218 253,-1254 380,-1254 380,-1218 253,-1218"/>
<text text-anchor="middle" x="316.5" y="-1232.3" font-family="Helvetica,sans-Serif" font-size="14.00">FolioDeletedEvent</text>
</g>
<!-- FolioEvent&#45;&gt;FolioDeletedEvent -->
<g id="edge21" class="edge"><title>FolioEvent&#45;&gt;FolioDeletedEvent</title>
<path fill="none" stroke="black" d="M195.287,-1216.14C213.268,-1219.11 233.847,-1222.51 252.836,-1225.65"/>
<polygon fill="none" stroke="black" points="195.75,-1212.67 185.313,-1214.49 194.609,-1219.58 195.75,-1212.67"/>
</g>
<!-- FolioUpdatedEvent -->
<g id="node23" class="node"><title>FolioUpdatedEvent</title>
<polygon fill="#f2f2f2" stroke="black" points="251,-1273 251,-1309 382,-1309 382,-1273 251,-1273"/>
<text text-anchor="middle" x="316.5" y="-1287.3" font-family="Helvetica,sans-Serif" font-size="14.00">FolioUpdatedEvent</text>
</g>
<!-- FolioEvent&#45;&gt;FolioUpdatedEvent -->
<g id="edge22" class="edge"><title>FolioEvent&#45;&gt;FolioUpdatedEvent</title>
<path fill="none" stroke="black" d="M180.99,-1231.75C197.268,-1242.17 217.161,-1254.05 236,-1263 243.401,-1266.52 251.369,-1269.84 259.301,-1272.87"/>
<polygon fill="none" stroke="black" points="182.64,-1228.65 172.348,-1226.14 178.827,-1234.52 182.64,-1228.65"/>
</g>
<!-- PortfolioCreatedEvent -->
<g id="node24" class="node"><title>PortfolioCreatedEvent</title>
<polygon fill="#f2f2f2" stroke="black" points="242,-968 242,-1004 391,-1004 391,-968 242,-968"/>
<text text-anchor="middle" x="316.5" y="-982.3" font-family="Helvetica,sans-Serif" font-size="14.00">PortfolioCreatedEvent</text>
</g>
<!-- PortfolioEvent&#45;&gt;PortfolioCreatedEvent -->
<g id="edge23" class="edge"><title>PortfolioEvent&#45;&gt;PortfolioCreatedEvent</title>
<path fill="none" stroke="black" d="M205.92,-1003.46C217.504,-1001.61 229.767,-999.657 241.733,-997.751"/>
<polygon fill="none" stroke="black" points="205.264,-1000.02 195.939,-1005.05 206.365,-1006.93 205.264,-1000.02"/>
</g>
<!-- PortfolioDeletedEvent -->
<g id="node25" class="node"><title>PortfolioDeletedEvent</title>
<polygon fill="#f2f2f2" stroke="black" points="243,-1023 243,-1059 390,-1059 390,-1023 243,-1023"/>
<text text-anchor="middle" x="316.5" y="-1037.3" font-family="Helvetica,sans-Serif" font-size="14.00">PortfolioDeletedEvent</text>
</g>
<!-- PortfolioEvent&#45;&gt;PortfolioDeletedEvent -->
<g id="edge24" class="edge"><title>PortfolioEvent&#45;&gt;PortfolioDeletedEvent</title>
<path fill="none" stroke="black" d="M205.836,-1022.88C217.852,-1024.87 230.602,-1026.98 242.994,-1029.02"/>
<polygon fill="none" stroke="black" points="206.376,-1019.43 195.939,-1021.25 205.235,-1026.33 206.376,-1019.43"/>
</g>
<!-- PortfolioUpdatedEvent -->
<g id="node26" class="node"><title>PortfolioUpdatedEvent</title>
<polygon fill="#f2f2f2" stroke="black" points="240.5,-1078 240.5,-1114 392.5,-1114 392.5,-1078 240.5,-1078"/>
<text text-anchor="middle" x="316.5" y="-1092.3" font-family="Helvetica,sans-Serif" font-size="14.00">PortfolioUpdatedEvent</text>
</g>
<!-- PortfolioEvent&#45;&gt;PortfolioUpdatedEvent -->
<g id="edge25" class="edge"><title>PortfolioEvent&#45;&gt;PortfolioUpdatedEvent</title>
<path fill="none" stroke="black" d="M180.99,-1036.75C197.268,-1047.17 217.161,-1059.05 236,-1068 243.401,-1071.52 251.369,-1074.84 259.301,-1077.87"/>
<polygon fill="none" stroke="black" points="182.64,-1033.65 172.348,-1031.14 178.827,-1039.52 182.64,-1033.65"/>
</g>
<!-- ExpenseCreatedEvent -->
<g id="node27" class="node"><title>ExpenseCreatedEvent</title>
<polygon fill="#f2f2f2" stroke="black" points="240.5,-773 240.5,-809 392.5,-809 392.5,-773 240.5,-773"/>
<text text-anchor="middle" x="316.5" y="-787.3" font-family="Helvetica,sans-Serif" font-size="14.00">ExpenseCreatedEvent</text>
</g>
<!-- ExpenseEvent&#45;&gt;ExpenseCreatedEvent -->
<g id="edge26" class="edge"><title>ExpenseEvent&#45;&gt;ExpenseCreatedEvent</title>
<path fill="none" stroke="black" d="M180.944,-849.152C197.213,-838.709 217.111,-826.846 236,-818 242.732,-814.847 249.937,-811.879 257.16,-809.147"/>
<polygon fill="none" stroke="black" points="178.775,-846.388 172.308,-854.78 182.597,-852.253 178.775,-846.388"/>
</g>
<!-- ExpenseDeletedEvent -->
<g id="node28" class="node"><title>ExpenseDeletedEvent</title>
<polygon fill="#f2f2f2" stroke="black" points="241.5,-828 241.5,-864 391.5,-864 391.5,-828 241.5,-828"/>
<text text-anchor="middle" x="316.5" y="-842.3" font-family="Helvetica,sans-Serif" font-size="14.00">ExpenseDeletedEvent</text>
</g>
<!-- ExpenseEvent&#45;&gt;ExpenseDeletedEvent -->
<g id="edge27" class="edge"><title>ExpenseEvent&#45;&gt;ExpenseDeletedEvent</title>
<path fill="none" stroke="black" d="M207.254,-863.243C218.277,-861.487 229.877,-859.639 241.222,-857.832"/>
<polygon fill="none" stroke="black" points="206.64,-859.796 197.316,-864.826 207.742,-866.709 206.64,-859.796"/>
</g>
<!-- ExpenseUpdatedEvent -->
<g id="node29" class="node"><title>ExpenseUpdatedEvent</title>
<polygon fill="#f2f2f2" stroke="black" points="239,-883 239,-919 394,-919 394,-883 239,-883"/>
<text text-anchor="middle" x="316.5" y="-897.3" font-family="Helvetica,sans-Serif" font-size="14.00">ExpenseUpdatedEvent</text>
</g>
<!-- ExpenseEvent&#45;&gt;ExpenseUpdatedEvent -->
<g id="edge28" class="edge"><title>ExpenseEvent&#45;&gt;ExpenseUpdatedEvent</title>
<path fill="none" stroke="black" d="M207.32,-883.13C217.513,-884.813 228.196,-886.578 238.714,-888.316"/>
<polygon fill="none" stroke="black" points="207.752,-879.654 197.316,-881.477 206.611,-886.56 207.752,-879.654"/>
</g>
<!-- PositionCreatedEvent -->
<g id="node30" class="node"><title>PositionCreatedEvent</title>
<polygon fill="#f2f2f2" stroke="black" points="243,-578 243,-614 390,-614 390,-578 243,-578"/>
<text text-anchor="middle" x="316.5" y="-592.3" font-family="Helvetica,sans-Serif" font-size="14.00">PositionCreatedEvent</text>
</g>
<!-- PositionEvent&#45;&gt;PositionCreatedEvent -->
<g id="edge29" class="edge"><title>PositionEvent&#45;&gt;PositionCreatedEvent</title>
<path fill="none" stroke="black" d="M180.17,-655.153C196.558,-644.399 216.772,-632.099 236,-623 242.72,-619.82 249.917,-616.836 257.135,-614.095"/>
<polygon fill="none" stroke="black" points="177.869,-652.481 171.489,-660.939 181.751,-658.305 177.869,-652.481"/>
</g>
<!-- PositionDeletedEvent -->
<g id="node31" class="node"><title>PositionDeletedEvent</title>
<polygon fill="#f2f2f2" stroke="black" points="243.5,-633 243.5,-669 389.5,-669 389.5,-633 243.5,-633"/>
<text text-anchor="middle" x="316.5" y="-647.3" font-family="Helvetica,sans-Serif" font-size="14.00">PositionDeletedEvent</text>
</g>
<!-- PositionEvent&#45;&gt;PositionDeletedEvent -->
<g id="edge30" class="edge"><title>PositionEvent&#45;&gt;PositionDeletedEvent</title>
<path fill="none" stroke="black" d="M204.769,-669.292C217.17,-667.243 230.393,-665.059 243.226,-662.939"/>
<polygon fill="none" stroke="black" points="203.868,-665.893 194.572,-670.976 205.009,-672.8 203.868,-665.893"/>
</g>
<!-- PositionUpdatedEvent -->
<g id="node32" class="node"><title>PositionUpdatedEvent</title>
<polygon fill="#f2f2f2" stroke="black" points="241.5,-688 241.5,-724 391.5,-724 391.5,-688 241.5,-688"/>
<text text-anchor="middle" x="316.5" y="-702.3" font-family="Helvetica,sans-Serif" font-size="14.00">PositionUpdatedEvent</text>
</g>
<!-- PositionEvent&#45;&gt;PositionUpdatedEvent -->
<g id="edge31" class="edge"><title>PositionEvent&#45;&gt;PositionUpdatedEvent</title>
<path fill="none" stroke="black" d="M204.723,-688.354C216.524,-690.234 229.069,-692.232 241.316,-694.183"/>
<polygon fill="none" stroke="black" points="204.998,-684.854 194.572,-686.737 203.897,-691.767 204.998,-684.854"/>
</g>
<!-- AllocationCreatedEvent -->
<g id="node33" class="node"><title>AllocationCreatedEvent</title>
<polygon fill="#f2f2f2" stroke="black" points="237.5,-344 237.5,-380 395.5,-380 395.5,-344 237.5,-344"/>
<text text-anchor="middle" x="316.5" y="-358.3" font-family="Helvetica,sans-Serif" font-size="14.00">AllocationCreatedEvent</text>
</g>
<!-- AllocationEvent&#45;&gt;AllocationCreatedEvent -->
<g id="edge32" class="edge"><title>AllocationEvent&#45;&gt;AllocationCreatedEvent</title>
<path fill="none" stroke="black" d="M180.17,-421.153C196.558,-410.399 216.772,-398.099 236,-389 242.72,-385.82 249.917,-382.836 257.135,-380.095"/>
<polygon fill="none" stroke="black" points="177.869,-418.481 171.489,-426.939 181.751,-424.305 177.869,-418.481"/>
</g>
<!-- AllocationDeletedEvent -->
<g id="node34" class="node"><title>AllocationDeletedEvent</title>
<polygon fill="#f2f2f2" stroke="black" points="238.5,-399 238.5,-435 394.5,-435 394.5,-399 238.5,-399"/>
<text text-anchor="middle" x="316.5" y="-413.3" font-family="Helvetica,sans-Serif" font-size="14.00">AllocationDeletedEvent</text>
</g>
<!-- AllocationEvent&#45;&gt;AllocationDeletedEvent -->
<g id="edge33" class="edge"><title>AllocationEvent&#45;&gt;AllocationDeletedEvent</title>
<path fill="none" stroke="black" d="M210.009,-434.426C219.294,-432.892 228.932,-431.3 238.44,-429.73"/>
<polygon fill="none" stroke="black" points="209.393,-430.981 200.097,-436.064 210.534,-437.887 209.393,-430.981"/>
</g>
<!-- AllocationUpdatedEvent -->
<g id="node35" class="node"><title>AllocationUpdatedEvent</title>
<polygon fill="#f2f2f2" stroke="black" points="236,-454 236,-490 397,-490 397,-454 236,-454"/>
<text text-anchor="middle" x="316.5" y="-468.3" font-family="Helvetica,sans-Serif" font-size="14.00">AllocationUpdatedEvent</text>
</g>
<!-- AllocationEvent&#45;&gt;AllocationUpdatedEvent -->
<g id="edge34" class="edge"><title>AllocationEvent&#45;&gt;AllocationUpdatedEvent</title>
<path fill="none" stroke="black" d="M210.202,-455.227C218.624,-456.568 227.334,-457.956 235.971,-459.332"/>
<polygon fill="none" stroke="black" points="210.523,-451.734 200.097,-453.617 209.422,-458.647 210.523,-451.734"/>
</g>
<!-- TeamCreatedEvent -->
<g id="node36" class="node"><title>TeamCreatedEvent</title>
<polygon fill="#f2f2f2" stroke="black" points="249.5,-110 249.5,-146 383.5,-146 383.5,-110 249.5,-110"/>
<text text-anchor="middle" x="316.5" y="-124.3" font-family="Helvetica,sans-Serif" font-size="14.00">TeamCreatedEvent</text>
</g>
<!-- TeamEvent&#45;&gt;TeamCreatedEvent -->
<g id="edge35" class="edge"><title>TeamEvent&#45;&gt;TeamCreatedEvent</title>
<path fill="none" stroke="black" d="M180.17,-187.153C196.558,-176.399 216.772,-164.099 236,-155 242.72,-151.82 249.917,-148.836 257.135,-146.095"/>
<polygon fill="none" stroke="black" points="177.869,-184.481 171.489,-192.939 181.751,-190.305 177.869,-184.481"/>
</g>
<!-- TeamDeletedEvent -->
<g id="node37" class="node"><title>TeamDeletedEvent</title>
<polygon fill="#f2f2f2" stroke="black" points="250,-165 250,-201 383,-201 383,-165 250,-165"/>
<text text-anchor="middle" x="316.5" y="-179.3" font-family="Helvetica,sans-Serif" font-size="14.00">TeamDeletedEvent</text>
</g>
<!-- TeamEvent&#45;&gt;TeamDeletedEvent -->
<g id="edge36" class="edge"><title>TeamEvent&#45;&gt;TeamDeletedEvent</title>
<path fill="none" stroke="black" d="M198.241,-202.37C214.589,-199.67 232.838,-196.655 249.98,-193.823"/>
<polygon fill="none" stroke="black" points="197.631,-198.924 188.335,-204.007 198.772,-205.83 197.631,-198.924"/>
</g>
<!-- TeamUpdatedEvent -->
<g id="node38" class="node"><title>TeamUpdatedEvent</title>
<polygon fill="#f2f2f2" stroke="black" points="248,-220 248,-256 385,-256 385,-220 248,-220"/>
<text text-anchor="middle" x="316.5" y="-234.3" font-family="Helvetica,sans-Serif" font-size="14.00">TeamUpdatedEvent</text>
</g>
<!-- TeamEvent&#45;&gt;TeamUpdatedEvent -->
<g id="edge37" class="edge"><title>TeamEvent&#45;&gt;TeamUpdatedEvent</title>
<path fill="none" stroke="black" d="M198.311,-219.333C213.914,-221.818 231.243,-224.579 247.686,-227.198"/>
<polygon fill="none" stroke="black" points="198.761,-215.86 188.335,-217.744 197.66,-222.773 198.761,-215.86"/>
</g>
</g>
</svg>
