<?xml version="1.0" encoding="UTF-8" standalone="no"?>
<!DOCTYPE svg PUBLIC "-//W3C//DTD SVG 1.1//EN"
 "http://www.w3.org/Graphics/SVG/1.1/DTD/svg11.dtd">
<!-- Generated by graphviz version 2.40.1 (20161225.0304)
 -->
<!-- Title: hierarchy Pages: 1 -->
<svg width="453pt" height="259pt"
     viewBox="0.00 0.00 453.40 259.00" xmlns="http://www.w3.org/2000/svg">
<g id="graph0" class="graph" transform="scale(1 1) rotate(0) translate(4 255)">
<title>hierarchy</title>
<polygon fill="#ffffff" stroke="transparent" points="-4,4 -4,-255 449.4028,-255 449.4028,4 -4,4"/>
<text text-anchor="middle" x="222.7014" y="-36.8" font-family="Helvetica,sans-Serif" font-size="14.00" fill="#000000">Team</text>
<text text-anchor="middle" x="222.7014" y="-6.8" font-family="Helvetica,sans-Serif" font-size="14.00" fill="#000000">package: com.tempoplugin.team.api.event</text>
<!-- Event -->
<g id="node1" class="node">
<title>Event</title>
<polygon fill="#f2f2f2" stroke="#000000" points="193.9204,-214.5 193.9204,-250.5 247.9204,-250.5 247.9204,-214.5 193.9204,-214.5"/>
<text text-anchor="middle" x="220.8203" y="-228.3" font-family="Helvetica,sans-Serif" font-size="14.00" fill="#000000">Event</text>
</g>
<!-- TeamEvent -->
<g id="node2" class="node">
<title>TeamEvent</title>
<polygon fill="#f2f2f2" stroke="#000000" points="177.9033,-141.5 177.9033,-177.5 263.9375,-177.5 263.9375,-141.5 177.9033,-141.5"/>
<text text-anchor="middle" x="220.9204" y="-155.3" font-family="Helvetica,sans-Serif" font-size="14.00" fill="#000000">TeamEvent</text>
</g>
<!-- Event&#45;&gt;TeamEvent -->
<g id="edge1" class="edge">
<title>Event&#45;&gt;TeamEvent</title>
<path fill="none" stroke="#000000" d="M220.9204,-204.3688C220.9204,-195.3769 220.9204,-185.6687 220.9204,-177.5904"/>
<polygon fill="none" stroke="#000000" points="217.4205,-204.455 220.9204,-214.4551 224.4205,-204.4551 217.4205,-204.455"/>
</g>
<!-- TeamCreatedEvent -->
<g id="node3" class="node">
<title>TeamCreatedEvent</title>
<polygon fill="#f2f2f2" stroke="#000000" points="0,-68.5 0,-104.5 135.8408,-104.5 135.8408,-68.5 0,-68.5"/>
<text text-anchor="middle" x="67.9204" y="-82.3" font-family="Helvetica,sans-Serif" font-size="14.00" fill="#000000">TeamCreatedEvent</text>
</g>
<!-- TeamEvent&#45;&gt;TeamCreatedEvent -->
<g id="edge2" class="edge">
<title>TeamEvent&#45;&gt;TeamCreatedEvent</title>
<path fill="none" stroke="#000000" d="M173.9882,-137.1075C152.1225,-126.6748 126.4478,-114.4249 105.8358,-104.5904"/>
<polygon fill="none" stroke="#000000" points="172.5676,-140.3077 183.1002,-141.4551 175.582,-133.9899 172.5676,-140.3077"/>
</g>
<!-- TeamDeletedEvent -->
<g id="node4" class="node">
<title>TeamDeletedEvent</title>
<polygon fill="#f2f2f2" stroke="#000000" points="153.7759,-68.5 153.7759,-104.5 288.0649,-104.5 288.0649,-68.5 153.7759,-68.5"/>
<text text-anchor="middle" x="220.9204" y="-82.3" font-family="Helvetica,sans-Serif" font-size="14.00" fill="#000000">TeamDeletedEvent</text>
</g>
<!-- TeamEvent&#45;&gt;TeamDeletedEvent -->
<g id="edge3" class="edge">
<title>TeamEvent&#45;&gt;TeamDeletedEvent</title>
<path fill="none" stroke="#000000" d="M220.9204,-131.3688C220.9204,-122.3769 220.9204,-112.6687 220.9204,-104.5904"/>
<polygon fill="none" stroke="#000000" points="217.4205,-131.455 220.9204,-141.4551 224.4205,-131.4551 217.4205,-131.455"/>
</g>
<!-- TeamUpdatedEvent -->
<g id="node5" class="node">
<title>TeamUpdatedEvent</title>
<polygon fill="#f2f2f2" stroke="#000000" points="306.438,-68.5 306.438,-104.5 445.4028,-104.5 445.4028,-68.5 306.438,-68.5"/>
<text text-anchor="middle" x="375.9204" y="-82.3" font-family="Helvetica,sans-Serif" font-size="14.00" fill="#000000">TeamUpdatedEvent</text>
</g>
<!-- TeamEvent&#45;&gt;TeamUpdatedEvent -->
<g id="edge4" class="edge">
<title>TeamEvent&#45;&gt;TeamUpdatedEvent</title>
<path fill="none" stroke="#000000" d="M268.4661,-137.1075C290.6177,-126.6748 316.6279,-114.4249 337.5094,-104.5904"/>
<polygon fill="none" stroke="#000000" points="266.7906,-134.0278 259.235,-141.4551 269.7732,-140.3606 266.7906,-134.0278"/>
</g>
</g>
</svg>
