<?xml version="1.0" encoding="UTF-8" standalone="no"?>
<!DOCTYPE svg PUBLIC "-//W3C//DTD SVG 1.1//EN"
 "http://www.w3.org/Graphics/SVG/1.1/DTD/svg11.dtd">
<!-- Generated by graphviz version 2.40.1 (20161225.0304)
 -->
<!-- Title: hierarchy Pages: 1 -->
<svg width="502pt" height="259pt"
     viewBox="0.00 0.00 501.75 259.00" xmlns="http://www.w3.org/2000/svg">
<g id="graph0" class="graph" transform="scale(1 1) rotate(0) translate(4 255)">
<title>hierarchy</title>
<polygon fill="#ffffff" stroke="transparent" points="-4,4 -4,-255 497.7544,-255 497.7544,4 -4,4"/>
<text text-anchor="middle" x="246.8772" y="-36.8" font-family="Helvetica,sans-Serif" font-size="14.00" fill="#000000">Account</text>
<text text-anchor="middle" x="246.8772" y="-6.8" font-family="Helvetica,sans-Serif" font-size="14.00" fill="#000000">package: com.tempoplugin.account.api.event</text>
<!-- Event -->
<g id="node1" class="node">
<title>Event</title>
<polygon fill="#f2f2f2" stroke="#000000" points="218.0962,-214.5 218.0962,-250.5 272.0962,-250.5 272.0962,-214.5 218.0962,-214.5"/>
<text text-anchor="middle" x="244.9961" y="-228.3" font-family="Helvetica,sans-Serif" font-size="14.00" fill="#000000">Event</text>
</g>
<!-- AccountEvent -->
<g id="node2" class="node">
<title>AccountEvent</title>
<polygon fill="#f2f2f2" stroke="#000000" points="193.9033,-141.5 193.9033,-177.5 296.2891,-177.5 296.2891,-141.5 193.9033,-141.5"/>
<text text-anchor="middle" x="245.0962" y="-155.3" font-family="Helvetica,sans-Serif" font-size="14.00" fill="#000000">AccountEvent</text>
</g>
<!-- Event&#45;&gt;AccountEvent -->
<g id="edge1" class="edge">
<title>Event&#45;&gt;AccountEvent</title>
<path fill="none" stroke="#000000" d="M245.0962,-204.3688C245.0962,-195.3769 245.0962,-185.6687 245.0962,-177.5904"/>
<polygon fill="none" stroke="#000000" points="241.5963,-204.455 245.0962,-214.4551 248.5963,-204.4551 241.5963,-204.455"/>
</g>
<!-- AccountCreatedEvent -->
<g id="node3" class="node">
<title>AccountCreatedEvent</title>
<polygon fill="#f2f2f2" stroke="#000000" points="0,-68.5 0,-104.5 152.1924,-104.5 152.1924,-68.5 0,-68.5"/>
<text text-anchor="middle" x="76.0962" y="-82.3" font-family="Helvetica,sans-Serif" font-size="14.00" fill="#000000">AccountCreatedEvent</text>
</g>
<!-- AccountEvent&#45;&gt;AccountCreatedEvent -->
<g id="edge2" class="edge">
<title>AccountEvent&#45;&gt;AccountCreatedEvent</title>
<path fill="none" stroke="#000000" d="M193.902,-137.3865C169.6106,-126.8938 140.9474,-114.5127 117.9766,-104.5904"/>
<polygon fill="none" stroke="#000000" points="192.7528,-140.7027 203.3209,-141.4551 195.5286,-134.2765 192.7528,-140.7027"/>
</g>
<!-- AccountDeletedEvent -->
<g id="node4" class="node">
<title>AccountDeletedEvent</title>
<polygon fill="#f2f2f2" stroke="#000000" points="169.7759,-68.5 169.7759,-104.5 320.4165,-104.5 320.4165,-68.5 169.7759,-68.5"/>
<text text-anchor="middle" x="245.0962" y="-82.3" font-family="Helvetica,sans-Serif" font-size="14.00" fill="#000000">AccountDeletedEvent</text>
</g>
<!-- AccountEvent&#45;&gt;AccountDeletedEvent -->
<g id="edge3" class="edge">
<title>AccountEvent&#45;&gt;AccountDeletedEvent</title>
<path fill="none" stroke="#000000" d="M245.0962,-131.3688C245.0962,-122.3769 245.0962,-112.6687 245.0962,-104.5904"/>
<polygon fill="none" stroke="#000000" points="241.5963,-131.455 245.0962,-141.4551 248.5963,-131.4551 241.5963,-131.455"/>
</g>
<!-- AccountUpdatedEvent -->
<g id="node5" class="node">
<title>AccountUpdatedEvent</title>
<polygon fill="#f2f2f2" stroke="#000000" points="338.438,-68.5 338.438,-104.5 493.7544,-104.5 493.7544,-68.5 338.438,-68.5"/>
<text text-anchor="middle" x="416.0962" y="-82.3" font-family="Helvetica,sans-Serif" font-size="14.00" fill="#000000">AccountUpdatedEvent</text>
</g>
<!-- AccountEvent&#45;&gt;AccountUpdatedEvent -->
<g id="edge4" class="edge">
<title>AccountEvent&#45;&gt;AccountUpdatedEvent</title>
<path fill="none" stroke="#000000" d="M296.5702,-137.5257C321.2183,-127.0034 350.3746,-114.5566 373.7201,-104.5904"/>
<polygon fill="none" stroke="#000000" points="295.1887,-134.3098 287.3659,-141.4551 297.9371,-140.7477 295.1887,-134.3098"/>
</g>
</g>
</svg>
