<?xml version="1.0" encoding="UTF-8" standalone="no"?>
<!DOCTYPE svg PUBLIC "-//W3C//DTD SVG 1.1//EN"
 "http://www.w3.org/Graphics/SVG/1.1/DTD/svg11.dtd">
<!-- Generated by graphviz version 2.40.1 (20161225.0304)
 -->
<!-- Title: hierarchy Pages: 1 -->
<svg width="436pt" height="1998pt"
     viewBox="0.00 0.00 435.94 1998.00" xmlns="http://www.w3.org/2000/svg">
<g id="graph0" class="graph" transform="scale(1 1) rotate(0) translate(4 1994)">
<title>hierarchy</title>
<polygon fill="#ffffff" stroke="transparent" points="-4,4 -4,-1994 431.9365,-1994 431.9365,4 -4,4"/>
<g id="clust1" class="cluster">
<title>cluster_account</title>
<polygon fill="none" stroke="#000000" points="74.0103,-1370 74.0103,-1982 419.9263,-1982 419.9263,-1370 74.0103,-1370"/>
<text text-anchor="middle" x="246.9683" y="-1966.8" font-family="Helvetica,sans-Serif" font-size="14.00" fill="#000000">Accounts</text>
</g>
<g id="clust2" class="cluster">
<title>cluster_account</title>
<polygon fill="none" stroke="#000000" points="87.0586,-1766 87.0586,-1952 406.8779,-1952 406.8779,-1766 87.0586,-1766"/>
<text text-anchor="middle" x="246.9683" y="-1936.8" font-family="Helvetica,sans-Serif" font-size="14.00" fill="#000000">Account</text>
</g>
<g id="clust4" class="cluster">
<title>cluster_category</title>
<polygon fill="none" stroke="#000000" points="83.9482,-1572 83.9482,-1758 409.9883,-1758 409.9883,-1572 83.9482,-1572"/>
<text text-anchor="middle" x="246.9683" y="-1742.8" font-family="Helvetica,sans-Serif" font-size="14.00" fill="#000000">Category</text>
</g>
<g id="clust6" class="cluster">
<title>cluster_customer</title>
<polygon fill="none" stroke="#000000" points="82.0103,-1378 82.0103,-1564 411.9263,-1564 411.9263,-1378 82.0103,-1378"/>
<text text-anchor="middle" x="246.9683" y="-1548.8" font-family="Helvetica,sans-Serif" font-size="14.00" fill="#000000">Customer</text>
</g>
<g id="clust8" class="cluster">
<title>cluster_budget</title>
<polygon fill="none" stroke="#000000" points="77.1104,-556 77.1104,-1362 416.8262,-1362 416.8262,-556 77.1104,-556"/>
<text text-anchor="middle" x="246.9683" y="-1346.8" font-family="Helvetica,sans-Serif" font-size="14.00" fill="#000000">Budgets</text>
</g>
<g id="clust9" class="cluster">
<title>cluster_folio</title>
<polygon fill="none" stroke="#000000" points="97.1792,-1146 97.1792,-1332 396.7573,-1332 396.7573,-1146 97.1792,-1146"/>
<text text-anchor="middle" x="246.9683" y="-1316.8" font-family="Helvetica,sans-Serif" font-size="14.00" fill="#000000">Folio</text>
</g>
<g id="clust11" class="cluster">
<title>cluster_portfolio</title>
<polygon fill="none" stroke="#000000" points="86.6724,-952 86.6724,-1138 407.2642,-1138 407.2642,-952 86.6724,-952"/>
<text text-anchor="middle" x="246.9683" y="-1122.8" font-family="Helvetica,sans-Serif" font-size="14.00" fill="#000000">Portfolio</text>
</g>
<g id="clust13" class="cluster">
<title>cluster_expense</title>
<polygon fill="none" stroke="#000000" points="85.1104,-758 85.1104,-944 408.8262,-944 408.8262,-758 85.1104,-758"/>
<text text-anchor="middle" x="246.9683" y="-928.8" font-family="Helvetica,sans-Serif" font-size="14.00" fill="#000000">Expense</text>
</g>
<g id="clust15" class="cluster">
<title>cluster_position</title>
<polygon fill="none" stroke="#000000" points="87.4482,-564 87.4482,-750 406.4883,-750 406.4883,-564 87.4482,-564"/>
<text text-anchor="middle" x="246.9683" y="-734.8" font-family="Helvetica,sans-Serif" font-size="14.00" fill="#000000">Position</text>
</g>
<g id="clust17" class="cluster">
<title>cluster_planner</title>
<polygon fill="none" stroke="#000000" points="74,-324 74,-548 419.9365,-548 419.9365,-324 74,-324"/>
<text text-anchor="middle" x="246.9683" y="-532.8" font-family="Helvetica,sans-Serif" font-size="14.00" fill="#000000">Planner</text>
</g>
<g id="clust18" class="cluster">
<title>cluster_allocation</title>
<polygon fill="none" stroke="#000000" points="82,-332 82,-518 411.9365,-518 411.9365,-332 82,-332"/>
<text text-anchor="middle" x="246.9683" y="-502.8" font-family="Helvetica,sans-Serif" font-size="14.00" fill="#000000">Allocation</text>
</g>
<g id="clust20" class="cluster">
<title>cluster_teams</title>
<polygon fill="none" stroke="#000000" points="87.2344,-92 87.2344,-316 406.7021,-316 406.7021,-92 87.2344,-92"/>
<text text-anchor="middle" x="246.9683" y="-300.8" font-family="Helvetica,sans-Serif" font-size="14.00" fill="#000000">Teams</text>
</g>
<g id="clust21" class="cluster">
<title>cluster_team</title>
<polygon fill="none" stroke="#000000" points="95.2344,-100 95.2344,-286 398.7021,-286 398.7021,-100 95.2344,-100"/>
<text text-anchor="middle" x="246.9683" y="-270.8" font-family="Helvetica,sans-Serif" font-size="14.00" fill="#000000">Team</text>
</g>
<g id="clust23" class="cluster">
<title>cluster_timesheets</title>
<polygon fill="none" stroke="#000000" points="84.7241,-8 84.7241,-84 407.6504,-84 407.6504,-8 84.7241,-8"/>
<text text-anchor="middle" x="246.1873" y="-68.8" font-family="Helvetica,sans-Serif" font-size="14.00" fill="#000000">Timesheets</text>
</g>
<!-- Event -->
<g id="node1" class="node">
<title>Event</title>
<polygon fill="#f2f2f2" stroke="#000000" points="0,-918 0,-954 54,-954 54,-918 0,-918"/>
<text text-anchor="middle" x="27" y="-931.8" font-family="Helvetica,sans-Serif" font-size="14.00" fill="#000000">Event</text>
</g>
<!-- AccountEvent -->
<g id="node2" class="node">
<title>AccountEvent</title>
<polygon fill="#f2f2f2" stroke="#000000" points="95.0586,-1802 95.0586,-1838 197.4443,-1838 197.4443,-1802 95.0586,-1802"/>
<text text-anchor="middle" x="146.2515" y="-1815.8" font-family="Helvetica,sans-Serif" font-size="14.00" fill="#000000">AccountEvent</text>
</g>
<!-- Event&#45;&gt;AccountEvent -->
<g id="edge1" class="edge">
<title>Event&#45;&gt;AccountEvent</title>
<path fill="none" stroke="#000000" d="M27.2518,-964.1702C28.652,-1100.6835 36.8206,-1689.813 74,-1762 82.5436,-1778.5881 98.1794,-1792.0519 112.7259,-1801.8169"/>
<polygon fill="none" stroke="#000000" points="30.751,-964.0594 27.1525,-954.0944 23.7513,-964.1285 30.751,-964.0594"/>
</g>
<!-- CategoryEvent -->
<g id="node3" class="node">
<title>CategoryEvent</title>
<polygon fill="#f2f2f2" stroke="#000000" points="91.9482,-1608 91.9482,-1644 200.5547,-1644 200.5547,-1608 91.9482,-1608"/>
<text text-anchor="middle" x="146.2515" y="-1621.8" font-family="Helvetica,sans-Serif" font-size="14.00" fill="#000000">CategoryEvent</text>
</g>
<!-- Event&#45;&gt;CategoryEvent -->
<g id="edge2" class="edge">
<title>Event&#45;&gt;CategoryEvent</title>
<path fill="none" stroke="#000000" d="M27.7805,-964.2439C31.1553,-1079.9346 45.62,-1514.0554 74,-1568 82.6875,-1584.5132 98.3368,-1597.9699 112.855,-1607.7497"/>
<polygon fill="none" stroke="#000000" points="31.2739,-963.961 27.4884,-954.0655 24.2768,-964.1618 31.2739,-963.961"/>
</g>
<!-- CustomerEvent -->
<g id="node4" class="node">
<title>CustomerEvent</title>
<polygon fill="#f2f2f2" stroke="#000000" points="90.0103,-1414 90.0103,-1450 202.4927,-1450 202.4927,-1414 90.0103,-1414"/>
<text text-anchor="middle" x="146.2515" y="-1427.8" font-family="Helvetica,sans-Serif" font-size="14.00" fill="#000000">CustomerEvent</text>
</g>
<!-- Event&#45;&gt;CustomerEvent -->
<g id="edge3" class="edge">
<title>Event&#45;&gt;CustomerEvent</title>
<path fill="none" stroke="#000000" d="M28.4131,-964.4531C32.6733,-1044.1399 46.8037,-1268.1201 74,-1336 86.18,-1366.4003 110.5952,-1395.6197 127.6574,-1413.6726"/>
<polygon fill="none" stroke="#000000" points="31.8943,-964.0015 27.8771,-954.1978 24.9039,-964.3669 31.8943,-964.0015"/>
</g>
<!-- FolioEvent -->
<g id="node5" class="node">
<title>FolioEvent</title>
<polygon fill="#f2f2f2" stroke="#000000" points="105.1792,-1182 105.1792,-1218 187.3237,-1218 187.3237,-1182 105.1792,-1182"/>
<text text-anchor="middle" x="146.2515" y="-1195.8" font-family="Helvetica,sans-Serif" font-size="14.00" fill="#000000">FolioEvent</text>
</g>
<!-- Event&#45;&gt;FolioEvent -->
<g id="edge4" class="edge">
<title>Event&#45;&gt;FolioEvent</title>
<path fill="none" stroke="#000000" d="M31.0673,-964.0844C38.5658,-1013.2389 55.5028,-1112.4536 74,-1142 84.1571,-1158.2244 100.4834,-1171.8978 115.0486,-1181.886"/>
<polygon fill="none" stroke="#000000" points="34.5174,-963.49 29.5722,-954.12 27.5949,-964.5287 34.5174,-963.49"/>
</g>
<!-- PortfolioEvent -->
<g id="node6" class="node">
<title>PortfolioEvent</title>
<polygon fill="#f2f2f2" stroke="#000000" points="94.6724,-988 94.6724,-1024 197.8306,-1024 197.8306,-988 94.6724,-988"/>
<text text-anchor="middle" x="146.2515" y="-1001.8" font-family="Helvetica,sans-Serif" font-size="14.00" fill="#000000">PortfolioEvent</text>
</g>
<!-- Event&#45;&gt;PortfolioEvent -->
<g id="edge5" class="edge">
<title>Event&#45;&gt;PortfolioEvent</title>
<path fill="none" stroke="#000000" d="M63.0177,-957.1422C79.7662,-966.9735 99.4785,-978.5445 115.5146,-987.9576"/>
<polygon fill="none" stroke="#000000" points="64.4558,-953.928 54.06,-951.8841 60.9122,-959.9648 64.4558,-953.928"/>
</g>
<!-- ExpenseEvent -->
<g id="node7" class="node">
<title>ExpenseEvent</title>
<polygon fill="#f2f2f2" stroke="#000000" points="93.1104,-849 93.1104,-885 199.3926,-885 199.3926,-849 93.1104,-849"/>
<text text-anchor="middle" x="146.2515" y="-862.8" font-family="Helvetica,sans-Serif" font-size="14.00" fill="#000000">ExpenseEvent</text>
</g>
<!-- Event&#45;&gt;ExpenseEvent -->
<g id="edge6" class="edge">
<title>Event&#45;&gt;ExpenseEvent</title>
<path fill="none" stroke="#000000" d="M62.9477,-915.2003C79.5621,-905.5871 99.105,-894.2794 115.085,-885.0332"/>
<polygon fill="none" stroke="#000000" points="60.9627,-912.3052 54.06,-920.3428 64.4684,-918.3641 60.9627,-912.3052"/>
</g>
<!-- PositionEvent -->
<g id="node8" class="node">
<title>PositionEvent</title>
<polygon fill="#f2f2f2" stroke="#000000" points="95.4482,-655 95.4482,-691 197.0547,-691 197.0547,-655 95.4482,-655"/>
<text text-anchor="middle" x="146.2515" y="-668.8" font-family="Helvetica,sans-Serif" font-size="14.00" fill="#000000">PositionEvent</text>
</g>
<!-- Event&#45;&gt;PositionEvent -->
<g id="edge7" class="edge">
<title>Event&#45;&gt;PositionEvent</title>
<path fill="none" stroke="#000000" d="M30.0791,-907.8389C35.0459,-870.7362 47.1338,-804.3026 74,-754 87.05,-729.5659 108.9362,-706.4849 125.2078,-691.2597"/>
<polygon fill="none" stroke="#000000" points="26.5859,-907.5663 28.8091,-917.9253 33.531,-908.4409 26.5859,-907.5663"/>
</g>
<!-- AllocationEvent -->
<g id="node9" class="node">
<title>AllocationEvent</title>
<polygon fill="#f2f2f2" stroke="#000000" points="90,-423 90,-459 202.5029,-459 202.5029,-423 90,-423"/>
<text text-anchor="middle" x="146.2515" y="-436.8" font-family="Helvetica,sans-Serif" font-size="14.00" fill="#000000">AllocationEvent</text>
</g>
<!-- Event&#45;&gt;AllocationEvent -->
<g id="edge8" class="edge">
<title>Event&#45;&gt;AllocationEvent</title>
<path fill="none" stroke="#000000" d="M29.0212,-907.3523C34.6509,-831.061 51.5811,-624.3977 74,-560 87.5089,-521.196 114.9377,-481.452 131.8418,-459.1283"/>
<polygon fill="none" stroke="#000000" points="25.5084,-907.4022 28.2733,-917.6299 32.49,-907.9104 25.5084,-907.4022"/>
</g>
<!-- TeamEvent -->
<g id="node10" class="node">
<title>TeamEvent</title>
<polygon fill="#f2f2f2" stroke="#000000" points="103.2344,-191 103.2344,-227 189.2686,-227 189.2686,-191 103.2344,-191"/>
<text text-anchor="middle" x="146.2515" y="-204.8" font-family="Helvetica,sans-Serif" font-size="14.00" fill="#000000">TeamEvent</text>
</g>
<!-- Event&#45;&gt;TeamEvent -->
<g id="edge9" class="edge">
<title>Event&#45;&gt;TeamEvent</title>
<path fill="none" stroke="#000000" d="M27.4483,-907.795C29.3771,-803.2336 38.5582,-438.109 74,-328 86.5894,-288.888 114.3199,-249.2451 131.5305,-227.024"/>
<polygon fill="none" stroke="#000000" points="23.9472,-907.834 27.2699,-917.8943 30.9461,-907.9577 23.9472,-907.834"/>
</g>
<!-- ApprovalEvent -->
<g id="node11" class="node">
<title>ApprovalEvent</title>
<polygon fill="#f2f2f2" stroke="#000000" points="92.7241,-17 92.7241,-53 199.7788,-53 199.7788,-17 92.7241,-17"/>
<text text-anchor="middle" x="146.2515" y="-30.8" font-family="Helvetica,sans-Serif" font-size="14.00" fill="#000000">ApprovalEvent</text>
</g>
<!-- Event&#45;&gt;ApprovalEvent -->
<g id="edge10" class="edge">
<title>Event&#45;&gt;ApprovalEvent</title>
<path fill="none" stroke="#000000" d="M27.2601,-907.8182C28.7081,-769.9259 37.0987,-169.9657 74,-96 82.8677,-78.2254 99.4939,-63.6257 114.5633,-53.1706"/>
<polygon fill="none" stroke="#000000" points="23.7587,-907.9499 27.1573,-917.9848 30.7583,-908.0208 23.7587,-907.9499"/>
</g>
<!-- AccountCreatedEvent -->
<g id="node12" class="node">
<title>AccountCreatedEvent</title>
<polygon fill="#f2f2f2" stroke="#000000" points="245.1235,-1775 245.1235,-1811 397.3159,-1811 397.3159,-1775 245.1235,-1775"/>
<text text-anchor="middle" x="321.2197" y="-1788.8" font-family="Helvetica,sans-Serif" font-size="14.00" fill="#000000">AccountCreatedEvent</text>
</g>
<!-- AccountEvent&#45;&gt;AccountCreatedEvent -->
<g id="edge11" class="edge">
<title>AccountEvent&#45;&gt;AccountCreatedEvent</title>
<path fill="none" stroke="#000000" d="M207.7419,-1810.5112C219.8062,-1808.6495 232.5958,-1806.6759 245.0725,-1804.7506"/>
<polygon fill="none" stroke="#000000" points="207.1506,-1807.0609 197.8014,-1812.0451 208.2182,-1813.979 207.1506,-1807.0609"/>
</g>
<!-- AccountDeletedEvent -->
<g id="node13" class="node">
<title>AccountDeletedEvent</title>
<polygon fill="#f2f2f2" stroke="#000000" points="245.8994,-1830 245.8994,-1866 396.54,-1866 396.54,-1830 245.8994,-1830"/>
<text text-anchor="middle" x="321.2197" y="-1843.8" font-family="Helvetica,sans-Serif" font-size="14.00" fill="#000000">AccountDeletedEvent</text>
</g>
<!-- AccountEvent&#45;&gt;AccountDeletedEvent -->
<g id="edge12" class="edge">
<title>AccountEvent&#45;&gt;AccountDeletedEvent</title>
<path fill="none" stroke="#000000" d="M207.8798,-1829.8623C220.1138,-1831.8201 233.089,-1833.8965 245.7241,-1835.9185"/>
<polygon fill="none" stroke="#000000" points="208.2288,-1826.3737 197.8014,-1828.2495 207.1226,-1833.2858 208.2288,-1826.3737"/>
</g>
<!-- AccountUpdatedEvent -->
<g id="node14" class="node">
<title>AccountUpdatedEvent</title>
<polygon fill="#f2f2f2" stroke="#000000" points="243.5615,-1885 243.5615,-1921 398.8779,-1921 398.8779,-1885 243.5615,-1885"/>
<text text-anchor="middle" x="321.2197" y="-1898.8" font-family="Helvetica,sans-Serif" font-size="14.00" fill="#000000">AccountUpdatedEvent</text>
</g>
<!-- AccountEvent&#45;&gt;AccountUpdatedEvent -->
<g id="edge13" class="edge">
<title>AccountEvent&#45;&gt;AccountUpdatedEvent</title>
<path fill="none" stroke="#000000" d="M180.8358,-1843.6023C197.7219,-1854.4393 218.6398,-1866.8773 238.5029,-1876 245.504,-1879.2155 252.9985,-1882.2213 260.5119,-1884.9735"/>
<polygon fill="none" stroke="#000000" points="182.6893,-1840.6326 172.3999,-1838.1072 178.8686,-1846.498 182.6893,-1840.6326"/>
</g>
<!-- CategoryCreatedEvent -->
<g id="node15" class="node">
<title>CategoryCreatedEvent</title>
<polygon fill="#f2f2f2" stroke="#000000" points="242.0132,-1581 242.0132,-1617 400.4263,-1617 400.4263,-1581 242.0132,-1581"/>
<text text-anchor="middle" x="321.2197" y="-1594.8" font-family="Helvetica,sans-Serif" font-size="14.00" fill="#000000">CategoryCreatedEvent</text>
</g>
<!-- CategoryEvent&#45;&gt;CategoryCreatedEvent -->
<g id="edge14" class="edge">
<title>CategoryEvent&#45;&gt;CategoryCreatedEvent</title>
<path fill="none" stroke="#000000" d="M210.6277,-1616.0659C220.7732,-1614.5003 231.3653,-1612.8658 241.8029,-1611.2551"/>
<polygon fill="none" stroke="#000000" points="210.0026,-1612.6208 200.6534,-1617.605 211.0702,-1619.5389 210.0026,-1612.6208"/>
</g>
<!-- CategoryDeletedEvent -->
<g id="node16" class="node">
<title>CategoryDeletedEvent</title>
<polygon fill="#f2f2f2" stroke="#000000" points="242.7891,-1636 242.7891,-1672 399.6504,-1672 399.6504,-1636 242.7891,-1636"/>
<text text-anchor="middle" x="321.2197" y="-1649.8" font-family="Helvetica,sans-Serif" font-size="14.00" fill="#000000">CategoryDeletedEvent</text>
</g>
<!-- CategoryEvent&#45;&gt;CategoryDeletedEvent -->
<g id="edge15" class="edge">
<title>CategoryEvent&#45;&gt;CategoryDeletedEvent</title>
<path fill="none" stroke="#000000" d="M210.5375,-1636.2876C221.0225,-1637.9655 231.9866,-1639.7201 242.7659,-1641.4451"/>
<polygon fill="none" stroke="#000000" points="211.0809,-1632.8301 200.6534,-1634.7059 209.9747,-1639.7422 211.0809,-1632.8301"/>
</g>
<!-- CategoryUpdatedEvent -->
<g id="node17" class="node">
<title>CategoryUpdatedEvent</title>
<polygon fill="#f2f2f2" stroke="#000000" points="240.4512,-1691 240.4512,-1727 401.9883,-1727 401.9883,-1691 240.4512,-1691"/>
<text text-anchor="middle" x="321.2197" y="-1704.8" font-family="Helvetica,sans-Serif" font-size="14.00" fill="#000000">CategoryUpdatedEvent</text>
</g>
<!-- CategoryEvent&#45;&gt;CategoryUpdatedEvent -->
<g id="edge16" class="edge">
<title>CategoryEvent&#45;&gt;CategoryUpdatedEvent</title>
<path fill="none" stroke="#000000" d="M180.8358,-1649.6023C197.7219,-1660.4393 218.6398,-1672.8773 238.5029,-1682 245.504,-1685.2155 252.9985,-1688.2213 260.5119,-1690.9735"/>
<polygon fill="none" stroke="#000000" points="182.6893,-1646.6326 172.3999,-1644.1072 178.8686,-1652.498 182.6893,-1646.6326"/>
</g>
<!-- CustomerCreatedEvent -->
<g id="node18" class="node">
<title>CustomerCreatedEvent</title>
<polygon fill="#f2f2f2" stroke="#000000" points="240.0752,-1387 240.0752,-1423 402.3643,-1423 402.3643,-1387 240.0752,-1387"/>
<text text-anchor="middle" x="321.2197" y="-1400.8" font-family="Helvetica,sans-Serif" font-size="14.00" fill="#000000">CustomerCreatedEvent</text>
</g>
<!-- CustomerEvent&#45;&gt;CustomerCreatedEvent -->
<g id="edge17" class="edge">
<title>CustomerEvent&#45;&gt;CustomerCreatedEvent</title>
<path fill="none" stroke="#000000" d="M212.5041,-1421.7763C221.4353,-1420.3981 230.6806,-1418.9714 239.8364,-1417.5586"/>
<polygon fill="none" stroke="#000000" points="211.9248,-1418.3242 202.5756,-1423.3084 212.9925,-1425.2423 211.9248,-1418.3242"/>
</g>
<!-- CustomerDeletedEvent -->
<g id="node19" class="node">
<title>CustomerDeletedEvent</title>
<polygon fill="#f2f2f2" stroke="#000000" points="240.8511,-1442 240.8511,-1478 401.5884,-1478 401.5884,-1442 240.8511,-1442"/>
<text text-anchor="middle" x="321.2197" y="-1455.8" font-family="Helvetica,sans-Serif" font-size="14.00" fill="#000000">CustomerDeletedEvent</text>
</g>
<!-- CustomerEvent&#45;&gt;CustomerDeletedEvent -->
<g id="edge18" class="edge">
<title>CustomerEvent&#45;&gt;CustomerDeletedEvent</title>
<path fill="none" stroke="#000000" d="M212.463,-1442.5958C221.7167,-1444.0766 231.3085,-1445.6116 240.7891,-1447.1288"/>
<polygon fill="none" stroke="#000000" points="213.0031,-1439.1377 202.5756,-1441.0135 211.8969,-1446.0498 213.0031,-1439.1377"/>
</g>
<!-- CustomerUpdatedEvent -->
<g id="node20" class="node">
<title>CustomerUpdatedEvent</title>
<polygon fill="#f2f2f2" stroke="#000000" points="238.5132,-1497 238.5132,-1533 403.9263,-1533 403.9263,-1497 238.5132,-1497"/>
<text text-anchor="middle" x="321.2197" y="-1510.8" font-family="Helvetica,sans-Serif" font-size="14.00" fill="#000000">CustomerUpdatedEvent</text>
</g>
<!-- CustomerEvent&#45;&gt;CustomerUpdatedEvent -->
<g id="edge19" class="edge">
<title>CustomerEvent&#45;&gt;CustomerUpdatedEvent</title>
<path fill="none" stroke="#000000" d="M180.8358,-1455.6023C197.7219,-1466.4393 218.6398,-1478.8773 238.5029,-1488 245.504,-1491.2155 252.9985,-1494.2213 260.5119,-1496.9735"/>
<polygon fill="none" stroke="#000000" points="182.6893,-1452.6326 172.3999,-1450.1072 178.8686,-1458.498 182.6893,-1452.6326"/>
</g>
<!-- FolioCreatedEvent -->
<g id="node21" class="node">
<title>FolioCreatedEvent</title>
<polygon fill="#f2f2f2" stroke="#000000" points="255.2441,-1155 255.2441,-1191 387.1953,-1191 387.1953,-1155 255.2441,-1155"/>
<text text-anchor="middle" x="321.2197" y="-1168.8" font-family="Helvetica,sans-Serif" font-size="14.00" fill="#000000">FolioCreatedEvent</text>
</g>
<!-- FolioEvent&#45;&gt;FolioCreatedEvent -->
<g id="edge20" class="edge">
<title>FolioEvent&#45;&gt;FolioCreatedEvent</title>
<path fill="none" stroke="#000000" d="M197.7008,-1192.0607C215.6688,-1189.288 236.0943,-1186.136 255.0893,-1183.2048"/>
<polygon fill="none" stroke="#000000" points="197.0657,-1188.6171 187.7165,-1193.6014 198.1333,-1195.5353 197.0657,-1188.6171"/>
</g>
<!-- FolioDeletedEvent -->
<g id="node22" class="node">
<title>FolioDeletedEvent</title>
<polygon fill="#f2f2f2" stroke="#000000" points="256.02,-1210 256.02,-1246 386.4194,-1246 386.4194,-1210 256.02,-1210"/>
<text text-anchor="middle" x="321.2197" y="-1223.8" font-family="Helvetica,sans-Serif" font-size="14.00" fill="#000000">FolioDeletedEvent</text>
</g>
<!-- FolioEvent&#45;&gt;FolioDeletedEvent -->
<g id="edge21" class="edge">
<title>FolioEvent&#45;&gt;FolioDeletedEvent</title>
<path fill="none" stroke="#000000" d="M197.8041,-1208.2499C215.9622,-1211.1557 236.6198,-1214.4616 255.7706,-1217.5262"/>
<polygon fill="none" stroke="#000000" points="198.144,-1204.7598 187.7165,-1206.6356 197.0378,-1211.6719 198.144,-1204.7598"/>
</g>
<!-- FolioUpdatedEvent -->
<g id="node23" class="node">
<title>FolioUpdatedEvent</title>
<polygon fill="#f2f2f2" stroke="#000000" points="253.6821,-1265 253.6821,-1301 388.7573,-1301 388.7573,-1265 253.6821,-1265"/>
<text text-anchor="middle" x="321.2197" y="-1278.8" font-family="Helvetica,sans-Serif" font-size="14.00" fill="#000000">FolioUpdatedEvent</text>
</g>
<!-- FolioEvent&#45;&gt;FolioUpdatedEvent -->
<g id="edge22" class="edge">
<title>FolioEvent&#45;&gt;FolioUpdatedEvent</title>
<path fill="none" stroke="#000000" d="M180.8358,-1223.6023C197.7219,-1234.4393 218.6398,-1246.8773 238.5029,-1256 245.504,-1259.2155 252.9985,-1262.2213 260.5119,-1264.9735"/>
<polygon fill="none" stroke="#000000" points="182.6893,-1220.6326 172.3999,-1218.1072 178.8686,-1226.498 182.6893,-1220.6326"/>
</g>
<!-- PortfolioCreatedEvent -->
<g id="node24" class="node">
<title>PortfolioCreatedEvent</title>
<polygon fill="#f2f2f2" stroke="#000000" points="244.7373,-961 244.7373,-997 397.7021,-997 397.7021,-961 244.7373,-961"/>
<text text-anchor="middle" x="321.2197" y="-974.8" font-family="Helvetica,sans-Serif" font-size="14.00" fill="#000000">PortfolioCreatedEvent</text>
</g>
<!-- PortfolioEvent&#45;&gt;PortfolioCreatedEvent -->
<g id="edge23" class="edge">
<title>PortfolioEvent&#45;&gt;PortfolioCreatedEvent</title>
<path fill="none" stroke="#000000" d="M208.3509,-996.4172C220.0383,-994.6137 232.3876,-992.708 244.4602,-990.845"/>
<polygon fill="none" stroke="#000000" points="207.6232,-992.988 198.274,-997.9722 208.6908,-999.9061 207.6232,-992.988"/>
</g>
<!-- PortfolioDeletedEvent -->
<g id="node25" class="node">
<title>PortfolioDeletedEvent</title>
<polygon fill="#f2f2f2" stroke="#000000" points="245.5132,-1016 245.5132,-1052 396.9263,-1052 396.9263,-1016 245.5132,-1016"/>
<text text-anchor="middle" x="321.2197" y="-1029.8" font-family="Helvetica,sans-Serif" font-size="14.00" fill="#000000">PortfolioDeletedEvent</text>
</g>
<!-- PortfolioEvent&#45;&gt;PortfolioDeletedEvent -->
<g id="edge24" class="edge">
<title>PortfolioEvent&#45;&gt;PortfolioDeletedEvent</title>
<path fill="none" stroke="#000000" d="M208.2033,-1015.9141C220.2491,-1017.8418 233.0026,-1019.8827 245.4351,-1021.8723"/>
<polygon fill="none" stroke="#000000" points="208.7014,-1012.4494 198.274,-1014.3251 207.5953,-1019.3614 208.7014,-1012.4494"/>
</g>
<!-- PortfolioUpdatedEvent -->
<g id="node26" class="node">
<title>PortfolioUpdatedEvent</title>
<polygon fill="#f2f2f2" stroke="#000000" points="243.1753,-1071 243.1753,-1107 399.2642,-1107 399.2642,-1071 243.1753,-1071"/>
<text text-anchor="middle" x="321.2197" y="-1084.8" font-family="Helvetica,sans-Serif" font-size="14.00" fill="#000000">PortfolioUpdatedEvent</text>
</g>
<!-- PortfolioEvent&#45;&gt;PortfolioUpdatedEvent -->
<g id="edge25" class="edge">
<title>PortfolioEvent&#45;&gt;PortfolioUpdatedEvent</title>
<path fill="none" stroke="#000000" d="M180.8358,-1029.6023C197.7219,-1040.4393 218.6398,-1052.8773 238.5029,-1062 245.504,-1065.2155 252.9985,-1068.2213 260.5119,-1070.9735"/>
<polygon fill="none" stroke="#000000" points="182.6893,-1026.6326 172.3999,-1024.1072 178.8686,-1032.498 182.6893,-1026.6326"/>
</g>
<!-- ExpenseCreatedEvent -->
<g id="node27" class="node">
<title>ExpenseCreatedEvent</title>
<polygon fill="#f2f2f2" stroke="#000000" points="243.1753,-767 243.1753,-803 399.2642,-803 399.2642,-767 243.1753,-767"/>
<text text-anchor="middle" x="321.2197" y="-780.8" font-family="Helvetica,sans-Serif" font-size="14.00" fill="#000000">ExpenseCreatedEvent</text>
</g>
<!-- ExpenseEvent&#45;&gt;ExpenseCreatedEvent -->
<g id="edge26" class="edge">
<title>ExpenseEvent&#45;&gt;ExpenseCreatedEvent</title>
<path fill="none" stroke="#000000" d="M182.561,-843.4399C199.1915,-833.2577 219.4134,-821.7085 238.5029,-813 246.2273,-809.4762 254.5304,-806.1542 262.7894,-803.1144"/>
<polygon fill="none" stroke="#000000" points="180.3702,-840.6804 173.7214,-848.9292 184.0631,-846.627 180.3702,-840.6804"/>
</g>
<!-- ExpenseDeletedEvent -->
<g id="node28" class="node">
<title>ExpenseDeletedEvent</title>
<polygon fill="#f2f2f2" stroke="#000000" points="243.9512,-822 243.9512,-858 398.4883,-858 398.4883,-822 243.9512,-822"/>
<text text-anchor="middle" x="321.2197" y="-835.8" font-family="Helvetica,sans-Serif" font-size="14.00" fill="#000000">ExpenseDeletedEvent</text>
</g>
<!-- ExpenseEvent&#45;&gt;ExpenseDeletedEvent -->
<g id="edge27" class="edge">
<title>ExpenseEvent&#45;&gt;ExpenseDeletedEvent</title>
<path fill="none" stroke="#000000" d="M209.7237,-857.2054C220.8366,-855.4905 232.5098,-853.6892 243.9469,-851.9243"/>
<polygon fill="none" stroke="#000000" points="209.0476,-853.7682 199.6984,-858.7524 210.1153,-860.6863 209.0476,-853.7682"/>
</g>
<!-- ExpenseUpdatedEvent -->
<g id="node29" class="node">
<title>ExpenseUpdatedEvent</title>
<polygon fill="#f2f2f2" stroke="#000000" points="241.6133,-877 241.6133,-913 400.8262,-913 400.8262,-877 241.6133,-877"/>
<text text-anchor="middle" x="321.2197" y="-890.8" font-family="Helvetica,sans-Serif" font-size="14.00" fill="#000000">ExpenseUpdatedEvent</text>
</g>
<!-- ExpenseEvent&#45;&gt;ExpenseUpdatedEvent -->
<g id="edge28" class="edge">
<title>ExpenseEvent&#45;&gt;ExpenseUpdatedEvent</title>
<path fill="none" stroke="#000000" d="M209.7776,-877.166C220.0388,-878.8081 230.7764,-880.5265 241.3639,-882.2208"/>
<polygon fill="none" stroke="#000000" points="210.1259,-873.6773 199.6984,-875.5531 209.0197,-880.5894 210.1259,-873.6773"/>
</g>
<!-- PositionCreatedEvent -->
<g id="node30" class="node">
<title>PositionCreatedEvent</title>
<polygon fill="#f2f2f2" stroke="#000000" points="245.5132,-573 245.5132,-609 396.9263,-609 396.9263,-573 245.5132,-573"/>
<text text-anchor="middle" x="321.2197" y="-586.8" font-family="Helvetica,sans-Serif" font-size="14.00" fill="#000000">PositionCreatedEvent</text>
</g>
<!-- PositionEvent&#45;&gt;PositionCreatedEvent -->
<g id="edge29" class="edge">
<title>PositionEvent&#45;&gt;PositionCreatedEvent</title>
<path fill="none" stroke="#000000" d="M182.561,-649.4399C199.1915,-639.2577 219.4134,-627.7085 238.5029,-619 246.2273,-615.4762 254.5304,-612.1542 262.7894,-609.1144"/>
<polygon fill="none" stroke="#000000" points="180.3702,-646.6804 173.7214,-654.9292 184.0631,-652.627 180.3702,-646.6804"/>
</g>
<!-- PositionDeletedEvent -->
<g id="node31" class="node">
<title>PositionDeletedEvent</title>
<polygon fill="#f2f2f2" stroke="#000000" points="246.2891,-628 246.2891,-664 396.1504,-664 396.1504,-628 246.2891,-628"/>
<text text-anchor="middle" x="321.2197" y="-641.8" font-family="Helvetica,sans-Serif" font-size="14.00" fill="#000000">PositionDeletedEvent</text>
</g>
<!-- PositionEvent&#45;&gt;PositionDeletedEvent -->
<g id="edge30" class="edge">
<title>PositionEvent&#45;&gt;PositionDeletedEvent</title>
<path fill="none" stroke="#000000" d="M207.5575,-663.5396C219.9802,-661.6226 233.1786,-659.586 246.0169,-657.6048"/>
<polygon fill="none" stroke="#000000" points="206.6791,-660.1337 197.3299,-665.1179 207.7467,-667.0518 206.6791,-660.1337"/>
</g>
<!-- PositionUpdatedEvent -->
<g id="node32" class="node">
<title>PositionUpdatedEvent</title>
<polygon fill="#f2f2f2" stroke="#000000" points="243.9512,-683 243.9512,-719 398.4883,-719 398.4883,-683 243.9512,-683"/>
<text text-anchor="middle" x="321.2197" y="-696.8" font-family="Helvetica,sans-Serif" font-size="14.00" fill="#000000">PositionUpdatedEvent</text>
</g>
<!-- PositionEvent&#45;&gt;PositionUpdatedEvent -->
<g id="edge31" class="edge">
<title>PositionEvent&#45;&gt;PositionUpdatedEvent</title>
<path fill="none" stroke="#000000" d="M207.4292,-682.7902C219.1525,-684.6663 231.5706,-686.6535 243.7279,-688.5991"/>
<polygon fill="none" stroke="#000000" points="207.7573,-679.2983 197.3299,-681.174 206.6512,-686.2103 207.7573,-679.2983"/>
</g>
<!-- AllocationCreatedEvent -->
<g id="node33" class="node">
<title>AllocationCreatedEvent</title>
<polygon fill="#f2f2f2" stroke="#000000" points="240.0649,-341 240.0649,-377 402.3745,-377 402.3745,-341 240.0649,-341"/>
<text text-anchor="middle" x="321.2197" y="-354.8" font-family="Helvetica,sans-Serif" font-size="14.00" fill="#000000">AllocationCreatedEvent</text>
</g>
<!-- AllocationEvent&#45;&gt;AllocationCreatedEvent -->
<g id="edge32" class="edge">
<title>AllocationEvent&#45;&gt;AllocationCreatedEvent</title>
<path fill="none" stroke="#000000" d="M182.561,-417.4399C199.1915,-407.2577 219.4134,-395.7085 238.5029,-387 246.2273,-383.4762 254.5304,-380.1542 262.7894,-377.1144"/>
<polygon fill="none" stroke="#000000" points="180.3702,-414.6804 173.7214,-422.9292 184.0631,-420.627 180.3702,-414.6804"/>
</g>
<!-- AllocationDeletedEvent -->
<g id="node34" class="node">
<title>AllocationDeletedEvent</title>
<polygon fill="#f2f2f2" stroke="#000000" points="240.8408,-396 240.8408,-432 401.5986,-432 401.5986,-396 240.8408,-396"/>
<text text-anchor="middle" x="321.2197" y="-409.8" font-family="Helvetica,sans-Serif" font-size="14.00" fill="#000000">AllocationDeletedEvent</text>
</g>
<!-- AllocationEvent&#45;&gt;AllocationDeletedEvent -->
<g id="edge33" class="edge">
<title>AllocationEvent&#45;&gt;AllocationDeletedEvent</title>
<path fill="none" stroke="#000000" d="M212.463,-430.7827C221.7167,-429.3547 231.3085,-427.8745 240.7891,-426.4116"/>
<polygon fill="none" stroke="#000000" points="211.9248,-427.3242 202.5756,-432.3084 212.9925,-434.2423 211.9248,-427.3242"/>
</g>
<!-- AllocationUpdatedEvent -->
<g id="node35" class="node">
<title>AllocationUpdatedEvent</title>
<polygon fill="#f2f2f2" stroke="#000000" points="238.5029,-451 238.5029,-487 403.9365,-487 403.9365,-451 238.5029,-451"/>
<text text-anchor="middle" x="321.2197" y="-464.8" font-family="Helvetica,sans-Serif" font-size="14.00" fill="#000000">AllocationUpdatedEvent</text>
</g>
<!-- AllocationEvent&#45;&gt;AllocationUpdatedEvent -->
<g id="edge34" class="edge">
<title>AllocationEvent&#45;&gt;AllocationUpdatedEvent</title>
<path fill="none" stroke="#000000" d="M212.6325,-451.6229C221.0071,-452.9631 229.6562,-454.3472 238.2471,-455.722"/>
<polygon fill="none" stroke="#000000" points="213.0031,-448.1377 202.5756,-450.0135 211.8969,-455.0498 213.0031,-448.1377"/>
</g>
<!-- TeamCreatedEvent -->
<g id="node36" class="node">
<title>TeamCreatedEvent</title>
<polygon fill="#f2f2f2" stroke="#000000" points="253.2993,-109 253.2993,-145 389.1401,-145 389.1401,-109 253.2993,-109"/>
<text text-anchor="middle" x="321.2197" y="-122.8" font-family="Helvetica,sans-Serif" font-size="14.00" fill="#000000">TeamCreatedEvent</text>
</g>
<!-- TeamEvent&#45;&gt;TeamCreatedEvent -->
<g id="edge35" class="edge">
<title>TeamEvent&#45;&gt;TeamCreatedEvent</title>
<path fill="none" stroke="#000000" d="M182.561,-185.4399C199.1915,-175.2577 219.4134,-163.7085 238.5029,-155 246.2273,-151.4762 254.5304,-148.1542 262.7894,-145.1144"/>
<polygon fill="none" stroke="#000000" points="180.3702,-182.6804 173.7214,-190.9292 184.0631,-188.627 180.3702,-182.6804"/>
</g>
<!-- TeamDeletedEvent -->
<g id="node37" class="node">
<title>TeamDeletedEvent</title>
<polygon fill="#f2f2f2" stroke="#000000" points="254.0752,-164 254.0752,-200 388.3643,-200 388.3643,-164 254.0752,-164"/>
<text text-anchor="middle" x="321.2197" y="-177.8" font-family="Helvetica,sans-Serif" font-size="14.00" fill="#000000">TeamDeletedEvent</text>
</g>
<!-- TeamEvent&#45;&gt;TeamDeletedEvent -->
<g id="edge36" class="edge">
<title>TeamEvent&#45;&gt;TeamDeletedEvent</title>
<path fill="none" stroke="#000000" d="M199.8418,-200.7303C216.9174,-198.0953 236.0309,-195.1458 253.9478,-192.381"/>
<polygon fill="none" stroke="#000000" points="198.8513,-197.3416 189.5021,-202.3258 199.9189,-204.2597 198.8513,-197.3416"/>
</g>
<!-- TeamUpdatedEvent -->
<g id="node38" class="node">
<title>TeamUpdatedEvent</title>
<polygon fill="#f2f2f2" stroke="#000000" points="251.7373,-219 251.7373,-255 390.7021,-255 390.7021,-219 251.7373,-219"/>
<text text-anchor="middle" x="321.2197" y="-232.8" font-family="Helvetica,sans-Serif" font-size="14.00" fill="#000000">TeamUpdatedEvent</text>
</g>
<!-- TeamEvent&#45;&gt;TeamUpdatedEvent -->
<g id="edge37" class="edge">
<title>TeamEvent&#45;&gt;TeamUpdatedEvent</title>
<path fill="none" stroke="#000000" d="M199.4545,-217.514C215.8777,-220.1422 234.2155,-223.0768 251.5747,-225.8548"/>
<polygon fill="none" stroke="#000000" points="199.9295,-214.0456 189.5021,-215.9214 198.8233,-220.9576 199.9295,-214.0456"/>
</g>
<!-- ApprovalCreatedEvent -->
<g id="node39" class="node">
<title>ApprovalCreatedEvent</title>
<polygon fill="#f2f2f2" stroke="#000000" points="242.7891,-17 242.7891,-53 399.6504,-53 399.6504,-17 242.7891,-17"/>
<text text-anchor="middle" x="321.2197" y="-30.8" font-family="Helvetica,sans-Serif" font-size="14.00" fill="#000000">ApprovalCreatedEvent</text>
</g>
<!-- ApprovalEvent&#45;&gt;ApprovalCreatedEvent -->
<g id="edge38" class="edge">
<title>ApprovalEvent&#45;&gt;ApprovalCreatedEvent</title>
<path fill="none" stroke="#000000" d="M210.476,-35C220.9615,-35 231.9277,-35 242.7101,-35"/>
<polygon fill="none" stroke="#000000" points="210.1754,-31.5001 200.1754,-35 210.1754,-38.5001 210.1754,-31.5001"/>
</g>
</g>
</svg>
