<?xml version="1.0" encoding="UTF-8" standalone="no"?>
<!DOCTYPE svg PUBLIC "-//W3C//DTD SVG 1.1//EN"
 "http://www.w3.org/Graphics/SVG/1.1/DTD/svg11.dtd">
<!-- Generated by graphviz version 2.40.1 (20161225.0304)
 -->
<!-- Title: hierarchy Pages: 1 -->
<svg width="442pt" height="259pt"
     viewBox="0.00 0.00 441.51 259.00" xmlns="http://www.w3.org/2000/svg">
<g id="graph0" class="graph" transform="scale(1 1) rotate(0) translate(4 255)">
<title>hierarchy</title>
<polygon fill="#ffffff" stroke="transparent" points="-4,4 -4,-255 437.5132,-255 437.5132,4 -4,4"/>
<text text-anchor="middle" x="216.7566" y="-36.8" font-family="Helvetica,sans-Serif" font-size="14.00" fill="#000000">Folio</text>
<text text-anchor="middle" x="216.7566" y="-6.8" font-family="Helvetica,sans-Serif" font-size="14.00" fill="#000000">package: com.tempoplugin.budget.api.event</text>
<!-- Event -->
<g id="node1" class="node">
<title>Event</title>
<polygon fill="#f2f2f2" stroke="#000000" points="187.9756,-214.5 187.9756,-250.5 241.9756,-250.5 241.9756,-214.5 187.9756,-214.5"/>
<text text-anchor="middle" x="214.8755" y="-228.3" font-family="Helvetica,sans-Serif" font-size="14.00" fill="#000000">Event</text>
</g>
<!-- FolioEvent -->
<g id="node2" class="node">
<title>FolioEvent</title>
<polygon fill="#f2f2f2" stroke="#000000" points="173.9033,-141.5 173.9033,-177.5 256.0479,-177.5 256.0479,-141.5 173.9033,-141.5"/>
<text text-anchor="middle" x="214.9756" y="-155.3" font-family="Helvetica,sans-Serif" font-size="14.00" fill="#000000">FolioEvent</text>
</g>
<!-- Event&#45;&gt;FolioEvent -->
<g id="edge1" class="edge">
<title>Event&#45;&gt;FolioEvent</title>
<path fill="none" stroke="#000000" d="M214.9756,-204.3688C214.9756,-195.3769 214.9756,-185.6687 214.9756,-177.5904"/>
<polygon fill="none" stroke="#000000" points="211.4757,-204.455 214.9756,-214.4551 218.4757,-204.4551 211.4757,-204.455"/>
</g>
<!-- FolioCreatedEvent -->
<g id="node3" class="node">
<title>FolioCreatedEvent</title>
<polygon fill="#f2f2f2" stroke="#000000" points="0,-68.5 0,-104.5 131.9512,-104.5 131.9512,-68.5 0,-68.5"/>
<text text-anchor="middle" x="65.9756" y="-82.3" font-family="Helvetica,sans-Serif" font-size="14.00" fill="#000000">FolioCreatedEvent</text>
</g>
<!-- FolioEvent&#45;&gt;FolioCreatedEvent -->
<g id="edge2" class="edge">
<title>FolioEvent&#45;&gt;FolioCreatedEvent</title>
<path fill="none" stroke="#000000" d="M168.985,-136.9677C147.7532,-126.5655 122.8833,-114.381 102.8997,-104.5904"/>
<polygon fill="none" stroke="#000000" points="167.6241,-140.1984 178.1441,-141.4551 170.7039,-133.9123 167.6241,-140.1984"/>
</g>
<!-- FolioDeletedEvent -->
<g id="node4" class="node">
<title>FolioDeletedEvent</title>
<polygon fill="#f2f2f2" stroke="#000000" points="149.7759,-68.5 149.7759,-104.5 280.1753,-104.5 280.1753,-68.5 149.7759,-68.5"/>
<text text-anchor="middle" x="214.9756" y="-82.3" font-family="Helvetica,sans-Serif" font-size="14.00" fill="#000000">FolioDeletedEvent</text>
</g>
<!-- FolioEvent&#45;&gt;FolioDeletedEvent -->
<g id="edge3" class="edge">
<title>FolioEvent&#45;&gt;FolioDeletedEvent</title>
<path fill="none" stroke="#000000" d="M214.9756,-131.3688C214.9756,-122.3769 214.9756,-112.6687 214.9756,-104.5904"/>
<polygon fill="none" stroke="#000000" points="211.4757,-131.455 214.9756,-141.4551 218.4757,-131.4551 211.4757,-131.455"/>
</g>
<!-- FolioUpdatedEvent -->
<g id="node5" class="node">
<title>FolioUpdatedEvent</title>
<polygon fill="#f2f2f2" stroke="#000000" points="298.438,-68.5 298.438,-104.5 433.5132,-104.5 433.5132,-68.5 298.438,-68.5"/>
<text text-anchor="middle" x="365.9756" y="-82.3" font-family="Helvetica,sans-Serif" font-size="14.00" fill="#000000">FolioUpdatedEvent</text>
</g>
<!-- FolioEvent&#45;&gt;FolioUpdatedEvent -->
<g id="edge4" class="edge">
<title>FolioEvent&#45;&gt;FolioUpdatedEvent</title>
<path fill="none" stroke="#000000" d="M261.5835,-136.9677C283.1003,-126.5655 308.304,-114.381 328.5558,-104.5904"/>
<polygon fill="none" stroke="#000000" points="259.7812,-133.9514 252.3014,-141.4551 262.8279,-140.2536 259.7812,-133.9514"/>
</g>
</g>
</svg>
