<?xml version="1.0" encoding="UTF-8" standalone="no"?>
<!DOCTYPE svg PUBLIC "-//W3C//DTD SVG 1.1//EN"
 "http://www.w3.org/Graphics/SVG/1.1/DTD/svg11.dtd">
<!-- Generated by graphviz version 2.40.1 (20161225.0304)
 -->
<!-- Title: hierarchy Pages: 1 -->
<svg width="533pt" height="259pt"
     viewBox="0.00 0.00 532.85 259.00" xmlns="http://www.w3.org/2000/svg">
<g id="graph0" class="graph" transform="scale(1 1) rotate(0) translate(4 255)">
<title>hierarchy</title>
<polygon fill="#ffffff" stroke="transparent" points="-4,4 -4,-255 528.8511,-255 528.8511,4 -4,4"/>
<text text-anchor="middle" x="262.4255" y="-36.8" font-family="Helvetica,sans-Serif" font-size="14.00" fill="#000000">Customer</text>
<text text-anchor="middle" x="262.4255" y="-6.8" font-family="Helvetica,sans-Serif" font-size="14.00" fill="#000000">package: com.tempoplugin.customer.api.event</text>
<!-- Event -->
<g id="node1" class="node">
<title>Event</title>
<polygon fill="#f2f2f2" stroke="#000000" points="234.1445,-214.5 234.1445,-250.5 288.1445,-250.5 288.1445,-214.5 234.1445,-214.5"/>
<text text-anchor="middle" x="261.0444" y="-228.3" font-family="Helvetica,sans-Serif" font-size="14.00" fill="#000000">Event</text>
</g>
<!-- CustomerEvent -->
<g id="node2" class="node">
<title>CustomerEvent</title>
<polygon fill="#f2f2f2" stroke="#000000" points="204.9033,-141.5 204.9033,-177.5 317.3857,-177.5 317.3857,-141.5 204.9033,-141.5"/>
<text text-anchor="middle" x="261.1445" y="-155.3" font-family="Helvetica,sans-Serif" font-size="14.00" fill="#000000">CustomerEvent</text>
</g>
<!-- Event&#45;&gt;CustomerEvent -->
<g id="edge1" class="edge">
<title>Event&#45;&gt;CustomerEvent</title>
<path fill="none" stroke="#000000" d="M261.1445,-204.3688C261.1445,-195.3769 261.1445,-185.6687 261.1445,-177.5904"/>
<polygon fill="none" stroke="#000000" points="257.6446,-204.455 261.1445,-214.4551 264.6446,-204.4551 257.6446,-204.455"/>
</g>
<!-- CustomerCreatedEvent -->
<g id="node3" class="node">
<title>CustomerCreatedEvent</title>
<polygon fill="#f2f2f2" stroke="#000000" points="0,-68.5 0,-104.5 162.2891,-104.5 162.2891,-68.5 0,-68.5"/>
<text text-anchor="middle" x="81.1445" y="-82.3" font-family="Helvetica,sans-Serif" font-size="14.00" fill="#000000">CustomerCreatedEvent</text>
</g>
<!-- CustomerEvent&#45;&gt;CustomerCreatedEvent -->
<g id="edge2" class="edge">
<title>CustomerEvent&#45;&gt;CustomerCreatedEvent</title>
<path fill="none" stroke="#000000" d="M207.3039,-137.6646C181.2865,-127.1131 150.4334,-114.6005 125.7509,-104.5904"/>
<polygon fill="none" stroke="#000000" points="206.0678,-140.9402 216.6501,-141.4551 208.6986,-134.4533 206.0678,-140.9402"/>
</g>
<!-- CustomerDeletedEvent -->
<g id="node4" class="node">
<title>CustomerDeletedEvent</title>
<polygon fill="#f2f2f2" stroke="#000000" points="180.7759,-68.5 180.7759,-104.5 341.5132,-104.5 341.5132,-68.5 180.7759,-68.5"/>
<text text-anchor="middle" x="261.1445" y="-82.3" font-family="Helvetica,sans-Serif" font-size="14.00" fill="#000000">CustomerDeletedEvent</text>
</g>
<!-- CustomerEvent&#45;&gt;CustomerDeletedEvent -->
<g id="edge3" class="edge">
<title>CustomerEvent&#45;&gt;CustomerDeletedEvent</title>
<path fill="none" stroke="#000000" d="M261.1445,-131.3688C261.1445,-122.3769 261.1445,-112.6687 261.1445,-104.5904"/>
<polygon fill="none" stroke="#000000" points="257.6446,-131.455 261.1445,-141.4551 264.6446,-131.4551 257.6446,-131.455"/>
</g>
<!-- CustomerUpdatedEvent -->
<g id="node5" class="node">
<title>CustomerUpdatedEvent</title>
<polygon fill="#f2f2f2" stroke="#000000" points="359.438,-68.5 359.438,-104.5 524.8511,-104.5 524.8511,-68.5 359.438,-68.5"/>
<text text-anchor="middle" x="442.1445" y="-82.3" font-family="Helvetica,sans-Serif" font-size="14.00" fill="#000000">CustomerUpdatedEvent</text>
</g>
<!-- CustomerEvent&#45;&gt;CustomerUpdatedEvent -->
<g id="edge4" class="edge">
<title>CustomerEvent&#45;&gt;CustomerUpdatedEvent</title>
<path fill="none" stroke="#000000" d="M315.2842,-137.6646C341.4463,-127.1131 372.4708,-114.6005 397.2904,-104.5904"/>
<polygon fill="none" stroke="#000000" points="313.8511,-134.4686 305.8861,-141.4551 316.4694,-140.9605 313.8511,-134.4686"/>
</g>
</g>
</svg>
