<?xml version="1.0" encoding="UTF-8" standalone="no"?>
<!DOCTYPE svg PUBLIC "-//W3C//DTD SVG 1.1//EN"
 "http://www.w3.org/Graphics/SVG/1.1/DTD/svg11.dtd">
<!-- Generated by graphviz version 2.38.0 (20140413.2041)
 -->
<!-- Title: hierarchy Pages: 1 -->
<svg width="431pt" height="261pt"
 viewBox="0.00 0.00 430.50 261.00" xmlns="http://www.w3.org/2000/svg" xmlns:xlink="http://www.w3.org/1999/xlink">
<g id="graph0" class="graph" transform="scale(1 1) rotate(0) translate(4 257)">
<title>hierarchy</title>
<polygon fill="white" stroke="none" points="-4,4 -4,-257 426.5,-257 426.5,4 -4,4"/>
<text text-anchor="middle" x="211.25" y="-38.8" font-family="Helvetica,sans-Serif" font-size="14.00">Folio</text>
<text text-anchor="middle" x="211.25" y="-7.8" font-family="Helvetica,sans-Serif" font-size="14.00">package: com.tempoplugin.folio.service.api.events</text>
<!-- Event -->
<g id="node1" class="node"><title>Event</title>
<polygon fill="#f2f2f2" stroke="black" points="183,-216.5 183,-252.5 237,-252.5 237,-216.5 183,-216.5"/>
<text text-anchor="middle" x="210" y="-230.8" font-family="Helvetica,sans-Serif" font-size="14.00">Event</text>
</g>
<!-- FolioEvent -->
<g id="node2" class="node"><title>FolioEvent</title>
<polygon fill="#f2f2f2" stroke="black" points="170,-143.5 170,-179.5 250,-179.5 250,-143.5 170,-143.5"/>
<text text-anchor="middle" x="210" y="-157.8" font-family="Helvetica,sans-Serif" font-size="14.00">FolioEvent</text>
</g>
<!-- Event&#45;&gt;FolioEvent -->
<g id="edge1" class="edge"><title>Event&#45;&gt;FolioEvent</title>
<path fill="none" stroke="black" d="M210,-206.253C210,-197.265 210,-187.529 210,-179.529"/>
<polygon fill="none" stroke="black" points="206.5,-206.313 210,-216.313 213.5,-206.313 206.5,-206.313"/>
</g>
<!-- FolioCreatedEvent -->
<g id="node3" class="node"><title>FolioCreatedEvent</title>
<polygon fill="#f2f2f2" stroke="black" points="0,-70.5 0,-106.5 128,-106.5 128,-70.5 0,-70.5"/>
<text text-anchor="middle" x="64" y="-84.8" font-family="Helvetica,sans-Serif" font-size="14.00">FolioCreatedEvent</text>
</g>
<!-- FolioEvent&#45;&gt;FolioCreatedEvent -->
<g id="edge2" class="edge"><title>FolioEvent&#45;&gt;FolioCreatedEvent</title>
<path fill="none" stroke="black" d="M165.839,-139.024C144.489,-128.642 119.218,-116.353 99.1913,-106.614"/>
<polygon fill="none" stroke="black" points="164.506,-142.268 175.029,-143.494 167.567,-135.973 164.506,-142.268"/>
</g>
<!-- FolioDeletedEvent -->
<g id="node4" class="node"><title>FolioDeletedEvent</title>
<polygon fill="#f2f2f2" stroke="black" points="146.5,-70.5 146.5,-106.5 273.5,-106.5 273.5,-70.5 146.5,-70.5"/>
<text text-anchor="middle" x="210" y="-84.8" font-family="Helvetica,sans-Serif" font-size="14.00">FolioDeletedEvent</text>
</g>
<!-- FolioEvent&#45;&gt;FolioDeletedEvent -->
<g id="edge3" class="edge"><title>FolioEvent&#45;&gt;FolioDeletedEvent</title>
<path fill="none" stroke="black" d="M210,-133.253C210,-124.265 210,-114.529 210,-106.529"/>
<polygon fill="none" stroke="black" points="206.5,-133.313 210,-143.313 213.5,-133.313 206.5,-133.313"/>
</g>
<!-- FolioUpdatedEvent -->
<g id="node5" class="node"><title>FolioUpdatedEvent</title>
<polygon fill="#f2f2f2" stroke="black" points="291.5,-70.5 291.5,-106.5 422.5,-106.5 422.5,-70.5 291.5,-70.5"/>
<text text-anchor="middle" x="357" y="-84.8" font-family="Helvetica,sans-Serif" font-size="14.00">FolioUpdatedEvent</text>
</g>
<!-- FolioEvent&#45;&gt;FolioUpdatedEvent -->
<g id="edge4" class="edge"><title>FolioEvent&#45;&gt;FolioUpdatedEvent</title>
<path fill="none" stroke="black" d="M254.464,-139.024C275.96,-128.642 301.404,-116.353 321.568,-106.614"/>
<polygon fill="none" stroke="black" points="252.693,-135.993 245.21,-143.494 255.737,-142.296 252.693,-135.993"/>
</g>
</g>
</svg>
