<?xml version="1.0" encoding="UTF-8" standalone="no"?>
<!DOCTYPE svg PUBLIC "-//W3C//DTD SVG 1.1//EN"
 "http://www.w3.org/Graphics/SVG/1.1/DTD/svg11.dtd">
<!-- Generated by graphviz version 2.40.1 (20161225.0304)
 -->
<!-- Title: hierarchy Pages: 1 -->
<svg width="374pt" height="259pt"
 viewBox="0.00 0.00 374.21 259.00" xmlns="http://www.w3.org/2000/svg" xmlns:xlink="http://www.w3.org/1999/xlink">
<g id="graph0" class="graph" transform="scale(1 1) rotate(0) translate(4 255)">
<title>hierarchy</title>
<polygon fill="#ffffff" stroke="transparent" points="-4,4 -4,-255 370.2119,-255 370.2119,4 -4,4"/>
<text text-anchor="middle" x="183.106" y="-36.8" font-family="Helvetica,sans-Serif" font-size="14.00" fill="#000000">Timesheet Approval</text>
<text text-anchor="middle" x="183.106" y="-6.8" font-family="Helvetica,sans-Serif" font-size="14.00" fill="#000000">package: com.tempoplugin.timesheet.approval.api.event</text>
<!-- Event -->
<g id="node1" class="node">
<title>Event</title>
<polygon fill="#f2f2f2" stroke="#000000" points="156.106,-214.5 156.106,-250.5 210.106,-250.5 210.106,-214.5 156.106,-214.5"/>
<text text-anchor="middle" x="183.0059" y="-228.3" font-family="Helvetica,sans-Serif" font-size="14.00" fill="#000000">Event</text>
</g>
<!-- ApprovalEvent -->
<g id="node2" class="node">
<title>ApprovalEvent</title>
<polygon fill="#f2f2f2" stroke="#000000" points="129.5786,-141.5 129.5786,-177.5 236.6333,-177.5 236.6333,-141.5 129.5786,-141.5"/>
<text text-anchor="middle" x="183.106" y="-155.3" font-family="Helvetica,sans-Serif" font-size="14.00" fill="#000000">ApprovalEvent</text>
</g>
<!-- Event&#45;&gt;ApprovalEvent -->
<g id="edge1" class="edge">
<title>Event&#45;&gt;ApprovalEvent</title>
<path fill="none" stroke="#000000" d="M183.106,-204.3688C183.106,-195.3769 183.106,-185.6687 183.106,-177.5904"/>
<polygon fill="none" stroke="#000000" points="179.6061,-204.455 183.106,-214.4551 186.6061,-204.4551 179.6061,-204.455"/>
</g>
<!-- ApprovalCreatedEvent -->
<g id="node3" class="node">
<title>ApprovalCreatedEvent</title>
<polygon fill="#f2f2f2" stroke="#000000" points="104.6753,-68.5 104.6753,-104.5 261.5366,-104.5 261.5366,-68.5 104.6753,-68.5"/>
<text text-anchor="middle" x="183.106" y="-82.3" font-family="Helvetica,sans-Serif" font-size="14.00" fill="#000000">ApprovalCreatedEvent</text>
</g>
<!-- ApprovalEvent&#45;&gt;ApprovalCreatedEvent -->
<g id="edge2" class="edge">
<title>ApprovalEvent&#45;&gt;ApprovalCreatedEvent</title>
<path fill="none" stroke="#000000" d="M183.106,-131.3688C183.106,-122.3769 183.106,-112.6687 183.106,-104.5904"/>
<polygon fill="none" stroke="#000000" points="179.6061,-131.455 183.106,-141.4551 186.6061,-131.4551 179.6061,-131.455"/>
</g>
</g>
</svg>
