<?xml version="1.0" encoding="UTF-8" standalone="no"?>
<!DOCTYPE svg PUBLIC "-//W3C//DTD SVG 1.1//EN"
 "http://www.w3.org/Graphics/SVG/1.1/DTD/svg11.dtd">
<!-- Generated by graphviz version 2.40.1 (20161225.0304)
 -->
<!-- Title: hierarchy Pages: 1 -->
<svg width="533pt" height="259pt"
     viewBox="0.00 0.00 532.87 259.00" xmlns="http://www.w3.org/2000/svg">
<g id="graph0" class="graph" transform="scale(1 1) rotate(0) translate(4 255)">
<title>hierarchy</title>
<polygon fill="#ffffff" stroke="transparent" points="-4,4 -4,-255 528.8716,-255 528.8716,4 -4,4"/>
<text text-anchor="middle" x="262.4358" y="-36.8" font-family="Helvetica,sans-Serif" font-size="14.00" fill="#000000">Allocation</text>
<text text-anchor="middle" x="262.4358" y="-6.8" font-family="Helvetica,sans-Serif" font-size="14.00" fill="#000000">package: com.tempoplugin.planner.api.event</text>
<!-- Event -->
<g id="node1" class="node">
<title>Event</title>
<polygon fill="#f2f2f2" stroke="#000000" points="234.1548,-214.5 234.1548,-250.5 288.1548,-250.5 288.1548,-214.5 234.1548,-214.5"/>
<text text-anchor="middle" x="261.0547" y="-228.3" font-family="Helvetica,sans-Serif" font-size="14.00" fill="#000000">Event</text>
</g>
<!-- AllocationEvent -->
<g id="node2" class="node">
<title>AllocationEvent</title>
<polygon fill="#f2f2f2" stroke="#000000" points="204.9033,-141.5 204.9033,-177.5 317.4063,-177.5 317.4063,-141.5 204.9033,-141.5"/>
<text text-anchor="middle" x="261.1548" y="-155.3" font-family="Helvetica,sans-Serif" font-size="14.00" fill="#000000">AllocationEvent</text>
</g>
<!-- Event&#45;&gt;AllocationEvent -->
<g id="edge1" class="edge">
<title>Event&#45;&gt;AllocationEvent</title>
<path fill="none" stroke="#000000" d="M261.1548,-204.3688C261.1548,-195.3769 261.1548,-185.6687 261.1548,-177.5904"/>
<polygon fill="none" stroke="#000000" points="257.6549,-204.455 261.1548,-214.4551 264.6549,-204.4551 257.6549,-204.455"/>
</g>
<!-- AllocationCreatedEvent -->
<g id="node3" class="node">
<title>AllocationCreatedEvent</title>
<polygon fill="#f2f2f2" stroke="#000000" points="0,-68.5 0,-104.5 162.3096,-104.5 162.3096,-68.5 0,-68.5"/>
<text text-anchor="middle" x="81.1548" y="-82.3" font-family="Helvetica,sans-Serif" font-size="14.00" fill="#000000">AllocationCreatedEvent</text>
</g>
<!-- AllocationEvent&#45;&gt;AllocationCreatedEvent -->
<g id="edge2" class="edge">
<title>AllocationEvent&#45;&gt;AllocationCreatedEvent</title>
<path fill="none" stroke="#000000" d="M207.3142,-137.6646C181.2967,-127.1131 150.4436,-114.6005 125.7612,-104.5904"/>
<polygon fill="none" stroke="#000000" points="206.0781,-140.9402 216.6604,-141.4551 208.7089,-134.4533 206.0781,-140.9402"/>
</g>
<!-- AllocationDeletedEvent -->
<g id="node4" class="node">
<title>AllocationDeletedEvent</title>
<polygon fill="#f2f2f2" stroke="#000000" points="180.7759,-68.5 180.7759,-104.5 341.5337,-104.5 341.5337,-68.5 180.7759,-68.5"/>
<text text-anchor="middle" x="261.1548" y="-82.3" font-family="Helvetica,sans-Serif" font-size="14.00" fill="#000000">AllocationDeletedEvent</text>
</g>
<!-- AllocationEvent&#45;&gt;AllocationDeletedEvent -->
<g id="edge3" class="edge">
<title>AllocationEvent&#45;&gt;AllocationDeletedEvent</title>
<path fill="none" stroke="#000000" d="M261.1548,-131.3688C261.1548,-122.3769 261.1548,-112.6687 261.1548,-104.5904"/>
<polygon fill="none" stroke="#000000" points="257.6549,-131.455 261.1548,-141.4551 264.6549,-131.4551 257.6549,-131.455"/>
</g>
<!-- AllocationUpdatedEvent -->
<g id="node5" class="node">
<title>AllocationUpdatedEvent</title>
<polygon fill="#f2f2f2" stroke="#000000" points="359.438,-68.5 359.438,-104.5 524.8716,-104.5 524.8716,-68.5 359.438,-68.5"/>
<text text-anchor="middle" x="442.1548" y="-82.3" font-family="Helvetica,sans-Serif" font-size="14.00" fill="#000000">AllocationUpdatedEvent</text>
</g>
<!-- AllocationEvent&#45;&gt;AllocationUpdatedEvent -->
<g id="edge4" class="edge">
<title>AllocationEvent&#45;&gt;AllocationUpdatedEvent</title>
<path fill="none" stroke="#000000" d="M315.2945,-137.6646C341.4565,-127.1131 372.481,-114.6005 397.3006,-104.5904"/>
<polygon fill="none" stroke="#000000" points="313.8613,-134.4686 305.8964,-141.4551 316.4797,-140.9605 313.8613,-134.4686"/>
</g>
</g>
</svg>
