<?xml version="1.0" encoding="UTF-8" standalone="no"?>
<!DOCTYPE svg PUBLIC "-//W3C//DTD SVG 1.1//EN"
 "http://www.w3.org/Graphics/SVG/1.1/DTD/svg11.dtd">
<!-- Generated by graphviz version 2.38.0 (20140413.2041)
 -->
<!-- Title: hierarchy Pages: 1 -->
<svg width="490pt" height="261pt"
 viewBox="0.00 0.00 489.50 261.00" xmlns="http://www.w3.org/2000/svg" xmlns:xlink="http://www.w3.org/1999/xlink">
<g id="graph0" class="graph" transform="scale(1 1) rotate(0) translate(4 257)">
<title>hierarchy</title>
<polygon fill="white" stroke="none" points="-4,4 -4,-257 485.5,-257 485.5,4 -4,4"/>
<text text-anchor="middle" x="240.75" y="-38.8" font-family="Helvetica,sans-Serif" font-size="14.00">Account</text>
<text text-anchor="middle" x="240.75" y="-7.8" font-family="Helvetica,sans-Serif" font-size="14.00">package: com.tempoplugin.account.event.api</text>
<!-- Event -->
<g id="node1" class="node"><title>Event</title>
<polygon fill="#f2f2f2" stroke="black" points="212,-216.5 212,-252.5 266,-252.5 266,-216.5 212,-216.5"/>
<text text-anchor="middle" x="239" y="-230.8" font-family="Helvetica,sans-Serif" font-size="14.00">Event</text>
</g>
<!-- AccountEvent -->
<g id="node2" class="node"><title>AccountEvent</title>
<polygon fill="#f2f2f2" stroke="black" points="189,-143.5 189,-179.5 289,-179.5 289,-143.5 189,-143.5"/>
<text text-anchor="middle" x="239" y="-157.8" font-family="Helvetica,sans-Serif" font-size="14.00">AccountEvent</text>
</g>
<!-- Event&#45;&gt;AccountEvent -->
<g id="edge1" class="edge"><title>Event&#45;&gt;AccountEvent</title>
<path fill="none" stroke="black" d="M239,-206.253C239,-197.265 239,-187.529 239,-179.529"/>
<polygon fill="none" stroke="black" points="235.5,-206.313 239,-216.313 242.5,-206.313 235.5,-206.313"/>
</g>
<!-- AccountCreatedEvent -->
<g id="node3" class="node"><title>AccountCreatedEvent</title>
<polygon fill="#f2f2f2" stroke="black" points="0,-70.5 0,-106.5 148,-106.5 148,-70.5 0,-70.5"/>
<text text-anchor="middle" x="74" y="-84.8" font-family="Helvetica,sans-Serif" font-size="14.00">AccountCreatedEvent</text>
</g>
<!-- AccountEvent&#45;&gt;AccountCreatedEvent -->
<g id="edge2" class="edge"><title>AccountEvent&#45;&gt;AccountCreatedEvent</title>
<path fill="none" stroke="black" d="M190.063,-139.442C165.733,-128.973 136.709,-116.484 113.771,-106.614"/>
<polygon fill="none" stroke="black" points="188.909,-142.756 199.478,-143.494 191.676,-136.326 188.909,-142.756"/>
</g>
<!-- AccountDeletedEvent -->
<g id="node4" class="node"><title>AccountDeletedEvent</title>
<polygon fill="#f2f2f2" stroke="black" points="166,-70.5 166,-106.5 312,-106.5 312,-70.5 166,-70.5"/>
<text text-anchor="middle" x="239" y="-84.8" font-family="Helvetica,sans-Serif" font-size="14.00">AccountDeletedEvent</text>
</g>
<!-- AccountEvent&#45;&gt;AccountDeletedEvent -->
<g id="edge3" class="edge"><title>AccountEvent&#45;&gt;AccountDeletedEvent</title>
<path fill="none" stroke="black" d="M239,-133.253C239,-124.265 239,-114.529 239,-106.529"/>
<polygon fill="none" stroke="black" points="235.5,-133.313 239,-143.313 242.5,-133.313 235.5,-133.313"/>
</g>
<!-- AccountUpdatedEvent -->
<g id="node5" class="node"><title>AccountUpdatedEvent</title>
<polygon fill="#f2f2f2" stroke="black" points="330.5,-70.5 330.5,-106.5 481.5,-106.5 481.5,-70.5 330.5,-70.5"/>
<text text-anchor="middle" x="406" y="-84.8" font-family="Helvetica,sans-Serif" font-size="14.00">AccountUpdatedEvent</text>
</g>
<!-- AccountEvent&#45;&gt;AccountUpdatedEvent -->
<g id="edge4" class="edge"><title>AccountEvent&#45;&gt;AccountUpdatedEvent</title>
<path fill="none" stroke="black" d="M288.204,-139.581C312.895,-129.084 342.428,-116.527 365.747,-106.614"/>
<polygon fill="none" stroke="black" points="286.834,-136.36 279.001,-143.494 289.573,-142.802 286.834,-136.36"/>
</g>
</g>
</svg>
