<?xml version="1.0" encoding="UTF-8" standalone="no"?>
<!DOCTYPE svg PUBLIC "-//W3C//DTD SVG 1.1//EN"
 "http://www.w3.org/Graphics/SVG/1.1/DTD/svg11.dtd">
<!-- Generated by graphviz version 2.38.0 (20140413.2041)
 -->
<!-- Title: hierarchy Pages: 1 -->
<svg width="681pt" height="2067pt"
 viewBox="0.00 0.00 681.00 2067.00" xmlns="http://www.w3.org/2000/svg" xmlns:xlink="http://www.w3.org/1999/xlink">
<g id="graph0" class="graph" transform="scale(1 1) rotate(0) translate(4 2063)">
<title>hierarchy</title>
<polygon fill="white" stroke="none" points="-4,4 -4,-2063 677,-2063 677,4 -4,4"/>
<g id="clust1" class="cluster"><title>cluster_account</title>
<polygon fill="none" stroke="black" points="80.5,-1380 80.5,-2051 474,-2051 474,-1380 80.5,-1380"/>
<text text-anchor="middle" x="277.25" y="-2035.8" font-family="Helvetica,sans-Serif" font-size="14.00">Accounts</text>
</g>
<g id="clust2" class="cluster"><title>cluster_account</title>
<polygon fill="none" stroke="black" points="93.5,-1778 93.5,-2020 466,-2020 466,-1778 93.5,-1778"/>
<text text-anchor="middle" x="279.75" y="-2004.8" font-family="Helvetica,sans-Serif" font-size="14.00">Account</text>
</g>
<g id="clust4" class="cluster"><title>cluster_category</title>
<polygon fill="none" stroke="black" points="90.5,-1583 90.5,-1770 440,-1770 440,-1583 90.5,-1583"/>
<text text-anchor="middle" x="265.25" y="-1754.8" font-family="Helvetica,sans-Serif" font-size="14.00">Category</text>
</g>
<g id="clust6" class="cluster"><title>cluster_customer</title>
<polygon fill="none" stroke="black" points="88.5,-1388 88.5,-1575 442,-1575 442,-1388 88.5,-1388"/>
<text text-anchor="middle" x="265.25" y="-1559.8" font-family="Helvetica,sans-Serif" font-size="14.00">Customer</text>
</g>
<g id="clust8" class="cluster"><title>cluster_budget</title>
<polygon fill="none" stroke="black" points="74,-561 74,-1372 665,-1372 665,-561 74,-561"/>
<text text-anchor="middle" x="369.5" y="-1356.8" font-family="Helvetica,sans-Serif" font-size="14.00">Budgets</text>
</g>
<g id="clust9" class="cluster"><title>cluster_folio</title>
<polygon fill="none" stroke="black" points="103.5,-1154 103.5,-1341 427,-1341 427,-1154 103.5,-1154"/>
<text text-anchor="middle" x="265.25" y="-1325.8" font-family="Helvetica,sans-Serif" font-size="14.00">Folio</text>
</g>
<g id="clust11" class="cluster"><title>cluster_portfolio</title>
<polygon fill="none" stroke="black" points="93,-959 93,-1146 437.5,-1146 437.5,-959 93,-959"/>
<text text-anchor="middle" x="265.25" y="-1130.8" font-family="Helvetica,sans-Serif" font-size="14.00">Portfolio</text>
</g>
<g id="clust13" class="cluster"><title>cluster_expense</title>
<polygon fill="none" stroke="black" points="82,-569 82,-756 657,-756 657,-569 82,-569"/>
<text text-anchor="middle" x="369.5" y="-740.8" font-family="Helvetica,sans-Serif" font-size="14.00">Expense</text>
</g>
<g id="clust15" class="cluster"><title>cluster_position</title>
<polygon fill="none" stroke="black" points="296,-764 296,-951 654.5,-951 654.5,-764 296,-764"/>
<text text-anchor="middle" x="475.25" y="-935.8" font-family="Helvetica,sans-Serif" font-size="14.00">Position</text>
</g>
<g id="clust17" class="cluster"><title>cluster_planner</title>
<polygon fill="none" stroke="black" points="80.5,-327 80.5,-553 450,-553 450,-327 80.5,-327"/>
<text text-anchor="middle" x="265.25" y="-537.8" font-family="Helvetica,sans-Serif" font-size="14.00">Planner</text>
</g>
<g id="clust18" class="cluster"><title>cluster_allocation</title>
<polygon fill="none" stroke="black" points="88.5,-335 88.5,-522 442,-522 442,-335 88.5,-335"/>
<text text-anchor="middle" x="265.25" y="-506.8" font-family="Helvetica,sans-Serif" font-size="14.00">Allocation</text>
</g>
<g id="clust20" class="cluster"><title>cluster_teams</title>
<polygon fill="none" stroke="black" points="92.5,-93 92.5,-319 438,-319 438,-93 92.5,-93"/>
<text text-anchor="middle" x="265.25" y="-303.8" font-family="Helvetica,sans-Serif" font-size="14.00">Teams</text>
</g>
<g id="clust21" class="cluster"><title>cluster_team</title>
<polygon fill="none" stroke="black" points="100.5,-101 100.5,-288 430,-288 430,-101 100.5,-101"/>
<text text-anchor="middle" x="265.25" y="-272.8" font-family="Helvetica,sans-Serif" font-size="14.00">Team</text>
</g>
<g id="clust23" class="cluster"><title>cluster_timesheets</title>
<polygon fill="none" stroke="black" points="91.5,-8 91.5,-85 211.5,-85 211.5,-8 91.5,-8"/>
<text text-anchor="middle" x="151.5" y="-69.8" font-family="Helvetica,sans-Serif" font-size="14.00">Timesheets</text>
</g>
<!-- Event -->
<g id="node1" class="node"><title>Event</title>
<polygon fill="#f2f2f2" stroke="black" points="0,-1023 0,-1059 54,-1059 54,-1023 0,-1023"/>
<text text-anchor="middle" x="27" y="-1037.3" font-family="Helvetica,sans-Serif" font-size="14.00">Event</text>
</g>
<!-- AccountEvent -->
<g id="node2" class="node"><title>AccountEvent</title>
<polygon fill="#f2f2f2" stroke="black" points="101.5,-1842 101.5,-1878 201.5,-1878 201.5,-1842 101.5,-1842"/>
<text text-anchor="middle" x="151.5" y="-1856.3" font-family="Helvetica,sans-Serif" font-size="14.00">AccountEvent</text>
</g>
<!-- Event&#45;&gt;AccountEvent -->
<g id="edge1" class="edge"><title>Event&#45;&gt;AccountEvent</title>
<path fill="none" stroke="black" d="M28.6798,-1069.04C31.8866,-1195.34 46.5074,-1708.03 74,-1774 85.453,-1801.48 109.489,-1826.11 127.581,-1841.89"/>
<polygon fill="none" stroke="black" points="32.1778,-1068.91 28.4285,-1059 25.18,-1069.09 32.1778,-1068.91"/>
</g>
<!-- CategoryEvent -->
<g id="node3" class="node"><title>CategoryEvent</title>
<polygon fill="#f2f2f2" stroke="black" points="98.5,-1619 98.5,-1655 204.5,-1655 204.5,-1619 98.5,-1619"/>
<text text-anchor="middle" x="151.5" y="-1633.3" font-family="Helvetica,sans-Serif" font-size="14.00">CategoryEvent</text>
</g>
<!-- Event&#45;&gt;CategoryEvent -->
<g id="edge2" class="edge"><title>Event&#45;&gt;CategoryEvent</title>
<path fill="none" stroke="black" d="M29.08,-1069.34C33.2461,-1173.88 49.2823,-1534.15 74,-1579 83.2511,-1595.79 99.6282,-1609.2 114.862,-1618.87"/>
<polygon fill="none" stroke="black" points="32.5727,-1069.08 28.6824,-1059.23 25.5781,-1069.36 32.5727,-1069.08"/>
</g>
<!-- CustomerEvent -->
<g id="node4" class="node"><title>CustomerEvent</title>
<polygon fill="#f2f2f2" stroke="black" points="96.5,-1424 96.5,-1460 206.5,-1460 206.5,-1424 96.5,-1424"/>
<text text-anchor="middle" x="151.5" y="-1438.3" font-family="Helvetica,sans-Serif" font-size="14.00">CustomerEvent</text>
</g>
<!-- Event&#45;&gt;CustomerEvent -->
<g id="edge3" class="edge"><title>Event&#45;&gt;CustomerEvent</title>
<path fill="none" stroke="black" d="M27.541,-1069.08C27.6327,-1124.32 32.8057,-1249.96 74,-1345 87.4759,-1376.09 113.458,-1405.75 131.376,-1423.91"/>
<polygon fill="none" stroke="black" points="31.0412,-1069.02 27.5812,-1059.01 24.0412,-1068.99 31.0412,-1069.02"/>
</g>
<!-- FolioEvent -->
<g id="node5" class="node"><title>FolioEvent</title>
<polygon fill="#f2f2f2" stroke="black" points="111.5,-1190 111.5,-1226 191.5,-1226 191.5,-1190 111.5,-1190"/>
<text text-anchor="middle" x="151.5" y="-1204.3" font-family="Helvetica,sans-Serif" font-size="14.00">FolioEvent</text>
</g>
<!-- Event&#45;&gt;FolioEvent -->
<g id="edge4" class="edge"><title>Event&#45;&gt;FolioEvent</title>
<path fill="none" stroke="black" d="M35.3043,-1068.75C42.4328,-1092.12 55.0046,-1125.56 74,-1150 86.3761,-1165.92 104.143,-1179.75 119.44,-1189.91"/>
<polygon fill="none" stroke="black" points="38.6497,-1067.72 32.4941,-1059.1 31.9287,-1069.68 38.6497,-1067.72"/>
</g>
<!-- PortfolioEvent -->
<g id="node6" class="node"><title>PortfolioEvent</title>
<polygon fill="#f2f2f2" stroke="black" points="101,-1023 101,-1059 202,-1059 202,-1023 101,-1023"/>
<text text-anchor="middle" x="151.5" y="-1037.3" font-family="Helvetica,sans-Serif" font-size="14.00">PortfolioEvent</text>
</g>
<!-- Event&#45;&gt;PortfolioEvent -->
<g id="edge5" class="edge"><title>Event&#45;&gt;PortfolioEvent</title>
<path fill="none" stroke="black" d="M64.6228,-1041C75.9045,-1041 88.5237,-1041 100.542,-1041"/>
<polygon fill="none" stroke="black" points="64.2794,-1037.5 54.2793,-1041 64.2793,-1044.5 64.2794,-1037.5"/>
</g>
<!-- ExpenditureEvent -->
<g id="node7" class="node"><title>ExpenditureEvent</title>
<polygon fill="#f2f2f2" stroke="black" points="90,-688 90,-724 213,-724 213,-688 90,-688"/>
<text text-anchor="middle" x="151.5" y="-702.3" font-family="Helvetica,sans-Serif" font-size="14.00">ExpenditureEvent</text>
</g>
<!-- Event&#45;&gt;ExpenditureEvent -->
<g id="edge6" class="edge"><title>Event&#45;&gt;ExpenditureEvent</title>
<path fill="none" stroke="black" d="M38.1661,-1013.2C62.5142,-946.614 123.647,-779.433 143.881,-724.1"/>
<polygon fill="none" stroke="black" points="34.7334,-1012.4 34.5861,-1022.99 41.3076,-1014.8 34.7334,-1012.4"/>
</g>
<!-- AllocationEvent -->
<g id="node8" class="node"><title>AllocationEvent</title>
<polygon fill="#f2f2f2" stroke="black" points="96.5,-427 96.5,-463 206.5,-463 206.5,-427 96.5,-427"/>
<text text-anchor="middle" x="151.5" y="-441.3" font-family="Helvetica,sans-Serif" font-size="14.00">AllocationEvent</text>
</g>
<!-- Event&#45;&gt;AllocationEvent -->
<g id="edge7" class="edge"><title>Event&#45;&gt;AllocationEvent</title>
<path fill="none" stroke="black" d="M29.0016,-1012.74C32.4337,-923.51 45.1383,-648.732 74,-565 87.6872,-525.291 116.931,-485.403 135.035,-463.085"/>
<polygon fill="none" stroke="black" points="25.4975,-1012.79 28.6201,-1022.91 32.4926,-1013.05 25.4975,-1012.79"/>
</g>
<!-- TeamEvent -->
<g id="node9" class="node"><title>TeamEvent</title>
<polygon fill="#f2f2f2" stroke="black" points="108.5,-193 108.5,-229 194.5,-229 194.5,-193 108.5,-193"/>
<text text-anchor="middle" x="151.5" y="-207.3" font-family="Helvetica,sans-Serif" font-size="14.00">TeamEvent</text>
</g>
<!-- Event&#45;&gt;TeamEvent -->
<g id="edge8" class="edge"><title>Event&#45;&gt;TeamEvent</title>
<path fill="none" stroke="black" d="M27.9642,-1012.66C28.1045,-897.019 31.4984,-460.94 74,-331 87.0573,-291.08 116.508,-251.261 134.821,-229.013"/>
<polygon fill="none" stroke="black" points="24.4642,-1012.82 27.9596,-1022.82 31.4642,-1012.83 24.4642,-1012.82"/>
</g>
<!-- ApprovalEvent -->
<g id="node10" class="node"><title>ApprovalEvent</title>
<polygon fill="#f2f2f2" stroke="black" points="99.5,-17 99.5,-53 203.5,-53 203.5,-17 99.5,-17"/>
<text text-anchor="middle" x="151.5" y="-31.3" font-family="Helvetica,sans-Serif" font-size="14.00">ApprovalEvent</text>
</g>
<!-- Event&#45;&gt;ApprovalEvent -->
<g id="edge9" class="edge"><title>Event&#45;&gt;ApprovalEvent</title>
<path fill="none" stroke="black" d="M28.0126,-1012.67C28.2598,-864.3 31.7013,-180.436 74,-97 83.3534,-78.55 100.955,-63.69 116.919,-53.1481"/>
<polygon fill="none" stroke="black" points="24.5126,-1012.78 27.9995,-1022.78 31.5126,-1012.79 24.5126,-1012.78"/>
</g>
<!-- AccountChangedEvent -->
<g id="node11" class="node"><title>AccountChangedEvent</title>
<polygon fill="#f2f2f2" stroke="black" points="276,-1787 276,-1823 431,-1823 431,-1787 276,-1787"/>
<text text-anchor="middle" x="353.5" y="-1801.3" font-family="Helvetica,sans-Serif" font-size="14.00">AccountChangedEvent</text>
</g>
<!-- AccountEvent&#45;&gt;AccountChangedEvent -->
<g id="edge10" class="edge"><title>AccountEvent&#45;&gt;AccountChangedEvent</title>
<path fill="none" stroke="black" d="M211.372,-1843.44C223.793,-1839.97 236.823,-1836.35 249,-1833 260.756,-1829.77 273.271,-1826.35 285.388,-1823.07"/>
<polygon fill="none" stroke="black" points="210.257,-1840.12 201.569,-1846.18 212.142,-1846.86 210.257,-1840.12"/>
</g>
<!-- AccountCreatedEvent -->
<g id="node12" class="node"><title>AccountCreatedEvent</title>
<polygon fill="#f2f2f2" stroke="black" points="279.5,-1842 279.5,-1878 427.5,-1878 427.5,-1842 279.5,-1842"/>
<text text-anchor="middle" x="353.5" y="-1856.3" font-family="Helvetica,sans-Serif" font-size="14.00">AccountCreatedEvent</text>
</g>
<!-- AccountEvent&#45;&gt;AccountCreatedEvent -->
<g id="edge11" class="edge"><title>AccountEvent&#45;&gt;AccountCreatedEvent</title>
<path fill="none" stroke="black" d="M211.816,-1860C232.983,-1860 257.081,-1860 279.279,-1860"/>
<polygon fill="none" stroke="black" points="211.682,-1856.5 201.682,-1860 211.682,-1863.5 211.682,-1856.5"/>
</g>
<!-- AccountDeletedEvent -->
<g id="node13" class="node"><title>AccountDeletedEvent</title>
<polygon fill="#f2f2f2" stroke="black" points="280.5,-1897 280.5,-1933 426.5,-1933 426.5,-1897 280.5,-1897"/>
<text text-anchor="middle" x="353.5" y="-1911.3" font-family="Helvetica,sans-Serif" font-size="14.00">AccountDeletedEvent</text>
</g>
<!-- AccountEvent&#45;&gt;AccountDeletedEvent -->
<g id="edge12" class="edge"><title>AccountEvent&#45;&gt;AccountDeletedEvent</title>
<path fill="none" stroke="black" d="M211.322,-1877.34C223.747,-1880.93 236.791,-1884.64 249,-1888 259.742,-1890.96 271.134,-1894.01 282.281,-1896.96"/>
<polygon fill="none" stroke="black" points="212.098,-1873.92 201.519,-1874.5 210.15,-1880.65 212.098,-1873.92"/>
</g>
<!-- AccountCategoryChangedEvent -->
<g id="node14" class="node"><title>AccountCategoryChangedEvent</title>
<polygon fill="#f2f2f2" stroke="black" points="249,-1952 249,-1988 458,-1988 458,-1952 249,-1952"/>
<text text-anchor="middle" x="353.5" y="-1966.3" font-family="Helvetica,sans-Serif" font-size="14.00">AccountCategoryChangedEvent</text>
</g>
<!-- AccountEvent&#45;&gt;AccountCategoryChangedEvent -->
<g id="edge13" class="edge"><title>AccountEvent&#45;&gt;AccountCategoryChangedEvent</title>
<path fill="none" stroke="black" d="M176.091,-1885.81C194.321,-1904.28 221.085,-1928.37 249,-1943 255.415,-1946.36 262.277,-1949.33 269.302,-1951.94"/>
<polygon fill="none" stroke="black" points="178.286,-1883.04 168.822,-1878.28 173.251,-1887.91 178.286,-1883.04"/>
</g>
<!-- CategoryCreatedEvent -->
<g id="node15" class="node"><title>CategoryCreatedEvent</title>
<polygon fill="#f2f2f2" stroke="black" points="276.5,-1592 276.5,-1628 430.5,-1628 430.5,-1592 276.5,-1592"/>
<text text-anchor="middle" x="353.5" y="-1606.3" font-family="Helvetica,sans-Serif" font-size="14.00">CategoryCreatedEvent</text>
</g>
<!-- CategoryEvent&#45;&gt;CategoryCreatedEvent -->
<g id="edge14" class="edge"><title>CategoryEvent&#45;&gt;CategoryCreatedEvent</title>
<path fill="none" stroke="black" d="M214.513,-1628.63C234.044,-1625.99 255.846,-1623.05 276.248,-1620.29"/>
<polygon fill="none" stroke="black" points="213.967,-1625.17 204.526,-1629.98 214.904,-1632.11 213.967,-1625.17"/>
</g>
<!-- CategoryDeletedEvent -->
<g id="node16" class="node"><title>CategoryDeletedEvent</title>
<polygon fill="#f2f2f2" stroke="black" points="277.5,-1647 277.5,-1683 429.5,-1683 429.5,-1647 277.5,-1647"/>
<text text-anchor="middle" x="353.5" y="-1661.3" font-family="Helvetica,sans-Serif" font-size="14.00">CategoryDeletedEvent</text>
</g>
<!-- CategoryEvent&#45;&gt;CategoryDeletedEvent -->
<g id="edge15" class="edge"><title>CategoryEvent&#45;&gt;CategoryDeletedEvent</title>
<path fill="none" stroke="black" d="M214.675,-1645.7C234.529,-1648.48 256.715,-1651.59 277.387,-1654.48"/>
<polygon fill="none" stroke="black" points="214.914,-1642.2 204.526,-1644.28 213.944,-1649.14 214.914,-1642.2"/>
</g>
<!-- CategoryUpdatedEvent -->
<g id="node17" class="node"><title>CategoryUpdatedEvent</title>
<polygon fill="#f2f2f2" stroke="black" points="275,-1702 275,-1738 432,-1738 432,-1702 275,-1702"/>
<text text-anchor="middle" x="353.5" y="-1716.3" font-family="Helvetica,sans-Serif" font-size="14.00">CategoryUpdatedEvent</text>
</g>
<!-- CategoryEvent&#45;&gt;CategoryUpdatedEvent -->
<g id="edge16" class="edge"><title>CategoryEvent&#45;&gt;CategoryUpdatedEvent</title>
<path fill="none" stroke="black" d="M188.659,-1660.52C206.319,-1671.24 228.202,-1683.42 249,-1692 257.863,-1695.65 267.348,-1698.97 276.847,-1701.94"/>
<polygon fill="none" stroke="black" points="190.185,-1657.35 179.837,-1655.08 186.508,-1663.31 190.185,-1657.35"/>
</g>
<!-- CustomerCreatedEvent -->
<g id="node18" class="node"><title>CustomerCreatedEvent</title>
<polygon fill="#f2f2f2" stroke="black" points="274.5,-1397 274.5,-1433 432.5,-1433 432.5,-1397 274.5,-1397"/>
<text text-anchor="middle" x="353.5" y="-1411.3" font-family="Helvetica,sans-Serif" font-size="14.00">CustomerCreatedEvent</text>
</g>
<!-- CustomerEvent&#45;&gt;CustomerCreatedEvent -->
<g id="edge17" class="edge"><title>CustomerEvent&#45;&gt;CustomerCreatedEvent</title>
<path fill="none" stroke="black" d="M216.613,-1433.34C234.974,-1430.87 255.196,-1428.14 274.302,-1425.56"/>
<polygon fill="none" stroke="black" points="216.065,-1429.89 206.623,-1434.69 217.001,-1436.82 216.065,-1429.89"/>
</g>
<!-- CustomerDeletedEvent -->
<g id="node19" class="node"><title>CustomerDeletedEvent</title>
<polygon fill="#f2f2f2" stroke="black" points="275,-1452 275,-1488 432,-1488 432,-1452 275,-1452"/>
<text text-anchor="middle" x="353.5" y="-1466.3" font-family="Helvetica,sans-Serif" font-size="14.00">CustomerDeletedEvent</text>
</g>
<!-- CustomerEvent&#45;&gt;CustomerDeletedEvent -->
<g id="edge18" class="edge"><title>CustomerEvent&#45;&gt;CustomerDeletedEvent</title>
<path fill="none" stroke="black" d="M216.67,-1450.98C235.137,-1453.57 255.482,-1456.42 274.679,-1459.11"/>
<polygon fill="none" stroke="black" points="217.012,-1447.5 206.623,-1449.58 216.041,-1454.43 217.012,-1447.5"/>
</g>
<!-- CustomerUpdatedEvent -->
<g id="node20" class="node"><title>CustomerUpdatedEvent</title>
<polygon fill="#f2f2f2" stroke="black" points="273,-1507 273,-1543 434,-1543 434,-1507 273,-1507"/>
<text text-anchor="middle" x="353.5" y="-1521.3" font-family="Helvetica,sans-Serif" font-size="14.00">CustomerUpdatedEvent</text>
</g>
<!-- CustomerEvent&#45;&gt;CustomerUpdatedEvent -->
<g id="edge19" class="edge"><title>CustomerEvent&#45;&gt;CustomerUpdatedEvent</title>
<path fill="none" stroke="black" d="M188.659,-1465.52C206.319,-1476.24 228.202,-1488.42 249,-1497 257.863,-1500.65 267.348,-1503.97 276.847,-1506.94"/>
<polygon fill="none" stroke="black" points="190.185,-1462.35 179.837,-1460.08 186.508,-1468.31 190.185,-1462.35"/>
</g>
<!-- FolioCreatedEvent -->
<g id="node21" class="node"><title>FolioCreatedEvent</title>
<polygon fill="#f2f2f2" stroke="black" points="289.5,-1163 289.5,-1199 417.5,-1199 417.5,-1163 289.5,-1163"/>
<text text-anchor="middle" x="353.5" y="-1177.3" font-family="Helvetica,sans-Serif" font-size="14.00">FolioCreatedEvent</text>
</g>
<!-- FolioEvent&#45;&gt;FolioCreatedEvent -->
<g id="edge20" class="edge"><title>FolioEvent&#45;&gt;FolioCreatedEvent</title>
<path fill="none" stroke="black" d="M201.68,-1201.36C228.067,-1197.8 260.885,-1193.37 289.163,-1189.55"/>
<polygon fill="none" stroke="black" points="200.979,-1197.92 191.537,-1202.73 201.915,-1204.86 200.979,-1197.92"/>
</g>
<!-- FolioDeletedEvent -->
<g id="node22" class="node"><title>FolioDeletedEvent</title>
<polygon fill="#f2f2f2" stroke="black" points="290,-1218 290,-1254 417,-1254 417,-1218 290,-1218"/>
<text text-anchor="middle" x="353.5" y="-1232.3" font-family="Helvetica,sans-Serif" font-size="14.00">FolioDeletedEvent</text>
</g>
<!-- FolioEvent&#45;&gt;FolioDeletedEvent -->
<g id="edge21" class="edge"><title>FolioEvent&#45;&gt;FolioDeletedEvent</title>
<path fill="none" stroke="black" d="M201.766,-1214.9C228.384,-1218.62 261.526,-1223.26 289.949,-1227.24"/>
<polygon fill="none" stroke="black" points="201.926,-1211.39 191.537,-1213.47 200.955,-1218.32 201.926,-1211.39"/>
</g>
<!-- FolioUpdatedEvent -->
<g id="node23" class="node"><title>FolioUpdatedEvent</title>
<polygon fill="#f2f2f2" stroke="black" points="288,-1273 288,-1309 419,-1309 419,-1273 288,-1273"/>
<text text-anchor="middle" x="353.5" y="-1287.3" font-family="Helvetica,sans-Serif" font-size="14.00">FolioUpdatedEvent</text>
</g>
<!-- FolioEvent&#45;&gt;FolioUpdatedEvent -->
<g id="edge22" class="edge"><title>FolioEvent&#45;&gt;FolioUpdatedEvent</title>
<path fill="none" stroke="black" d="M188.659,-1231.52C206.319,-1242.24 228.202,-1254.42 249,-1263 261.304,-1268.07 274.809,-1272.5 287.884,-1276.24"/>
<polygon fill="none" stroke="black" points="190.185,-1228.35 179.837,-1226.08 186.508,-1234.31 190.185,-1228.35"/>
</g>
<!-- PortfolioCreatedEvent -->
<g id="node24" class="node"><title>PortfolioCreatedEvent</title>
<polygon fill="#f2f2f2" stroke="black" points="279,-968 279,-1004 428,-1004 428,-968 279,-968"/>
<text text-anchor="middle" x="353.5" y="-982.3" font-family="Helvetica,sans-Serif" font-size="14.00">PortfolioCreatedEvent</text>
</g>
<!-- PortfolioEvent&#45;&gt;PortfolioCreatedEvent -->
<g id="edge23" class="edge"><title>PortfolioEvent&#45;&gt;PortfolioCreatedEvent</title>
<path fill="none" stroke="black" d="M211.728,-1023.54C224.03,-1019.99 236.924,-1016.33 249,-1013 259.742,-1010.04 271.134,-1006.99 282.281,-1004.04"/>
<polygon fill="none" stroke="black" points="210.646,-1020.21 202.015,-1026.35 212.594,-1026.93 210.646,-1020.21"/>
</g>
<!-- PortfolioDeletedEvent -->
<g id="node25" class="node"><title>PortfolioDeletedEvent</title>
<polygon fill="#f2f2f2" stroke="black" points="280,-1023 280,-1059 427,-1059 427,-1023 280,-1023"/>
<text text-anchor="middle" x="353.5" y="-1037.3" font-family="Helvetica,sans-Serif" font-size="14.00">PortfolioDeletedEvent</text>
</g>
<!-- PortfolioEvent&#45;&gt;PortfolioDeletedEvent -->
<g id="edge24" class="edge"><title>PortfolioEvent&#45;&gt;PortfolioDeletedEvent</title>
<path fill="none" stroke="black" d="M212.327,-1041C233.479,-1041 257.508,-1041 279.622,-1041"/>
<polygon fill="none" stroke="black" points="212.195,-1037.5 202.195,-1041 212.195,-1044.5 212.195,-1037.5"/>
</g>
<!-- PortfolioUpdatedEvent -->
<g id="node26" class="node"><title>PortfolioUpdatedEvent</title>
<polygon fill="#f2f2f2" stroke="black" points="277.5,-1078 277.5,-1114 429.5,-1114 429.5,-1078 277.5,-1078"/>
<text text-anchor="middle" x="353.5" y="-1092.3" font-family="Helvetica,sans-Serif" font-size="14.00">PortfolioUpdatedEvent</text>
</g>
<!-- PortfolioEvent&#45;&gt;PortfolioUpdatedEvent -->
<g id="edge25" class="edge"><title>PortfolioEvent&#45;&gt;PortfolioUpdatedEvent</title>
<path fill="none" stroke="black" d="M211.777,-1057.67C224.076,-1061.11 236.956,-1064.69 249,-1068 260.756,-1071.23 273.271,-1074.65 285.388,-1077.93"/>
<polygon fill="none" stroke="black" points="212.639,-1054.28 202.065,-1054.96 210.753,-1061.02 212.639,-1054.28"/>
</g>
<!-- ExpenseEvent -->
<g id="node27" class="node"><title>ExpenseEvent</title>
<polygon fill="#f2f2f2" stroke="black" points="301.5,-661 301.5,-697 405.5,-697 405.5,-661 301.5,-661"/>
<text text-anchor="middle" x="353.5" y="-675.3" font-family="Helvetica,sans-Serif" font-size="14.00">ExpenseEvent</text>
</g>
<!-- ExpenditureEvent&#45;&gt;ExpenseEvent -->
<g id="edge26" class="edge"><title>ExpenditureEvent&#45;&gt;ExpenseEvent</title>
<path fill="none" stroke="black" d="M223.139,-696.464C248.899,-692.986 277.512,-689.123 301.264,-685.917"/>
<polygon fill="none" stroke="black" points="222.491,-693.019 213.049,-697.826 223.428,-699.956 222.491,-693.019"/>
</g>
<!-- PositionEvent -->
<g id="node31" class="node"><title>PositionEvent</title>
<polygon fill="#f2f2f2" stroke="black" points="304,-800 304,-836 403,-836 403,-800 304,-800"/>
<text text-anchor="middle" x="353.5" y="-814.3" font-family="Helvetica,sans-Serif" font-size="14.00">PositionEvent</text>
</g>
<!-- ExpenditureEvent&#45;&gt;PositionEvent -->
<g id="edge30" class="edge"><title>ExpenditureEvent&#45;&gt;PositionEvent</title>
<path fill="none" stroke="black" d="M194.228,-729.368C231.726,-750.366 286.013,-780.767 320.267,-799.949"/>
<polygon fill="none" stroke="black" points="195.514,-726.076 185.079,-724.244 192.094,-732.184 195.514,-726.076"/>
</g>
<!-- AllocationCreatedEvent -->
<g id="node35" class="node"><title>AllocationCreatedEvent</title>
<polygon fill="#f2f2f2" stroke="black" points="274.5,-344 274.5,-380 432.5,-380 432.5,-344 274.5,-344"/>
<text text-anchor="middle" x="353.5" y="-358.3" font-family="Helvetica,sans-Serif" font-size="14.00">AllocationCreatedEvent</text>
</g>
<!-- AllocationEvent&#45;&gt;AllocationCreatedEvent -->
<g id="edge34" class="edge"><title>AllocationEvent&#45;&gt;AllocationCreatedEvent</title>
<path fill="none" stroke="black" d="M188.186,-421.174C205.892,-410.175 227.951,-397.665 249,-389 257.071,-385.678 265.667,-382.665 274.323,-379.961"/>
<polygon fill="none" stroke="black" points="185.933,-418.457 179.352,-426.76 189.675,-424.374 185.933,-418.457"/>
</g>
<!-- AllocationDeletedEvent -->
<g id="node36" class="node"><title>AllocationDeletedEvent</title>
<polygon fill="#f2f2f2" stroke="black" points="275.5,-399 275.5,-435 431.5,-435 431.5,-399 275.5,-399"/>
<text text-anchor="middle" x="353.5" y="-413.3" font-family="Helvetica,sans-Serif" font-size="14.00">AllocationDeletedEvent</text>
</g>
<!-- AllocationEvent&#45;&gt;AllocationDeletedEvent -->
<g id="edge35" class="edge"><title>AllocationEvent&#45;&gt;AllocationDeletedEvent</title>
<path fill="none" stroke="black" d="M216.783,-436C235.462,-433.385 256.055,-430.502 275.433,-427.789"/>
<polygon fill="none" stroke="black" points="216.041,-432.57 206.623,-437.423 217.012,-439.502 216.041,-432.57"/>
</g>
<!-- AllocationUpdatedEvent -->
<g id="node37" class="node"><title>AllocationUpdatedEvent</title>
<polygon fill="#f2f2f2" stroke="black" points="273,-454 273,-490 434,-490 434,-454 273,-454"/>
<text text-anchor="middle" x="353.5" y="-468.3" font-family="Helvetica,sans-Serif" font-size="14.00">AllocationUpdatedEvent</text>
</g>
<!-- AllocationEvent&#45;&gt;AllocationUpdatedEvent -->
<g id="edge36" class="edge"><title>AllocationEvent&#45;&gt;AllocationUpdatedEvent</title>
<path fill="none" stroke="black" d="M216.885,-453.692C234.69,-456.096 254.227,-458.733 272.79,-461.239"/>
<polygon fill="none" stroke="black" points="217.001,-450.176 206.623,-452.307 216.065,-457.113 217.001,-450.176"/>
</g>
<!-- TeamCreatedEvent -->
<g id="node38" class="node"><title>TeamCreatedEvent</title>
<polygon fill="#f2f2f2" stroke="black" points="286.5,-110 286.5,-146 420.5,-146 420.5,-110 286.5,-110"/>
<text text-anchor="middle" x="353.5" y="-124.3" font-family="Helvetica,sans-Serif" font-size="14.00">TeamCreatedEvent</text>
</g>
<!-- TeamEvent&#45;&gt;TeamCreatedEvent -->
<g id="edge37" class="edge"><title>TeamEvent&#45;&gt;TeamCreatedEvent</title>
<path fill="none" stroke="black" d="M188.186,-187.174C205.892,-176.175 227.951,-163.665 249,-155 260.849,-150.123 273.829,-145.913 286.471,-142.365"/>
<polygon fill="none" stroke="black" points="185.933,-184.457 179.352,-192.76 189.675,-190.374 185.933,-184.457"/>
</g>
<!-- TeamDeletedEvent -->
<g id="node39" class="node"><title>TeamDeletedEvent</title>
<polygon fill="#f2f2f2" stroke="black" points="287,-165 287,-201 420,-201 420,-165 287,-165"/>
<text text-anchor="middle" x="353.5" y="-179.3" font-family="Helvetica,sans-Serif" font-size="14.00">TeamDeletedEvent</text>
</g>
<!-- TeamEvent&#45;&gt;TeamDeletedEvent -->
<g id="edge38" class="edge"><title>TeamEvent&#45;&gt;TeamDeletedEvent</title>
<path fill="none" stroke="black" d="M204.963,-203.655C230.047,-200.143 260.33,-195.904 286.917,-192.182"/>
<polygon fill="none" stroke="black" points="204.333,-200.209 194.915,-205.062 205.304,-207.142 204.333,-200.209"/>
</g>
<!-- TeamUpdatedEvent -->
<g id="node40" class="node"><title>TeamUpdatedEvent</title>
<polygon fill="#f2f2f2" stroke="black" points="285,-220 285,-256 422,-256 422,-220 285,-220"/>
<text text-anchor="middle" x="353.5" y="-234.3" font-family="Helvetica,sans-Serif" font-size="14.00">TeamUpdatedEvent</text>
</g>
<!-- TeamEvent&#45;&gt;TeamUpdatedEvent -->
<g id="edge39" class="edge"><title>TeamEvent&#45;&gt;TeamUpdatedEvent</title>
<path fill="none" stroke="black" d="M205.068,-218.097C229.518,-221.397 258.892,-225.363 284.963,-228.883"/>
<polygon fill="none" stroke="black" points="205.293,-214.595 194.915,-216.726 204.357,-221.532 205.293,-214.595"/>
</g>
<!-- ExpenseCreatedEvent -->
<g id="node28" class="node"><title>ExpenseCreatedEvent</title>
<polygon fill="#f2f2f2" stroke="black" points="495.5,-578 495.5,-614 647.5,-614 647.5,-578 495.5,-578"/>
<text text-anchor="middle" x="571.5" y="-592.3" font-family="Helvetica,sans-Serif" font-size="14.00">ExpenseCreatedEvent</text>
</g>
<!-- ExpenseEvent&#45;&gt;ExpenseCreatedEvent -->
<g id="edge27" class="edge"><title>ExpenseEvent&#45;&gt;ExpenseCreatedEvent</title>
<path fill="none" stroke="black" d="M407.282,-657.198C433.291,-646.611 465.183,-633.864 494,-623 501.907,-620.019 510.31,-616.952 518.542,-614.004"/>
<polygon fill="none" stroke="black" points="405.919,-653.974 397.983,-660.993 408.564,-660.455 405.919,-653.974"/>
</g>
<!-- ExpenseDeletedEvent -->
<g id="node29" class="node"><title>ExpenseDeletedEvent</title>
<polygon fill="#f2f2f2" stroke="black" points="496.5,-633 496.5,-669 646.5,-669 646.5,-633 496.5,-633"/>
<text text-anchor="middle" x="571.5" y="-647.3" font-family="Helvetica,sans-Serif" font-size="14.00">ExpenseDeletedEvent</text>
</g>
<!-- ExpenseEvent&#45;&gt;ExpenseDeletedEvent -->
<g id="edge28" class="edge"><title>ExpenseEvent&#45;&gt;ExpenseDeletedEvent</title>
<path fill="none" stroke="black" d="M415.798,-671.054C440.873,-667.803 470.108,-664.014 496.37,-660.609"/>
<polygon fill="none" stroke="black" points="415.156,-667.608 405.689,-672.364 416.056,-674.55 415.156,-667.608"/>
</g>
<!-- ExpenseUpdatedEvent -->
<g id="node30" class="node"><title>ExpenseUpdatedEvent</title>
<polygon fill="#f2f2f2" stroke="black" points="494,-688 494,-724 649,-724 649,-688 494,-688"/>
<text text-anchor="middle" x="571.5" y="-702.3" font-family="Helvetica,sans-Serif" font-size="14.00">ExpenseUpdatedEvent</text>
</g>
<!-- ExpenseEvent&#45;&gt;ExpenseUpdatedEvent -->
<g id="edge29" class="edge"><title>ExpenseEvent&#45;&gt;ExpenseUpdatedEvent</title>
<path fill="none" stroke="black" d="M415.836,-686.667C440.114,-689.702 468.286,-693.223 493.883,-696.423"/>
<polygon fill="none" stroke="black" points="416.046,-683.166 405.689,-685.399 415.178,-690.112 416.046,-683.166"/>
</g>
<!-- PositionCreatedEvent -->
<g id="node32" class="node"><title>PositionCreatedEvent</title>
<polygon fill="#f2f2f2" stroke="black" points="498,-773 498,-809 645,-809 645,-773 498,-773"/>
<text text-anchor="middle" x="571.5" y="-787.3" font-family="Helvetica,sans-Serif" font-size="14.00">PositionCreatedEvent</text>
</g>
<!-- PositionEvent&#45;&gt;PositionCreatedEvent -->
<g id="edge31" class="edge"><title>PositionEvent&#45;&gt;PositionCreatedEvent</title>
<path fill="none" stroke="black" d="M413.337,-810.645C439.375,-807.391 470.26,-803.53 497.73,-800.096"/>
<polygon fill="none" stroke="black" points="412.733,-807.194 403.244,-811.907 413.601,-814.14 412.733,-807.194"/>
</g>
<!-- PositionDeletedEvent -->
<g id="node33" class="node"><title>PositionDeletedEvent</title>
<polygon fill="#f2f2f2" stroke="black" points="498.5,-828 498.5,-864 644.5,-864 644.5,-828 498.5,-828"/>
<text text-anchor="middle" x="571.5" y="-842.3" font-family="Helvetica,sans-Serif" font-size="14.00">PositionDeletedEvent</text>
</g>
<!-- PositionEvent&#45;&gt;PositionDeletedEvent -->
<g id="edge32" class="edge"><title>PositionEvent&#45;&gt;PositionDeletedEvent</title>
<path fill="none" stroke="black" d="M413.384,-825.633C439.544,-829.024 470.589,-833.049 498.146,-836.621"/>
<polygon fill="none" stroke="black" points="413.611,-822.133 403.244,-824.319 412.711,-829.075 413.611,-822.133"/>
</g>
<!-- PositionUpdatedEvent -->
<g id="node34" class="node"><title>PositionUpdatedEvent</title>
<polygon fill="#f2f2f2" stroke="black" points="496.5,-883 496.5,-919 646.5,-919 646.5,-883 496.5,-883"/>
<text text-anchor="middle" x="571.5" y="-897.3" font-family="Helvetica,sans-Serif" font-size="14.00">PositionUpdatedEvent</text>
</g>
<!-- PositionEvent&#45;&gt;PositionUpdatedEvent -->
<g id="edge33" class="edge"><title>PositionEvent&#45;&gt;PositionUpdatedEvent</title>
<path fill="none" stroke="black" d="M409.188,-839.922C434.875,-850.127 465.948,-862.338 494,-873 502.593,-876.266 511.754,-879.679 520.641,-882.953"/>
<polygon fill="none" stroke="black" points="410.21,-836.562 399.625,-836.117 407.622,-843.066 410.21,-836.562"/>
</g>
</g>
</svg>
