<?xml version="1.0" encoding="UTF-8" standalone="no"?>
<!DOCTYPE svg PUBLIC "-//W3C//DTD SVG 1.1//EN"
 "http://www.w3.org/Graphics/SVG/1.1/DTD/svg11.dtd">
<!-- Generated by graphviz version 2.40.1 (20161225.0304)
 -->
<!-- Title: hierarchy Pages: 1 -->
<svg width="1023pt" height="259pt"
     viewBox="0.00 0.00 1023.31 259.00" xmlns="http://www.w3.org/2000/svg">
<g id="graph0" class="graph" transform="scale(1 1) rotate(0) translate(4 255)">
<title>hierarchy</title>
<polygon fill="#ffffff" stroke="transparent" points="-4,4 -4,-255 1019.313,-255 1019.313,4 -4,4"/>
<text text-anchor="middle" x="507.6565" y="-36.8" font-family="Helvetica,sans-Serif" font-size="14.00" fill="#000000">Expenditure</text>
<text text-anchor="middle" x="507.6565" y="-6.8" font-family="Helvetica,sans-Serif" font-size="14.00" fill="#000000">package: com.tempoplugin.budget.api.event</text>
<!-- Event -->
<g id="node1" class="node">
<title>Event</title>
<polygon fill="#f2f2f2" stroke="#000000" points="398.0444,-214.5 398.0444,-250.5 452.0444,-250.5 452.0444,-214.5 398.0444,-214.5"/>
<text text-anchor="middle" x="424.9443" y="-228.3" font-family="Helvetica,sans-Serif" font-size="14.00" fill="#000000">Event</text>
</g>
<!-- ExpenseEvent -->
<g id="node2" class="node">
<title>ExpenseEvent</title>
<polygon fill="#f2f2f2" stroke="#000000" points="285.9033,-141.5 285.9033,-177.5 392.1855,-177.5 392.1855,-141.5 285.9033,-141.5"/>
<text text-anchor="middle" x="339.0444" y="-155.3" font-family="Helvetica,sans-Serif" font-size="14.00" fill="#000000">ExpenseEvent</text>
</g>
<!-- Event&#45;&gt;ExpenseEvent -->
<g id="edge1" class="edge">
<title>Event&#45;&gt;ExpenseEvent</title>
<path fill="none" stroke="#000000" d="M395.9996,-207.8457C384.3266,-197.9372 371.1146,-186.7224 360.3564,-177.5904"/>
<polygon fill="none" stroke="#000000" points="393.8972,-210.652 403.786,-214.4551 398.4272,-205.3154 393.8972,-210.652"/>
</g>
<!-- PositionEvent -->
<g id="node6" class="node">
<title>PositionEvent</title>
<polygon fill="#f2f2f2" stroke="#000000" points="632.2412,-141.5 632.2412,-177.5 733.8477,-177.5 733.8477,-141.5 632.2412,-141.5"/>
<text text-anchor="middle" x="683.0444" y="-155.3" font-family="Helvetica,sans-Serif" font-size="14.00" fill="#000000">PositionEvent</text>
</g>
<!-- Event&#45;&gt;PositionEvent -->
<g id="edge5" class="edge">
<title>Event&#45;&gt;PositionEvent</title>
<path fill="none" stroke="#000000" d="M462.0054,-222.0421C506.6037,-209.4231 581.8298,-188.1382 631.9575,-173.9548"/>
<polygon fill="none" stroke="#000000" points="460.8366,-218.7353 452.1673,-224.8257 462.7425,-225.4708 460.8366,-218.7353"/>
</g>
<!-- ExpenseCreatedEvent -->
<g id="node3" class="node">
<title>ExpenseCreatedEvent</title>
<polygon fill="#f2f2f2" stroke="#000000" points="0,-68.5 0,-104.5 156.0889,-104.5 156.0889,-68.5 0,-68.5"/>
<text text-anchor="middle" x="78.0444" y="-82.3" font-family="Helvetica,sans-Serif" font-size="14.00" fill="#000000">ExpenseCreatedEvent</text>
</g>
<!-- ExpenseEvent&#45;&gt;ExpenseCreatedEvent -->
<g id="edge2" class="edge">
<title>ExpenseEvent&#45;&gt;ExpenseCreatedEvent</title>
<path fill="none" stroke="#000000" d="M275.8548,-141.8263C235.4367,-130.5216 183.1575,-115.8994 142.4959,-104.5266"/>
<polygon fill="none" stroke="#000000" points="275.0242,-145.2282 285.5974,-144.5512 276.9097,-138.4869 275.0242,-145.2282"/>
</g>
<!-- ExpenseDeletedEvent -->
<g id="node4" class="node">
<title>ExpenseDeletedEvent</title>
<polygon fill="#f2f2f2" stroke="#000000" points="173.7759,-68.5 173.7759,-104.5 328.313,-104.5 328.313,-68.5 173.7759,-68.5"/>
<text text-anchor="middle" x="251.0444" y="-82.3" font-family="Helvetica,sans-Serif" font-size="14.00" fill="#000000">ExpenseDeletedEvent</text>
</g>
<!-- ExpenseEvent&#45;&gt;ExpenseDeletedEvent -->
<g id="edge3" class="edge">
<title>ExpenseEvent&#45;&gt;ExpenseDeletedEvent</title>
<path fill="none" stroke="#000000" d="M309.3241,-134.8457C297.3797,-124.9372 283.8605,-113.7224 272.852,-104.5904"/>
<polygon fill="none" stroke="#000000" points="307.3604,-137.7642 317.2916,-141.4551 311.8297,-132.3766 307.3604,-137.7642"/>
</g>
<!-- ExpenseUpdatedEvent -->
<g id="node5" class="node">
<title>ExpenseUpdatedEvent</title>
<polygon fill="#f2f2f2" stroke="#000000" points="346.438,-68.5 346.438,-104.5 505.6509,-104.5 505.6509,-68.5 346.438,-68.5"/>
<text text-anchor="middle" x="426.0444" y="-82.3" font-family="Helvetica,sans-Serif" font-size="14.00" fill="#000000">ExpenseUpdatedEvent</text>
</g>
<!-- ExpenseEvent&#45;&gt;ExpenseUpdatedEvent -->
<g id="edge4" class="edge">
<title>ExpenseEvent&#45;&gt;ExpenseUpdatedEvent</title>
<path fill="none" stroke="#000000" d="M368.427,-134.8457C380.2357,-124.9372 393.6013,-113.7224 404.4847,-104.5904"/>
<polygon fill="none" stroke="#000000" points="365.9609,-132.346 360.5501,-141.4551 370.4603,-137.7084 365.9609,-132.346"/>
</g>
<!-- PositionCreatedEvent -->
<g id="node7" class="node">
<title>PositionCreatedEvent</title>
<polygon fill="#f2f2f2" stroke="#000000" points="523.3379,-68.5 523.3379,-104.5 674.751,-104.5 674.751,-68.5 523.3379,-68.5"/>
<text text-anchor="middle" x="599.0444" y="-82.3" font-family="Helvetica,sans-Serif" font-size="14.00" fill="#000000">PositionCreatedEvent</text>
</g>
<!-- PositionEvent&#45;&gt;PositionCreatedEvent -->
<g id="edge6" class="edge">
<title>PositionEvent&#45;&gt;PositionCreatedEvent</title>
<path fill="none" stroke="#000000" d="M654.6751,-134.8457C643.2735,-124.9372 630.3688,-113.7224 619.8607,-104.5904"/>
<polygon fill="none" stroke="#000000" points="652.4365,-137.5373 662.2804,-141.4551 657.0282,-132.2537 652.4365,-137.5373"/>
</g>
<!-- PositionDeletedEvent -->
<g id="node8" class="node">
<title>PositionDeletedEvent</title>
<polygon fill="#f2f2f2" stroke="#000000" points="693.1138,-68.5 693.1138,-104.5 842.9751,-104.5 842.9751,-68.5 693.1138,-68.5"/>
<text text-anchor="middle" x="768.0444" y="-82.3" font-family="Helvetica,sans-Serif" font-size="14.00" fill="#000000">PositionDeletedEvent</text>
</g>
<!-- PositionEvent&#45;&gt;PositionDeletedEvent -->
<g id="edge7" class="edge">
<title>PositionEvent&#45;&gt;PositionDeletedEvent</title>
<path fill="none" stroke="#000000" d="M711.7515,-134.8457C723.2888,-124.9372 736.3471,-113.7224 746.9803,-104.5904"/>
<polygon fill="none" stroke="#000000" points="709.3616,-132.2846 704.0557,-141.4551 713.9223,-137.595 709.3616,-132.2846"/>
</g>
<!-- PositionUpdatedEvent -->
<g id="node9" class="node">
<title>PositionUpdatedEvent</title>
<polygon fill="#f2f2f2" stroke="#000000" points="860.7759,-68.5 860.7759,-104.5 1015.313,-104.5 1015.313,-68.5 860.7759,-68.5"/>
<text text-anchor="middle" x="938.0444" y="-82.3" font-family="Helvetica,sans-Serif" font-size="14.00" fill="#000000">PositionUpdatedEvent</text>
</g>
<!-- PositionEvent&#45;&gt;PositionUpdatedEvent -->
<g id="edge8" class="edge">
<title>PositionEvent&#45;&gt;PositionUpdatedEvent</title>
<path fill="none" stroke="#000000" d="M743.8244,-142.1002C783.3989,-130.7711 834.913,-116.0239 874.9429,-104.5644"/>
<polygon fill="none" stroke="#000000" points="742.6851,-138.7857 734.0346,-144.9028 744.6117,-145.5154 742.6851,-138.7857"/>
</g>
</g>
</svg>
