<?xml version="1.0" encoding="UTF-8" standalone="no"?>
<!DOCTYPE svg PUBLIC "-//W3C//DTD SVG 1.1//EN"
 "http://www.w3.org/Graphics/SVG/1.1/DTD/svg11.dtd">
<!-- Generated by graphviz version 2.38.0 (20140413.2041)
 -->
<!-- Title: hierarchy Pages: 1 -->
<svg width="493pt" height="261pt"
 viewBox="0.00 0.00 492.50 261.00" xmlns="http://www.w3.org/2000/svg" xmlns:xlink="http://www.w3.org/1999/xlink">
<g id="graph0" class="graph" transform="scale(1 1) rotate(0) translate(4 257)">
<title>hierarchy</title>
<polygon fill="white" stroke="none" points="-4,4 -4,-257 488.5,-257 488.5,4 -4,4"/>
<text text-anchor="middle" x="242.25" y="-38.8" font-family="Helvetica,sans-Serif" font-size="14.00">Portfolio</text>
<text text-anchor="middle" x="242.25" y="-7.8" font-family="Helvetica,sans-Serif" font-size="14.00">package: com.tempoplugin.budget.event.api</text>
<!-- Event -->
<g id="node1" class="node"><title>Event</title>
<polygon fill="#f2f2f2" stroke="black" points="213.5,-216.5 213.5,-252.5 267.5,-252.5 267.5,-216.5 213.5,-216.5"/>
<text text-anchor="middle" x="240.5" y="-230.8" font-family="Helvetica,sans-Serif" font-size="14.00">Event</text>
</g>
<!-- PortfolioEvent -->
<g id="node2" class="node"><title>PortfolioEvent</title>
<polygon fill="#f2f2f2" stroke="black" points="190,-143.5 190,-179.5 291,-179.5 291,-143.5 190,-143.5"/>
<text text-anchor="middle" x="240.5" y="-157.8" font-family="Helvetica,sans-Serif" font-size="14.00">PortfolioEvent</text>
</g>
<!-- Event&#45;&gt;PortfolioEvent -->
<g id="edge1" class="edge"><title>Event&#45;&gt;PortfolioEvent</title>
<path fill="none" stroke="black" d="M240.5,-206.253C240.5,-197.265 240.5,-187.529 240.5,-179.529"/>
<polygon fill="none" stroke="black" points="237,-206.313 240.5,-216.313 244,-206.313 237,-206.313"/>
</g>
<!-- PortfolioCreatedEvent -->
<g id="node3" class="node"><title>PortfolioCreatedEvent</title>
<polygon fill="#f2f2f2" stroke="black" points="0,-70.5 0,-106.5 149,-106.5 149,-70.5 0,-70.5"/>
<text text-anchor="middle" x="74.5" y="-84.8" font-family="Helvetica,sans-Serif" font-size="14.00">PortfolioCreatedEvent</text>
</g>
<!-- PortfolioEvent&#45;&gt;PortfolioCreatedEvent -->
<g id="edge2" class="edge"><title>PortfolioEvent&#45;&gt;PortfolioCreatedEvent</title>
<path fill="none" stroke="black" d="M191.266,-139.442C166.789,-128.973 137.589,-116.484 114.512,-106.614"/>
<polygon fill="none" stroke="black" points="190.168,-142.779 200.739,-143.494 192.921,-136.343 190.168,-142.779"/>
</g>
<!-- PortfolioDeletedEvent -->
<g id="node4" class="node"><title>PortfolioDeletedEvent</title>
<polygon fill="#f2f2f2" stroke="black" points="167,-70.5 167,-106.5 314,-106.5 314,-70.5 167,-70.5"/>
<text text-anchor="middle" x="240.5" y="-84.8" font-family="Helvetica,sans-Serif" font-size="14.00">PortfolioDeletedEvent</text>
</g>
<!-- PortfolioEvent&#45;&gt;PortfolioDeletedEvent -->
<g id="edge3" class="edge"><title>PortfolioEvent&#45;&gt;PortfolioDeletedEvent</title>
<path fill="none" stroke="black" d="M240.5,-133.253C240.5,-124.265 240.5,-114.529 240.5,-106.529"/>
<polygon fill="none" stroke="black" points="237,-133.313 240.5,-143.313 244,-133.313 237,-133.313"/>
</g>
<!-- PortfolioUpdatedEvent -->
<g id="node5" class="node"><title>PortfolioUpdatedEvent</title>
<polygon fill="#f2f2f2" stroke="black" points="332.5,-70.5 332.5,-106.5 484.5,-106.5 484.5,-70.5 332.5,-70.5"/>
<text text-anchor="middle" x="408.5" y="-84.8" font-family="Helvetica,sans-Serif" font-size="14.00">PortfolioUpdatedEvent</text>
</g>
<!-- PortfolioEvent&#45;&gt;PortfolioUpdatedEvent -->
<g id="edge4" class="edge"><title>PortfolioEvent&#45;&gt;PortfolioUpdatedEvent</title>
<path fill="none" stroke="black" d="M289.998,-139.581C314.837,-129.084 344.548,-116.527 368.006,-106.614"/>
<polygon fill="none" stroke="black" points="288.589,-136.377 280.74,-143.494 291.314,-142.825 288.589,-136.377"/>
</g>
</g>
</svg>
