<?xml version="1.0" encoding="UTF-8" standalone="no"?>
<!DOCTYPE svg PUBLIC "-//W3C//DTD SVG 1.1//EN"
 "http://www.w3.org/Graphics/SVG/1.1/DTD/svg11.dtd">
<!-- Generated by graphviz version 2.38.0 (20140413.2041)
 -->
<!-- Title: hierarchy Pages: 1 -->
<svg width="721pt" height="261pt"
 viewBox="0.00 0.00 721.00 261.00" xmlns="http://www.w3.org/2000/svg" xmlns:xlink="http://www.w3.org/1999/xlink">
<g id="graph0" class="graph" transform="scale(1 1) rotate(0) translate(4 257)">
<title>hierarchy</title>
<polygon fill="white" stroke="none" points="-4,4 -4,-257 717,-257 717,4 -4,4"/>
<text text-anchor="middle" x="356.5" y="-38.8" font-family="Helvetica,sans-Serif" font-size="14.00">Account</text>
<text text-anchor="middle" x="356.5" y="-7.8" font-family="Helvetica,sans-Serif" font-size="14.00">package: com.tempoplugin.accounts.event.api</text>
<!-- Event -->
<g id="node1" class="node"><title>Event</title>
<polygon fill="#f2f2f2" stroke="black" points="302.5,-216.5 302.5,-252.5 356.5,-252.5 356.5,-216.5 302.5,-216.5"/>
<text text-anchor="middle" x="329.5" y="-230.8" font-family="Helvetica,sans-Serif" font-size="14.00">Event</text>
</g>
<!-- AccountEvent -->
<g id="node2" class="node"><title>AccountEvent</title>
<polygon fill="#f2f2f2" stroke="black" points="279.5,-143.5 279.5,-179.5 379.5,-179.5 379.5,-143.5 279.5,-143.5"/>
<text text-anchor="middle" x="329.5" y="-157.8" font-family="Helvetica,sans-Serif" font-size="14.00">AccountEvent</text>
</g>
<!-- Event&#45;&gt;AccountEvent -->
<g id="edge1" class="edge"><title>Event&#45;&gt;AccountEvent</title>
<path fill="none" stroke="black" d="M329.5,-206.253C329.5,-197.265 329.5,-187.529 329.5,-179.529"/>
<polygon fill="none" stroke="black" points="326,-206.313 329.5,-216.313 333,-206.313 326,-206.313"/>
</g>
<!-- AccountChangedEvent -->
<g id="node3" class="node"><title>AccountChangedEvent</title>
<polygon fill="#f2f2f2" stroke="black" points="0,-70.5 0,-106.5 155,-106.5 155,-70.5 0,-70.5"/>
<text text-anchor="middle" x="77.5" y="-84.8" font-family="Helvetica,sans-Serif" font-size="14.00">AccountChangedEvent</text>
</g>
<!-- AccountEvent&#45;&gt;AccountChangedEvent -->
<g id="edge2" class="edge"><title>AccountEvent&#45;&gt;AccountChangedEvent</title>
<path fill="none" stroke="black" d="M269.599,-143.623C229.908,-132.44 178.011,-117.819 138.165,-106.592"/>
<polygon fill="none" stroke="black" points="268.837,-147.045 279.412,-146.388 270.736,-140.307 268.837,-147.045"/>
</g>
<!-- AccountCreatedEvent -->
<g id="node4" class="node"><title>AccountCreatedEvent</title>
<polygon fill="#f2f2f2" stroke="black" points="173.5,-70.5 173.5,-106.5 321.5,-106.5 321.5,-70.5 173.5,-70.5"/>
<text text-anchor="middle" x="247.5" y="-84.8" font-family="Helvetica,sans-Serif" font-size="14.00">AccountCreatedEvent</text>
</g>
<!-- AccountEvent&#45;&gt;AccountCreatedEvent -->
<g id="edge3" class="edge"><title>AccountEvent&#45;&gt;AccountCreatedEvent</title>
<path fill="none" stroke="black" d="M302.044,-136.727C290.619,-126.834 277.613,-115.573 267.167,-106.529"/>
<polygon fill="none" stroke="black" points="299.799,-139.413 309.65,-143.313 304.381,-134.121 299.799,-139.413"/>
</g>
<!-- AccountDeletedEvent -->
<g id="node5" class="node"><title>AccountDeletedEvent</title>
<polygon fill="#f2f2f2" stroke="black" points="339.5,-70.5 339.5,-106.5 485.5,-106.5 485.5,-70.5 339.5,-70.5"/>
<text text-anchor="middle" x="412.5" y="-84.8" font-family="Helvetica,sans-Serif" font-size="14.00">AccountDeletedEvent</text>
</g>
<!-- AccountEvent&#45;&gt;AccountDeletedEvent -->
<g id="edge4" class="edge"><title>AccountEvent&#45;&gt;AccountDeletedEvent</title>
<path fill="none" stroke="black" d="M357.291,-136.727C368.856,-126.834 382.02,-115.573 392.593,-106.529"/>
<polygon fill="none" stroke="black" points="354.916,-134.153 349.592,-143.313 359.466,-139.472 354.916,-134.153"/>
</g>
<!-- AccountCategoryChangedEvent -->
<g id="node6" class="node"><title>AccountCategoryChangedEvent</title>
<polygon fill="#f2f2f2" stroke="black" points="504,-70.5 504,-106.5 713,-106.5 713,-70.5 504,-70.5"/>
<text text-anchor="middle" x="608.5" y="-84.8" font-family="Helvetica,sans-Serif" font-size="14.00">AccountCategoryChangedEvent</text>
</g>
<!-- AccountEvent&#45;&gt;AccountCategoryChangedEvent -->
<g id="edge5" class="edge"><title>AccountEvent&#45;&gt;AccountCategoryChangedEvent</title>
<path fill="none" stroke="black" d="M389.557,-145.217C434.287,-133.834 495.362,-118.291 541.643,-106.514"/>
<polygon fill="none" stroke="black" points="388.53,-141.866 379.702,-147.725 390.256,-148.65 388.53,-141.866"/>
</g>
</g>
</svg>
