<?xml version="1.0" encoding="UTF-8" standalone="no"?>
<!DOCTYPE svg PUBLIC "-//W3C//DTD SVG 1.1//EN"
 "http://www.w3.org/Graphics/SVG/1.1/DTD/svg11.dtd">
<!-- Generated by graphviz version 2.38.0 (20140413.2041)
 -->
<!-- Title: hierarchy Pages: 1 -->
<svg width="999pt" height="334pt"
 viewBox="0.00 0.00 999.00 334.00" xmlns="http://www.w3.org/2000/svg" xmlns:xlink="http://www.w3.org/1999/xlink">
<g id="graph0" class="graph" transform="scale(1 1) rotate(0) translate(4 330)">
<title>hierarchy</title>
<polygon fill="white" stroke="none" points="-4,4 -4,-330 995,-330 995,4 -4,4"/>
<text text-anchor="middle" x="495.5" y="-38.8" font-family="Helvetica,sans-Serif" font-size="14.00">Expenditure</text>
<text text-anchor="middle" x="495.5" y="-7.8" font-family="Helvetica,sans-Serif" font-size="14.00">package: com.tempoplugin.folio.service.api.events</text>
<!-- Event -->
<g id="node1" class="node"><title>Event</title>
<polygon fill="#f2f2f2" stroke="black" points="473,-289.5 473,-325.5 527,-325.5 527,-289.5 473,-289.5"/>
<text text-anchor="middle" x="500" y="-303.8" font-family="Helvetica,sans-Serif" font-size="14.00">Event</text>
</g>
<!-- ExpenditureEvent -->
<g id="node2" class="node"><title>ExpenditureEvent</title>
<polygon fill="#f2f2f2" stroke="black" points="438.5,-216.5 438.5,-252.5 561.5,-252.5 561.5,-216.5 438.5,-216.5"/>
<text text-anchor="middle" x="500" y="-230.8" font-family="Helvetica,sans-Serif" font-size="14.00">ExpenditureEvent</text>
</g>
<!-- Event&#45;&gt;ExpenditureEvent -->
<g id="edge1" class="edge"><title>Event&#45;&gt;ExpenditureEvent</title>
<path fill="none" stroke="black" d="M500,-279.253C500,-270.265 500,-260.529 500,-252.529"/>
<polygon fill="none" stroke="black" points="496.5,-279.313 500,-289.313 503.5,-279.313 496.5,-279.313"/>
</g>
<!-- ExpenseEvent -->
<g id="node3" class="node"><title>ExpenseEvent</title>
<polygon fill="#f2f2f2" stroke="black" points="278,-143.5 278,-179.5 382,-179.5 382,-143.5 278,-143.5"/>
<text text-anchor="middle" x="330" y="-157.8" font-family="Helvetica,sans-Serif" font-size="14.00">ExpenseEvent</text>
</g>
<!-- ExpenditureEvent&#45;&gt;ExpenseEvent -->
<g id="edge2" class="edge"><title>ExpenditureEvent&#45;&gt;ExpenseEvent</title>
<path fill="none" stroke="black" d="M449.912,-212.581C424.778,-202.084 394.714,-189.527 370.976,-179.614"/>
<polygon fill="none" stroke="black" points="448.704,-215.869 459.281,-216.494 451.402,-209.41 448.704,-215.869"/>
</g>
<!-- PositionEvent -->
<g id="node7" class="node"><title>PositionEvent</title>
<polygon fill="#f2f2f2" stroke="black" points="617.5,-143.5 617.5,-179.5 716.5,-179.5 716.5,-143.5 617.5,-143.5"/>
<text text-anchor="middle" x="667" y="-157.8" font-family="Helvetica,sans-Serif" font-size="14.00">PositionEvent</text>
</g>
<!-- ExpenditureEvent&#45;&gt;PositionEvent -->
<g id="edge6" class="edge"><title>ExpenditureEvent&#45;&gt;PositionEvent</title>
<path fill="none" stroke="black" d="M549.204,-212.581C573.895,-202.084 603.428,-189.527 626.747,-179.614"/>
<polygon fill="none" stroke="black" points="547.834,-209.36 540.001,-216.494 550.573,-215.802 547.834,-209.36"/>
</g>
<!-- ExpenseCreatedEvent -->
<g id="node4" class="node"><title>ExpenseCreatedEvent</title>
<polygon fill="#f2f2f2" stroke="black" points="0,-70.5 0,-106.5 152,-106.5 152,-70.5 0,-70.5"/>
<text text-anchor="middle" x="76" y="-84.8" font-family="Helvetica,sans-Serif" font-size="14.00">ExpenseCreatedEvent</text>
</g>
<!-- ExpenseEvent&#45;&gt;ExpenseCreatedEvent -->
<g id="edge3" class="edge"><title>ExpenseEvent&#45;&gt;ExpenseCreatedEvent</title>
<path fill="none" stroke="black" d="M268.112,-143.2C228.218,-132.049 176.576,-117.614 136.882,-106.518"/>
<polygon fill="none" stroke="black" points="267.413,-146.639 277.986,-145.961 269.298,-139.898 267.413,-146.639"/>
</g>
<!-- ExpenseDeletedEvent -->
<g id="node5" class="node"><title>ExpenseDeletedEvent</title>
<polygon fill="#f2f2f2" stroke="black" points="170,-70.5 170,-106.5 320,-106.5 320,-70.5 170,-70.5"/>
<text text-anchor="middle" x="245" y="-84.8" font-family="Helvetica,sans-Serif" font-size="14.00">ExpenseDeletedEvent</text>
</g>
<!-- ExpenseEvent&#45;&gt;ExpenseDeletedEvent -->
<g id="edge4" class="edge"><title>ExpenseEvent&#45;&gt;ExpenseDeletedEvent</title>
<path fill="none" stroke="black" d="M301.539,-136.727C289.696,-126.834 276.214,-115.573 265.387,-106.529"/>
<polygon fill="none" stroke="black" points="299.505,-139.588 309.424,-143.313 303.993,-134.216 299.505,-139.588"/>
</g>
<!-- ExpenseUpdatedEvent -->
<g id="node6" class="node"><title>ExpenseUpdatedEvent</title>
<polygon fill="#f2f2f2" stroke="black" points="338.5,-70.5 338.5,-106.5 493.5,-106.5 493.5,-70.5 338.5,-70.5"/>
<text text-anchor="middle" x="416" y="-84.8" font-family="Helvetica,sans-Serif" font-size="14.00">ExpenseUpdatedEvent</text>
</g>
<!-- ExpenseEvent&#45;&gt;ExpenseUpdatedEvent -->
<g id="edge5" class="edge"><title>ExpenseEvent&#45;&gt;ExpenseUpdatedEvent</title>
<path fill="none" stroke="black" d="M358.796,-136.727C370.778,-126.834 384.419,-115.573 395.374,-106.529"/>
<polygon fill="none" stroke="black" points="356.301,-134.247 350.818,-143.313 360.758,-139.645 356.301,-134.247"/>
</g>
<!-- PositionCreatedEvent -->
<g id="node8" class="node"><title>PositionCreatedEvent</title>
<polygon fill="#f2f2f2" stroke="black" points="511.5,-70.5 511.5,-106.5 658.5,-106.5 658.5,-70.5 511.5,-70.5"/>
<text text-anchor="middle" x="585" y="-84.8" font-family="Helvetica,sans-Serif" font-size="14.00">PositionCreatedEvent</text>
</g>
<!-- PositionEvent&#45;&gt;PositionCreatedEvent -->
<g id="edge7" class="edge"><title>PositionEvent&#45;&gt;PositionCreatedEvent</title>
<path fill="none" stroke="black" d="M639.544,-136.727C628.119,-126.834 615.113,-115.573 604.667,-106.529"/>
<polygon fill="none" stroke="black" points="637.299,-139.413 647.15,-143.313 641.881,-134.121 637.299,-139.413"/>
</g>
<!-- PositionDeletedEvent -->
<g id="node9" class="node"><title>PositionDeletedEvent</title>
<polygon fill="#f2f2f2" stroke="black" points="677,-70.5 677,-106.5 823,-106.5 823,-70.5 677,-70.5"/>
<text text-anchor="middle" x="750" y="-84.8" font-family="Helvetica,sans-Serif" font-size="14.00">PositionDeletedEvent</text>
</g>
<!-- PositionEvent&#45;&gt;PositionDeletedEvent -->
<g id="edge8" class="edge"><title>PositionEvent&#45;&gt;PositionDeletedEvent</title>
<path fill="none" stroke="black" d="M694.791,-136.727C706.356,-126.834 719.52,-115.573 730.093,-106.529"/>
<polygon fill="none" stroke="black" points="692.416,-134.153 687.092,-143.313 696.966,-139.472 692.416,-134.153"/>
</g>
<!-- PositionUpdatedEvent -->
<g id="node10" class="node"><title>PositionUpdatedEvent</title>
<polygon fill="#f2f2f2" stroke="black" points="841,-70.5 841,-106.5 991,-106.5 991,-70.5 841,-70.5"/>
<text text-anchor="middle" x="916" y="-84.8" font-family="Helvetica,sans-Serif" font-size="14.00">PositionUpdatedEvent</text>
</g>
<!-- PositionEvent&#45;&gt;PositionUpdatedEvent -->
<g id="edge9" class="edge"><title>PositionEvent&#45;&gt;PositionUpdatedEvent</title>
<path fill="none" stroke="black" d="M726.491,-143.537C765.717,-132.352 816.91,-117.755 856.199,-106.552"/>
<polygon fill="none" stroke="black" points="725.447,-140.195 716.79,-146.303 727.367,-146.926 725.447,-140.195"/>
</g>
</g>
</svg>
