<?xml version="1.0" encoding="UTF-8" standalone="no"?>
<!DOCTYPE svg PUBLIC "-//W3C//DTD SVG 1.1//EN"
 "http://www.w3.org/Graphics/SVG/1.1/DTD/svg11.dtd">
<!-- Generated by graphviz version 2.40.1 (20161225.0304)
 -->
<!-- Title: hierarchy Pages: 1 -->
<svg width="476pt" height="2192pt"
     viewBox="0.00 0.00 475.64 2192.00" xmlns="http://www.w3.org/2000/svg">
<g id="graph0" class="graph" transform="scale(1 1) rotate(0) translate(4 2188)">
<title>hierarchy</title>
<polygon fill="#ffffff" stroke="transparent" points="-4,4 -4,-2188 471.6377,-2188 471.6377,4 -4,4"/>
<g id="clust1" class="cluster">
<title>cluster_core</title>
<polygon fill="none" stroke="#000000" points="82,-1990 82,-2176 459.6377,-2176 459.6377,-1990 82,-1990"/>
<text text-anchor="middle" x="270.8188" y="-2160.8" font-family="Helvetica,sans-Serif" font-size="14.00" fill="#000000">Core</text>
</g>
<g id="clust3" class="cluster">
<title>cluster_account</title>
<polygon fill="none" stroke="#000000" points="85.9355,-1370 85.9355,-1982 455.7021,-1982 455.7021,-1370 85.9355,-1370"/>
<text text-anchor="middle" x="270.8188" y="-1966.8" font-family="Helvetica,sans-Serif" font-size="14.00" fill="#000000">Accounts</text>
</g>
<g id="clust4" class="cluster">
<title>cluster_account</title>
<polygon fill="none" stroke="#000000" points="98.9839,-1766 98.9839,-1952 442.6538,-1952 442.6538,-1766 98.9839,-1766"/>
<text text-anchor="middle" x="270.8188" y="-1936.8" font-family="Helvetica,sans-Serif" font-size="14.00" fill="#000000">Account</text>
</g>
<g id="clust6" class="cluster">
<title>cluster_category</title>
<polygon fill="none" stroke="#000000" points="95.8735,-1572 95.8735,-1758 445.7642,-1758 445.7642,-1572 95.8735,-1572"/>
<text text-anchor="middle" x="270.8188" y="-1742.8" font-family="Helvetica,sans-Serif" font-size="14.00" fill="#000000">Category</text>
</g>
<g id="clust8" class="cluster">
<title>cluster_customer</title>
<polygon fill="none" stroke="#000000" points="93.9355,-1378 93.9355,-1564 447.7021,-1564 447.7021,-1378 93.9355,-1378"/>
<text text-anchor="middle" x="270.8188" y="-1548.8" font-family="Helvetica,sans-Serif" font-size="14.00" fill="#000000">Customer</text>
</g>
<g id="clust10" class="cluster">
<title>cluster_budget</title>
<polygon fill="none" stroke="#000000" points="89.0356,-556 89.0356,-1362 452.6021,-1362 452.6021,-556 89.0356,-556"/>
<text text-anchor="middle" x="270.8188" y="-1346.8" font-family="Helvetica,sans-Serif" font-size="14.00" fill="#000000">Budgets</text>
</g>
<g id="clust11" class="cluster">
<title>cluster_folio</title>
<polygon fill="none" stroke="#000000" points="109.1045,-1146 109.1045,-1332 432.5332,-1332 432.5332,-1146 109.1045,-1146"/>
<text text-anchor="middle" x="270.8188" y="-1316.8" font-family="Helvetica,sans-Serif" font-size="14.00" fill="#000000">Folio</text>
</g>
<g id="clust13" class="cluster">
<title>cluster_portfolio</title>
<polygon fill="none" stroke="#000000" points="98.5977,-952 98.5977,-1138 443.04,-1138 443.04,-952 98.5977,-952"/>
<text text-anchor="middle" x="270.8188" y="-1122.8" font-family="Helvetica,sans-Serif" font-size="14.00" fill="#000000">Portfolio</text>
</g>
<g id="clust15" class="cluster">
<title>cluster_expense</title>
<polygon fill="none" stroke="#000000" points="97.0356,-758 97.0356,-944 444.6021,-944 444.6021,-758 97.0356,-758"/>
<text text-anchor="middle" x="270.8188" y="-928.8" font-family="Helvetica,sans-Serif" font-size="14.00" fill="#000000">Expense</text>
</g>
<g id="clust17" class="cluster">
<title>cluster_position</title>
<polygon fill="none" stroke="#000000" points="99.3735,-564 99.3735,-750 442.2642,-750 442.2642,-564 99.3735,-564"/>
<text text-anchor="middle" x="270.8188" y="-734.8" font-family="Helvetica,sans-Serif" font-size="14.00" fill="#000000">Position</text>
</g>
<g id="clust19" class="cluster">
<title>cluster_planner</title>
<polygon fill="none" stroke="#000000" points="85.9253,-324 85.9253,-548 455.7124,-548 455.7124,-324 85.9253,-324"/>
<text text-anchor="middle" x="270.8188" y="-532.8" font-family="Helvetica,sans-Serif" font-size="14.00" fill="#000000">Planner</text>
</g>
<g id="clust20" class="cluster">
<title>cluster_allocation</title>
<polygon fill="none" stroke="#000000" points="93.9253,-332 93.9253,-518 447.7124,-518 447.7124,-332 93.9253,-332"/>
<text text-anchor="middle" x="270.8188" y="-502.8" font-family="Helvetica,sans-Serif" font-size="14.00" fill="#000000">Allocation</text>
</g>
<g id="clust22" class="cluster">
<title>cluster_teams</title>
<polygon fill="none" stroke="#000000" points="99.1597,-92 99.1597,-316 442.478,-316 442.478,-92 99.1597,-92"/>
<text text-anchor="middle" x="270.8188" y="-300.8" font-family="Helvetica,sans-Serif" font-size="14.00" fill="#000000">Teams</text>
</g>
<g id="clust23" class="cluster">
<title>cluster_team</title>
<polygon fill="none" stroke="#000000" points="107.1597,-100 107.1597,-286 434.478,-286 434.478,-100 107.1597,-100"/>
<text text-anchor="middle" x="270.8188" y="-270.8" font-family="Helvetica,sans-Serif" font-size="14.00" fill="#000000">Team</text>
</g>
<g id="clust25" class="cluster">
<title>cluster_timesheets</title>
<polygon fill="none" stroke="#000000" points="96.6494,-8 96.6494,-84 443.4263,-84 443.4263,-8 96.6494,-8"/>
<text text-anchor="middle" x="270.0378" y="-68.8" font-family="Helvetica,sans-Serif" font-size="14.00" fill="#000000">Timesheets</text>
</g>
<!-- Event -->
<g id="node1" class="node">
<title>Event</title>
<polygon fill="#f2f2f2" stroke="#000000" points="0,-1016 0,-1052 54,-1052 54,-1016 0,-1016"/>
<text text-anchor="middle" x="27" y="-1029.8" font-family="Helvetica,sans-Serif" font-size="14.00" fill="#000000">Event</text>
</g>
<!-- WorkAttributeEvent -->
<g id="node2" class="node">
<title>WorkAttributeEvent</title>
<polygon fill="#f2f2f2" stroke="#000000" points="90,-2026 90,-2062 226.3535,-2062 226.3535,-2026 90,-2026"/>
<text text-anchor="middle" x="158.1768" y="-2039.8" font-family="Helvetica,sans-Serif" font-size="14.00" fill="#000000">WorkAttributeEvent</text>
</g>
<!-- Event&#45;&gt;WorkAttributeEvent -->
<g id="edge1" class="edge">
<title>Event&#45;&gt;WorkAttributeEvent</title>
<path fill="none" stroke="#000000" d="M27.6117,-1062.459C30.8986,-1208.6383 47.6072,-1871.5013 82,-1956 93.5028,-1984.261 117.939,-2009.7994 136.0492,-2025.9946"/>
<polygon fill="none" stroke="#000000" points="31.1031,-1062.0254 27.3821,-1052.1055 24.1048,-1062.1807 31.1031,-1062.0254"/>
</g>
<!-- AccountEvent -->
<g id="node3" class="node">
<title>AccountEvent</title>
<polygon fill="#f2f2f2" stroke="#000000" points="106.9839,-1802 106.9839,-1838 209.3696,-1838 209.3696,-1802 106.9839,-1802"/>
<text text-anchor="middle" x="158.1768" y="-1815.8" font-family="Helvetica,sans-Serif" font-size="14.00" fill="#000000">AccountEvent</text>
</g>
<!-- Event&#45;&gt;AccountEvent -->
<g id="edge2" class="edge">
<title>Event&#45;&gt;AccountEvent</title>
<path fill="none" stroke="#000000" d="M27.7762,-1062.405C31.4229,-1189.16 48.1165,-1699.6402 82,-1762 91.1263,-1778.7963 107.4255,-1792.2064 122.6115,-1801.8832"/>
<polygon fill="none" stroke="#000000" points="31.2723,-1062.2172 27.4904,-1052.3204 24.2751,-1062.4155 31.2723,-1062.2172"/>
</g>
<!-- CategoryEvent -->
<g id="node4" class="node">
<title>CategoryEvent</title>
<polygon fill="#f2f2f2" stroke="#000000" points="103.8735,-1608 103.8735,-1644 212.48,-1644 212.48,-1608 103.8735,-1608"/>
<text text-anchor="middle" x="158.1768" y="-1621.8" font-family="Helvetica,sans-Serif" font-size="14.00" fill="#000000">CategoryEvent</text>
</g>
<!-- Event&#45;&gt;CategoryEvent -->
<g id="edge3" class="edge">
<title>Event&#45;&gt;CategoryEvent</title>
<path fill="none" stroke="#000000" d="M28.5897,-1062.1362C34.631,-1165.9246 57.0855,-1523.5987 82,-1568 91.3541,-1584.6705 107.6764,-1598.0678 122.8188,-1607.7687"/>
<polygon fill="none" stroke="#000000" points="32.0807,-1061.8781 28.0106,-1052.0963 25.0923,-1062.2812 32.0807,-1061.8781"/>
</g>
<!-- CustomerEvent -->
<g id="node5" class="node">
<title>CustomerEvent</title>
<polygon fill="#f2f2f2" stroke="#000000" points="101.9355,-1414 101.9355,-1450 214.418,-1450 214.418,-1414 101.9355,-1414"/>
<text text-anchor="middle" x="158.1768" y="-1427.8" font-family="Helvetica,sans-Serif" font-size="14.00" fill="#000000">CustomerEvent</text>
</g>
<!-- Event&#45;&gt;CustomerEvent -->
<g id="edge4" class="edge">
<title>Event&#45;&gt;CustomerEvent</title>
<path fill="none" stroke="#000000" d="M30.3715,-1062.3243C38.4328,-1127.6528 59.8096,-1287.0291 82,-1336 95.787,-1366.4259 121.3145,-1395.6394 138.9966,-1413.6841"/>
<polygon fill="none" stroke="#000000" points="33.8368,-1061.8258 29.1512,-1052.3234 26.8883,-1062.6738 33.8368,-1061.8258"/>
</g>
<!-- FolioEvent -->
<g id="node6" class="node">
<title>FolioEvent</title>
<polygon fill="#f2f2f2" stroke="#000000" points="117.1045,-1182 117.1045,-1218 199.249,-1218 199.249,-1182 117.1045,-1182"/>
<text text-anchor="middle" x="158.1768" y="-1195.8" font-family="Helvetica,sans-Serif" font-size="14.00" fill="#000000">FolioEvent</text>
</g>
<!-- Event&#45;&gt;FolioEvent -->
<g id="edge5" class="edge">
<title>Event&#45;&gt;FolioEvent</title>
<path fill="none" stroke="#000000" d="M37.1094,-1061.8319C46.4038,-1084.9307 61.7983,-1117.7973 82,-1142 94.9948,-1157.5685 112.9046,-1171.4707 128.0935,-1181.7591"/>
<polygon fill="none" stroke="#000000" points="40.2792,-1060.3263 33.3881,-1052.2787 33.7565,-1062.8671 40.2792,-1060.3263"/>
</g>
<!-- PortfolioEvent -->
<g id="node7" class="node">
<title>PortfolioEvent</title>
<polygon fill="#f2f2f2" stroke="#000000" points="106.5977,-1016 106.5977,-1052 209.7559,-1052 209.7559,-1016 106.5977,-1016"/>
<text text-anchor="middle" x="158.1768" y="-1029.8" font-family="Helvetica,sans-Serif" font-size="14.00" fill="#000000">PortfolioEvent</text>
</g>
<!-- Event&#45;&gt;PortfolioEvent -->
<g id="edge6" class="edge">
<title>Event&#45;&gt;PortfolioEvent</title>
<path fill="none" stroke="#000000" d="M64.2311,-1034C77.3292,-1034 92.2959,-1034 106.3749,-1034"/>
<polygon fill="none" stroke="#000000" points="64.1799,-1030.5001 54.1799,-1034 64.1799,-1037.5001 64.1799,-1030.5001"/>
</g>
<!-- ExpenseEvent -->
<g id="node8" class="node">
<title>ExpenseEvent</title>
<polygon fill="#f2f2f2" stroke="#000000" points="105.0356,-849 105.0356,-885 211.3179,-885 211.3179,-849 105.0356,-849"/>
<text text-anchor="middle" x="158.1768" y="-862.8" font-family="Helvetica,sans-Serif" font-size="14.00" fill="#000000">ExpenseEvent</text>
</g>
<!-- Event&#45;&gt;ExpenseEvent -->
<g id="edge7" class="edge">
<title>Event&#45;&gt;ExpenseEvent</title>
<path fill="none" stroke="#000000" d="M42.5871,-1006.8462C52.986,-989.4718 67.3876,-966.756 82,-948 99.9147,-925.0052 123.1987,-900.9559 139.2852,-885.0964"/>
<polygon fill="none" stroke="#000000" points="39.3176,-1005.4997 37.2459,-1015.8901 45.3449,-1009.0595 39.3176,-1005.4997"/>
</g>
<!-- PositionEvent -->
<g id="node9" class="node">
<title>PositionEvent</title>
<polygon fill="#f2f2f2" stroke="#000000" points="107.3735,-655 107.3735,-691 208.98,-691 208.98,-655 107.3735,-655"/>
<text text-anchor="middle" x="158.1768" y="-668.8" font-family="Helvetica,sans-Serif" font-size="14.00" fill="#000000">PositionEvent</text>
</g>
<!-- Event&#45;&gt;PositionEvent -->
<g id="edge8" class="edge">
<title>Event&#45;&gt;PositionEvent</title>
<path fill="none" stroke="#000000" d="M30.5538,-1005.547C38.6311,-943.4793 59.4268,-797.9649 82,-754 94.8732,-728.9274 117.8399,-706.1074 135.2001,-691.1258"/>
<polygon fill="none" stroke="#000000" points="27.0415,-1005.4199 29.2388,-1015.7844 33.9844,-1006.3118 27.0415,-1005.4199"/>
</g>
<!-- AllocationEvent -->
<g id="node10" class="node">
<title>AllocationEvent</title>
<polygon fill="#f2f2f2" stroke="#000000" points="101.9253,-423 101.9253,-459 214.4282,-459 214.4282,-423 101.9253,-423"/>
<text text-anchor="middle" x="158.1768" y="-436.8" font-family="Helvetica,sans-Serif" font-size="14.00" fill="#000000">AllocationEvent</text>
</g>
<!-- Event&#45;&gt;AllocationEvent -->
<g id="edge9" class="edge">
<title>Event&#45;&gt;AllocationEvent</title>
<path fill="none" stroke="#000000" d="M28.5999,-1005.8476C33.911,-916.9579 52.3231,-643.2423 82,-560 95.9213,-520.9514 124.6605,-481.5982 142.5863,-459.3602"/>
<polygon fill="none" stroke="#000000" points="25.0973,-1005.79 28.0038,-1015.9783 32.0852,-1006.2012 25.0973,-1005.79"/>
</g>
<!-- TeamEvent -->
<g id="node11" class="node">
<title>TeamEvent</title>
<polygon fill="#f2f2f2" stroke="#000000" points="115.1597,-191 115.1597,-227 201.1938,-227 201.1938,-191 115.1597,-191"/>
<text text-anchor="middle" x="158.1768" y="-204.8" font-family="Helvetica,sans-Serif" font-size="14.00" fill="#000000">TeamEvent</text>
</g>
<!-- Event&#45;&gt;TeamEvent -->
<g id="edge10" class="edge">
<title>Event&#45;&gt;TeamEvent</title>
<path fill="none" stroke="#000000" d="M27.372,-1005.8041C29.1687,-890.7759 38.7347,-457.0089 82,-328 95.1814,-288.6955 124.1576,-249.4243 142.3299,-227.2715"/>
<polygon fill="none" stroke="#000000" points="23.8708,-1005.8689 27.2216,-1015.9199 30.87,-1005.9731 23.8708,-1005.8689"/>
</g>
<!-- ApprovalEvent -->
<g id="node12" class="node">
<title>ApprovalEvent</title>
<polygon fill="#f2f2f2" stroke="#000000" points="104.6494,-17 104.6494,-53 211.7041,-53 211.7041,-17 104.6494,-17"/>
<text text-anchor="middle" x="158.1768" y="-30.8" font-family="Helvetica,sans-Serif" font-size="14.00" fill="#000000">ApprovalEvent</text>
</g>
<!-- Event&#45;&gt;ApprovalEvent -->
<g id="edge11" class="edge">
<title>Event&#45;&gt;ApprovalEvent</title>
<path fill="none" stroke="#000000" d="M27.2967,-1005.8394C29.0296,-858.36 39.2958,-178.6157 82,-96 91.3358,-77.9388 108.6574,-63.4067 124.4267,-53.0636"/>
<polygon fill="none" stroke="#000000" points="23.7964,-1005.8545 27.1822,-1015.8937 30.7959,-1005.9342 23.7964,-1005.8545"/>
</g>
<!-- WorkAttributeCreatedEvent -->
<g id="node13" class="node">
<title>WorkAttributeCreatedEvent</title>
<polygon fill="#f2f2f2" stroke="#000000" points="263.9155,-1999 263.9155,-2035 450.0757,-2035 450.0757,-1999 263.9155,-1999"/>
<text text-anchor="middle" x="356.9956" y="-2012.8" font-family="Helvetica,sans-Serif" font-size="14.00" fill="#000000">WorkAttributeCreatedEvent</text>
</g>
<!-- WorkAttributeEvent&#45;&gt;WorkAttributeCreatedEvent -->
<g id="edge12" class="edge">
<title>WorkAttributeEvent&#45;&gt;WorkAttributeCreatedEvent</title>
<path fill="none" stroke="#000000" d="M236.5924,-2033.351C245.5479,-2032.1348 254.7416,-2030.8863 263.8646,-2029.6474"/>
<polygon fill="none" stroke="#000000" points="236.037,-2029.8942 226.5989,-2034.7081 236.979,-2036.8305 236.037,-2029.8942"/>
</g>
<!-- WorkAttributeDeletedEvent -->
<g id="node14" class="node">
<title>WorkAttributeDeletedEvent</title>
<polygon fill="#f2f2f2" stroke="#000000" points="264.6914,-2054 264.6914,-2090 449.2998,-2090 449.2998,-2054 264.6914,-2054"/>
<text text-anchor="middle" x="356.9956" y="-2067.8" font-family="Helvetica,sans-Serif" font-size="14.00" fill="#000000">WorkAttributeDeletedEvent</text>
</g>
<!-- WorkAttributeEvent&#45;&gt;WorkAttributeDeletedEvent -->
<g id="edge13" class="edge">
<title>WorkAttributeEvent&#45;&gt;WorkAttributeDeletedEvent</title>
<path fill="none" stroke="#000000" d="M236.7814,-2055.07C245.9077,-2056.3553 255.279,-2057.6751 264.5685,-2058.9833"/>
<polygon fill="none" stroke="#000000" points="236.9893,-2051.5649 226.5989,-2053.636 236.0131,-2058.4965 236.9893,-2051.5649"/>
</g>
<!-- WorkAttributeUpdatedEvent -->
<g id="node15" class="node">
<title>WorkAttributeUpdatedEvent</title>
<polygon fill="#f2f2f2" stroke="#000000" points="262.3535,-2109 262.3535,-2145 451.6377,-2145 451.6377,-2109 262.3535,-2109"/>
<text text-anchor="middle" x="356.9956" y="-2122.8" font-family="Helvetica,sans-Serif" font-size="14.00" fill="#000000">WorkAttributeUpdatedEvent</text>
</g>
<!-- WorkAttributeEvent&#45;&gt;WorkAttributeUpdatedEvent -->
<g id="edge14" class="edge">
<title>WorkAttributeEvent&#45;&gt;WorkAttributeUpdatedEvent</title>
<path fill="none" stroke="#000000" d="M196.6532,-2067.2557C215.9057,-2078.22 239.8513,-2090.8667 262.3535,-2100 270.2696,-2103.213 278.7037,-2106.2009 287.1516,-2108.929"/>
<polygon fill="none" stroke="#000000" points="198.294,-2064.1616 187.8835,-2062.1935 194.7945,-2070.2241 198.294,-2064.1616"/>
</g>
<!-- AccountCreatedEvent -->
<g id="node16" class="node">
<title>AccountCreatedEvent</title>
<polygon fill="#f2f2f2" stroke="#000000" points="280.8994,-1775 280.8994,-1811 433.0918,-1811 433.0918,-1775 280.8994,-1775"/>
<text text-anchor="middle" x="356.9956" y="-1788.8" font-family="Helvetica,sans-Serif" font-size="14.00" fill="#000000">AccountCreatedEvent</text>
</g>
<!-- AccountEvent&#45;&gt;AccountCreatedEvent -->
<g id="edge15" class="edge">
<title>AccountEvent&#45;&gt;AccountCreatedEvent</title>
<path fill="none" stroke="#000000" d="M219.31,-1811.698C238.7425,-1809.059 260.478,-1806.1073 280.8355,-1803.3427"/>
<polygon fill="none" stroke="#000000" points="218.8156,-1808.2329 209.3776,-1813.0468 219.7576,-1815.1692 218.8156,-1808.2329"/>
</g>
<!-- AccountDeletedEvent -->
<g id="node17" class="node">
<title>AccountDeletedEvent</title>
<polygon fill="#f2f2f2" stroke="#000000" points="281.6753,-1830 281.6753,-1866 432.3159,-1866 432.3159,-1830 281.6753,-1830"/>
<text text-anchor="middle" x="356.9956" y="-1843.8" font-family="Helvetica,sans-Serif" font-size="14.00" fill="#000000">AccountDeletedEvent</text>
</g>
<!-- AccountEvent&#45;&gt;AccountDeletedEvent -->
<g id="edge16" class="edge">
<title>AccountEvent&#45;&gt;AccountDeletedEvent</title>
<path fill="none" stroke="#000000" d="M219.4176,-1828.6247C239.0643,-1831.3915 261.0561,-1834.4887 281.5938,-1837.381"/>
<polygon fill="none" stroke="#000000" points="219.768,-1825.1395 209.3776,-1827.2107 218.7917,-1832.0711 219.768,-1825.1395"/>
</g>
<!-- AccountUpdatedEvent -->
<g id="node18" class="node">
<title>AccountUpdatedEvent</title>
<polygon fill="#f2f2f2" stroke="#000000" points="279.3374,-1885 279.3374,-1921 434.6538,-1921 434.6538,-1885 279.3374,-1885"/>
<text text-anchor="middle" x="356.9956" y="-1898.8" font-family="Helvetica,sans-Serif" font-size="14.00" fill="#000000">AccountUpdatedEvent</text>
</g>
<!-- AccountEvent&#45;&gt;AccountUpdatedEvent -->
<g id="edge17" class="edge">
<title>AccountEvent&#45;&gt;AccountUpdatedEvent</title>
<path fill="none" stroke="#000000" d="M196.6532,-1843.2557C215.9057,-1854.22 239.8513,-1866.8667 262.3535,-1876 270.2696,-1879.213 278.7037,-1882.2009 287.1516,-1884.929"/>
<polygon fill="none" stroke="#000000" points="198.294,-1840.1616 187.8835,-1838.1935 194.7945,-1846.2241 198.294,-1840.1616"/>
</g>
<!-- CategoryCreatedEvent -->
<g id="node19" class="node">
<title>CategoryCreatedEvent</title>
<polygon fill="#f2f2f2" stroke="#000000" points="277.7891,-1581 277.7891,-1617 436.2021,-1617 436.2021,-1581 277.7891,-1581"/>
<text text-anchor="middle" x="356.9956" y="-1594.8" font-family="Helvetica,sans-Serif" font-size="14.00" fill="#000000">CategoryCreatedEvent</text>
</g>
<!-- CategoryEvent&#45;&gt;CategoryCreatedEvent -->
<g id="edge18" class="edge">
<title>CategoryEvent&#45;&gt;CategoryCreatedEvent</title>
<path fill="none" stroke="#000000" d="M222.6405,-1617.2457C240.2164,-1614.8589 259.4622,-1612.2452 277.7565,-1609.7608"/>
<polygon fill="none" stroke="#000000" points="221.9429,-1613.8082 212.5049,-1618.6221 222.8849,-1620.7445 221.9429,-1613.8082"/>
</g>
<!-- CategoryDeletedEvent -->
<g id="node20" class="node">
<title>CategoryDeletedEvent</title>
<polygon fill="#f2f2f2" stroke="#000000" points="278.5649,-1636 278.5649,-1672 435.4263,-1672 435.4263,-1636 278.5649,-1636"/>
<text text-anchor="middle" x="356.9956" y="-1649.8" font-family="Helvetica,sans-Serif" font-size="14.00" fill="#000000">CategoryDeletedEvent</text>
</g>
<!-- CategoryEvent&#45;&gt;CategoryDeletedEvent -->
<g id="edge19" class="edge">
<title>CategoryEvent&#45;&gt;CategoryDeletedEvent</title>
<path fill="none" stroke="#000000" d="M222.7588,-1635.0952C240.5431,-1637.5998 260.0297,-1640.3441 278.5063,-1642.9462"/>
<polygon fill="none" stroke="#000000" points="222.8953,-1631.58 212.5049,-1633.6511 221.919,-1638.5116 222.8953,-1631.58"/>
</g>
<!-- CategoryUpdatedEvent -->
<g id="node21" class="node">
<title>CategoryUpdatedEvent</title>
<polygon fill="#f2f2f2" stroke="#000000" points="276.2271,-1691 276.2271,-1727 437.7642,-1727 437.7642,-1691 276.2271,-1691"/>
<text text-anchor="middle" x="356.9956" y="-1704.8" font-family="Helvetica,sans-Serif" font-size="14.00" fill="#000000">CategoryUpdatedEvent</text>
</g>
<!-- CategoryEvent&#45;&gt;CategoryUpdatedEvent -->
<g id="edge20" class="edge">
<title>CategoryEvent&#45;&gt;CategoryUpdatedEvent</title>
<path fill="none" stroke="#000000" d="M196.6532,-1649.2557C215.9057,-1660.22 239.8513,-1672.8667 262.3535,-1682 270.2696,-1685.213 278.7037,-1688.2009 287.1516,-1690.929"/>
<polygon fill="none" stroke="#000000" points="198.294,-1646.1616 187.8835,-1644.1935 194.7945,-1652.2241 198.294,-1646.1616"/>
</g>
<!-- CustomerCreatedEvent -->
<g id="node22" class="node">
<title>CustomerCreatedEvent</title>
<polygon fill="#f2f2f2" stroke="#000000" points="275.8511,-1387 275.8511,-1423 438.1401,-1423 438.1401,-1387 275.8511,-1387"/>
<text text-anchor="middle" x="356.9956" y="-1400.8" font-family="Helvetica,sans-Serif" font-size="14.00" fill="#000000">CustomerCreatedEvent</text>
</g>
<!-- CustomerEvent&#45;&gt;CustomerCreatedEvent -->
<g id="edge21" class="edge">
<title>CustomerEvent&#45;&gt;CustomerCreatedEvent</title>
<path fill="none" stroke="#000000" d="M224.5957,-1422.9802C240.9276,-1420.7623 258.5993,-1418.3624 275.5502,-1416.0604"/>
<polygon fill="none" stroke="#000000" points="224.0565,-1419.5212 214.6184,-1424.3351 224.9985,-1426.4575 224.0565,-1419.5212"/>
</g>
<!-- CustomerDeletedEvent -->
<g id="node23" class="node">
<title>CustomerDeletedEvent</title>
<polygon fill="#f2f2f2" stroke="#000000" points="276.627,-1442 276.627,-1478 437.3643,-1478 437.3643,-1442 276.627,-1442"/>
<text text-anchor="middle" x="356.9956" y="-1455.8" font-family="Helvetica,sans-Serif" font-size="14.00" fill="#000000">CustomerDeletedEvent</text>
</g>
<!-- CustomerEvent&#45;&gt;CustomerDeletedEvent -->
<g id="edge22" class="edge">
<title>CustomerEvent&#45;&gt;CustomerDeletedEvent</title>
<path fill="none" stroke="#000000" d="M224.719,-1441.3713C241.2556,-1443.7001 259.1595,-1446.2216 276.2941,-1448.6347"/>
<polygon fill="none" stroke="#000000" points="225.0089,-1437.8776 214.6184,-1439.9488 224.0326,-1444.8092 225.0089,-1437.8776"/>
</g>
<!-- CustomerUpdatedEvent -->
<g id="node24" class="node">
<title>CustomerUpdatedEvent</title>
<polygon fill="#f2f2f2" stroke="#000000" points="274.2891,-1497 274.2891,-1533 439.7021,-1533 439.7021,-1497 274.2891,-1497"/>
<text text-anchor="middle" x="356.9956" y="-1510.8" font-family="Helvetica,sans-Serif" font-size="14.00" fill="#000000">CustomerUpdatedEvent</text>
</g>
<!-- CustomerEvent&#45;&gt;CustomerUpdatedEvent -->
<g id="edge23" class="edge">
<title>CustomerEvent&#45;&gt;CustomerUpdatedEvent</title>
<path fill="none" stroke="#000000" d="M196.6532,-1455.2557C215.9057,-1466.22 239.8513,-1478.8667 262.3535,-1488 270.2696,-1491.213 278.7037,-1494.2009 287.1516,-1496.929"/>
<polygon fill="none" stroke="#000000" points="198.294,-1452.1616 187.8835,-1450.1935 194.7945,-1458.2241 198.294,-1452.1616"/>
</g>
<!-- FolioCreatedEvent -->
<g id="node25" class="node">
<title>FolioCreatedEvent</title>
<polygon fill="#f2f2f2" stroke="#000000" points="291.02,-1155 291.02,-1191 422.9712,-1191 422.9712,-1155 291.02,-1155"/>
<text text-anchor="middle" x="356.9956" y="-1168.8" font-family="Helvetica,sans-Serif" font-size="14.00" fill="#000000">FolioCreatedEvent</text>
</g>
<!-- FolioEvent&#45;&gt;FolioCreatedEvent -->
<g id="edge24" class="edge">
<title>FolioEvent&#45;&gt;FolioCreatedEvent</title>
<path fill="none" stroke="#000000" d="M209.3069,-1193.0564C234.1294,-1189.6855 264.2559,-1185.5942 290.8091,-1181.9883"/>
<polygon fill="none" stroke="#000000" points="208.8102,-1189.5917 199.3722,-1194.4056 209.7522,-1196.528 208.8102,-1189.5917"/>
</g>
<!-- FolioDeletedEvent -->
<g id="node26" class="node">
<title>FolioDeletedEvent</title>
<polygon fill="#f2f2f2" stroke="#000000" points="291.7959,-1210 291.7959,-1246 422.1953,-1246 422.1953,-1210 291.7959,-1210"/>
<text text-anchor="middle" x="356.9956" y="-1223.8" font-family="Helvetica,sans-Serif" font-size="14.00" fill="#000000">FolioDeletedEvent</text>
</g>
<!-- FolioEvent&#45;&gt;FolioDeletedEvent -->
<g id="edge25" class="edge">
<title>FolioEvent&#45;&gt;FolioDeletedEvent</title>
<path fill="none" stroke="#000000" d="M209.3953,-1207.2132C234.4445,-1210.7409 264.8789,-1215.027 291.5894,-1218.7887"/>
<polygon fill="none" stroke="#000000" points="209.7626,-1203.7305 199.3722,-1205.8016 208.7863,-1210.6621 209.7626,-1203.7305"/>
</g>
<!-- FolioUpdatedEvent -->
<g id="node27" class="node">
<title>FolioUpdatedEvent</title>
<polygon fill="#f2f2f2" stroke="#000000" points="289.458,-1265 289.458,-1301 424.5332,-1301 424.5332,-1265 289.458,-1265"/>
<text text-anchor="middle" x="356.9956" y="-1278.8" font-family="Helvetica,sans-Serif" font-size="14.00" fill="#000000">FolioUpdatedEvent</text>
</g>
<!-- FolioEvent&#45;&gt;FolioUpdatedEvent -->
<g id="edge26" class="edge">
<title>FolioEvent&#45;&gt;FolioUpdatedEvent</title>
<path fill="none" stroke="#000000" d="M196.6532,-1223.2557C215.9057,-1234.22 239.8513,-1246.8667 262.3535,-1256 270.982,-1259.5022 280.226,-1262.7369 289.4325,-1265.6593"/>
<polygon fill="none" stroke="#000000" points="198.294,-1220.1616 187.8835,-1218.1935 194.7945,-1226.2241 198.294,-1220.1616"/>
</g>
<!-- PortfolioCreatedEvent -->
<g id="node28" class="node">
<title>PortfolioCreatedEvent</title>
<polygon fill="#f2f2f2" stroke="#000000" points="280.5132,-961 280.5132,-997 433.478,-997 433.478,-961 280.5132,-961"/>
<text text-anchor="middle" x="356.9956" y="-974.8" font-family="Helvetica,sans-Serif" font-size="14.00" fill="#000000">PortfolioCreatedEvent</text>
</g>
<!-- PortfolioEvent&#45;&gt;PortfolioCreatedEvent -->
<g id="edge27" class="edge">
<title>PortfolioEvent&#45;&gt;PortfolioCreatedEvent</title>
<path fill="none" stroke="#000000" d="M219.7934,-1016.9547C242.5942,-1010.6473 268.5114,-1003.4777 291.6335,-997.0814"/>
<polygon fill="none" stroke="#000000" points="218.5999,-1013.6534 209.8951,-1019.693 220.4663,-1020.4 218.5999,-1013.6534"/>
</g>
<!-- PortfolioDeletedEvent -->
<g id="node29" class="node">
<title>PortfolioDeletedEvent</title>
<polygon fill="#f2f2f2" stroke="#000000" points="281.2891,-1016 281.2891,-1052 432.7021,-1052 432.7021,-1016 281.2891,-1016"/>
<text text-anchor="middle" x="356.9956" y="-1029.8" font-family="Helvetica,sans-Serif" font-size="14.00" fill="#000000">PortfolioDeletedEvent</text>
</g>
<!-- PortfolioEvent&#45;&gt;PortfolioDeletedEvent -->
<g id="edge28" class="edge">
<title>PortfolioEvent&#45;&gt;PortfolioDeletedEvent</title>
<path fill="none" stroke="#000000" d="M220.0905,-1034C239.4377,-1034 261.0051,-1034 281.1937,-1034"/>
<polygon fill="none" stroke="#000000" points="219.8951,-1030.5001 209.8951,-1034 219.895,-1037.5001 219.8951,-1030.5001"/>
</g>
<!-- PortfolioUpdatedEvent -->
<g id="node30" class="node">
<title>PortfolioUpdatedEvent</title>
<polygon fill="#f2f2f2" stroke="#000000" points="278.9512,-1071 278.9512,-1107 435.04,-1107 435.04,-1071 278.9512,-1071"/>
<text text-anchor="middle" x="356.9956" y="-1084.8" font-family="Helvetica,sans-Serif" font-size="14.00" fill="#000000">PortfolioUpdatedEvent</text>
</g>
<!-- PortfolioEvent&#45;&gt;PortfolioUpdatedEvent -->
<g id="edge29" class="edge">
<title>PortfolioEvent&#45;&gt;PortfolioUpdatedEvent</title>
<path fill="none" stroke="#000000" d="M219.7934,-1051.0453C242.5942,-1057.3527 268.5114,-1064.5223 291.6335,-1070.9186"/>
<polygon fill="none" stroke="#000000" points="220.4663,-1047.6 209.8951,-1048.307 218.5999,-1054.3466 220.4663,-1047.6"/>
</g>
<!-- ExpenseCreatedEvent -->
<g id="node31" class="node">
<title>ExpenseCreatedEvent</title>
<polygon fill="#f2f2f2" stroke="#000000" points="278.9512,-767 278.9512,-803 435.04,-803 435.04,-767 278.9512,-767"/>
<text text-anchor="middle" x="356.9956" y="-780.8" font-family="Helvetica,sans-Serif" font-size="14.00" fill="#000000">ExpenseCreatedEvent</text>
</g>
<!-- ExpenseEvent&#45;&gt;ExpenseCreatedEvent -->
<g id="edge30" class="edge">
<title>ExpenseEvent&#45;&gt;ExpenseCreatedEvent</title>
<path fill="none" stroke="#000000" d="M198.3192,-843.9093C217.3302,-833.5716 240.5934,-821.7654 262.3535,-813 271.2541,-809.4147 280.7894,-806.0581 290.2559,-803.0018"/>
<polygon fill="none" stroke="#000000" points="196.4248,-840.9569 189.3534,-848.8465 199.8014,-847.0887 196.4248,-840.9569"/>
</g>
<!-- ExpenseDeletedEvent -->
<g id="node32" class="node">
<title>ExpenseDeletedEvent</title>
<polygon fill="#f2f2f2" stroke="#000000" points="279.7271,-822 279.7271,-858 434.2642,-858 434.2642,-822 279.7271,-822"/>
<text text-anchor="middle" x="356.9956" y="-835.8" font-family="Helvetica,sans-Serif" font-size="14.00" fill="#000000">ExpenseDeletedEvent</text>
</g>
<!-- ExpenseEvent&#45;&gt;ExpenseDeletedEvent -->
<g id="edge31" class="edge">
<title>ExpenseEvent&#45;&gt;ExpenseDeletedEvent</title>
<path fill="none" stroke="#000000" d="M221.5068,-858.3996C239.9891,-855.8897 260.3965,-853.1184 279.6423,-850.5047"/>
<polygon fill="none" stroke="#000000" points="220.8946,-854.9506 211.4566,-859.7645 221.8366,-861.8869 220.8946,-854.9506"/>
</g>
<!-- ExpenseUpdatedEvent -->
<g id="node33" class="node">
<title>ExpenseUpdatedEvent</title>
<polygon fill="#f2f2f2" stroke="#000000" points="277.3892,-877 277.3892,-913 436.6021,-913 436.6021,-877 277.3892,-877"/>
<text text-anchor="middle" x="356.9956" y="-890.8" font-family="Helvetica,sans-Serif" font-size="14.00" fill="#000000">ExpenseUpdatedEvent</text>
</g>
<!-- ExpenseEvent&#45;&gt;ExpenseUpdatedEvent -->
<g id="edge32" class="edge">
<title>ExpenseEvent&#45;&gt;ExpenseUpdatedEvent</title>
<path fill="none" stroke="#000000" d="M221.6649,-875.9411C239.3828,-878.4364 258.8598,-881.1794 277.3812,-883.7878"/>
<polygon fill="none" stroke="#000000" points="221.847,-872.4323 211.4566,-874.5035 220.8707,-879.3639 221.847,-872.4323"/>
</g>
<!-- PositionCreatedEvent -->
<g id="node34" class="node">
<title>PositionCreatedEvent</title>
<polygon fill="#f2f2f2" stroke="#000000" points="281.2891,-573 281.2891,-609 432.7021,-609 432.7021,-573 281.2891,-573"/>
<text text-anchor="middle" x="356.9956" y="-586.8" font-family="Helvetica,sans-Serif" font-size="14.00" fill="#000000">PositionCreatedEvent</text>
</g>
<!-- PositionEvent&#45;&gt;PositionCreatedEvent -->
<g id="edge33" class="edge">
<title>PositionEvent&#45;&gt;PositionCreatedEvent</title>
<path fill="none" stroke="#000000" d="M198.3192,-649.9093C217.3302,-639.5716 240.5934,-627.7654 262.3535,-619 271.2541,-615.4147 280.7894,-612.0581 290.2559,-609.0018"/>
<polygon fill="none" stroke="#000000" points="196.4248,-646.9569 189.3534,-654.8465 199.8014,-653.0887 196.4248,-646.9569"/>
</g>
<!-- PositionDeletedEvent -->
<g id="node35" class="node">
<title>PositionDeletedEvent</title>
<polygon fill="#f2f2f2" stroke="#000000" points="282.0649,-628 282.0649,-664 431.9263,-664 431.9263,-628 282.0649,-628"/>
<text text-anchor="middle" x="356.9956" y="-641.8" font-family="Helvetica,sans-Serif" font-size="14.00" fill="#000000">PositionDeletedEvent</text>
</g>
<!-- PositionEvent&#45;&gt;PositionDeletedEvent -->
<g id="edge34" class="edge">
<title>PositionEvent&#45;&gt;PositionDeletedEvent</title>
<path fill="none" stroke="#000000" d="M219.2153,-664.7108C238.9775,-662.0271 261.1295,-659.0188 281.7953,-656.2124"/>
<polygon fill="none" stroke="#000000" points="218.5574,-661.268 209.1194,-666.0819 219.4994,-668.2043 218.5574,-661.268"/>
</g>
<!-- PositionUpdatedEvent -->
<g id="node36" class="node">
<title>PositionUpdatedEvent</title>
<polygon fill="#f2f2f2" stroke="#000000" points="279.7271,-683 279.7271,-719 434.2642,-719 434.2642,-683 279.7271,-683"/>
<text text-anchor="middle" x="356.9956" y="-696.8" font-family="Helvetica,sans-Serif" font-size="14.00" fill="#000000">PositionUpdatedEvent</text>
</g>
<!-- PositionEvent&#45;&gt;PositionUpdatedEvent -->
<g id="edge35" class="edge">
<title>PositionEvent&#45;&gt;PositionUpdatedEvent</title>
<path fill="none" stroke="#000000" d="M219.1558,-681.5878C238.208,-684.2709 259.4861,-687.2676 279.5144,-690.0882"/>
<polygon fill="none" stroke="#000000" points="219.5098,-678.1032 209.1194,-680.1743 218.5335,-685.0348 219.5098,-678.1032"/>
</g>
<!-- AllocationCreatedEvent -->
<g id="node37" class="node">
<title>AllocationCreatedEvent</title>
<polygon fill="#f2f2f2" stroke="#000000" points="275.8408,-341 275.8408,-377 438.1504,-377 438.1504,-341 275.8408,-341"/>
<text text-anchor="middle" x="356.9956" y="-354.8" font-family="Helvetica,sans-Serif" font-size="14.00" fill="#000000">AllocationCreatedEvent</text>
</g>
<!-- AllocationEvent&#45;&gt;AllocationCreatedEvent -->
<g id="edge36" class="edge">
<title>AllocationEvent&#45;&gt;AllocationCreatedEvent</title>
<path fill="none" stroke="#000000" d="M198.3192,-417.9093C217.3302,-407.5716 240.5934,-395.7654 262.3535,-387 271.2541,-383.4147 280.7894,-380.0581 290.2559,-377.0018"/>
<polygon fill="none" stroke="#000000" points="196.4248,-414.9569 189.3534,-422.8465 199.8014,-421.0887 196.4248,-414.9569"/>
</g>
<!-- AllocationDeletedEvent -->
<g id="node38" class="node">
<title>AllocationDeletedEvent</title>
<polygon fill="#f2f2f2" stroke="#000000" points="276.6167,-396 276.6167,-432 437.3745,-432 437.3745,-396 276.6167,-396"/>
<text text-anchor="middle" x="356.9956" y="-409.8" font-family="Helvetica,sans-Serif" font-size="14.00" fill="#000000">AllocationDeletedEvent</text>
</g>
<!-- AllocationEvent&#45;&gt;AllocationDeletedEvent -->
<g id="edge37" class="edge">
<title>AllocationEvent&#45;&gt;AllocationDeletedEvent</title>
<path fill="none" stroke="#000000" d="M224.719,-431.9634C241.2556,-429.7177 259.1595,-427.2863 276.2941,-424.9594"/>
<polygon fill="none" stroke="#000000" points="224.0565,-428.5212 214.6184,-433.3351 224.9985,-435.4575 224.0565,-428.5212"/>
</g>
<!-- AllocationUpdatedEvent -->
<g id="node39" class="node">
<title>AllocationUpdatedEvent</title>
<polygon fill="#f2f2f2" stroke="#000000" points="274.2788,-451 274.2788,-487 439.7124,-487 439.7124,-451 274.2788,-451"/>
<text text-anchor="middle" x="356.9956" y="-464.8" font-family="Helvetica,sans-Serif" font-size="14.00" fill="#000000">AllocationUpdatedEvent</text>
</g>
<!-- AllocationEvent&#45;&gt;AllocationUpdatedEvent -->
<g id="edge38" class="edge">
<title>AllocationEvent&#45;&gt;AllocationUpdatedEvent</title>
<path fill="none" stroke="#000000" d="M224.8003,-450.3827C240.5966,-452.6073 257.6367,-455.0071 274.0598,-457.32"/>
<polygon fill="none" stroke="#000000" points="225.0089,-446.8776 214.6184,-448.9488 224.0326,-453.8092 225.0089,-446.8776"/>
</g>
<!-- TeamCreatedEvent -->
<g id="node40" class="node">
<title>TeamCreatedEvent</title>
<polygon fill="#f2f2f2" stroke="#000000" points="289.0752,-109 289.0752,-145 424.916,-145 424.916,-109 289.0752,-109"/>
<text text-anchor="middle" x="356.9956" y="-122.8" font-family="Helvetica,sans-Serif" font-size="14.00" fill="#000000">TeamCreatedEvent</text>
</g>
<!-- TeamEvent&#45;&gt;TeamCreatedEvent -->
<g id="edge39" class="edge">
<title>TeamEvent&#45;&gt;TeamCreatedEvent</title>
<path fill="none" stroke="#000000" d="M198.3192,-185.9093C217.3302,-175.5716 240.5934,-163.7654 262.3535,-155 271.2541,-151.4147 280.7894,-148.0581 290.2559,-145.0018"/>
<polygon fill="none" stroke="#000000" points="196.4248,-182.9569 189.3534,-190.8465 199.8014,-189.0887 196.4248,-182.9569"/>
</g>
<!-- TeamDeletedEvent -->
<g id="node41" class="node">
<title>TeamDeletedEvent</title>
<polygon fill="#f2f2f2" stroke="#000000" points="289.8511,-164 289.8511,-200 424.1401,-200 424.1401,-164 289.8511,-164"/>
<text text-anchor="middle" x="356.9956" y="-177.8" font-family="Helvetica,sans-Serif" font-size="14.00" fill="#000000">TeamDeletedEvent</text>
</g>
<!-- TeamEvent&#45;&gt;TeamDeletedEvent -->
<g id="edge40" class="edge">
<title>TeamEvent&#45;&gt;TeamDeletedEvent</title>
<path fill="none" stroke="#000000" d="M211.3275,-201.782C235.4029,-198.5125 264.1369,-194.6104 289.6976,-191.1392"/>
<polygon fill="none" stroke="#000000" points="210.7555,-198.3275 201.3175,-203.1414 211.6975,-205.2638 210.7555,-198.3275"/>
</g>
<!-- TeamUpdatedEvent -->
<g id="node42" class="node">
<title>TeamUpdatedEvent</title>
<polygon fill="#f2f2f2" stroke="#000000" points="287.5132,-219 287.5132,-255 426.478,-255 426.478,-219 287.5132,-219"/>
<text text-anchor="middle" x="356.9956" y="-232.8" font-family="Helvetica,sans-Serif" font-size="14.00" fill="#000000">TeamUpdatedEvent</text>
</g>
<!-- TeamEvent&#45;&gt;TeamUpdatedEvent -->
<g id="edge41" class="edge">
<title>TeamEvent&#45;&gt;TeamUpdatedEvent</title>
<path fill="none" stroke="#000000" d="M211.3674,-216.4909C234.704,-219.7775 262.4117,-223.6796 287.3624,-227.1934"/>
<polygon fill="none" stroke="#000000" points="211.7079,-213.0044 201.3175,-215.0756 210.7316,-219.936 211.7079,-213.0044"/>
</g>
<!-- ApprovalCreatedEvent -->
<g id="node43" class="node">
<title>ApprovalCreatedEvent</title>
<polygon fill="#f2f2f2" stroke="#000000" points="278.5649,-17 278.5649,-53 435.4263,-53 435.4263,-17 278.5649,-17"/>
<text text-anchor="middle" x="356.9956" y="-30.8" font-family="Helvetica,sans-Serif" font-size="14.00" fill="#000000">ApprovalCreatedEvent</text>
</g>
<!-- ApprovalEvent&#45;&gt;ApprovalCreatedEvent -->
<g id="edge42" class="edge">
<title>ApprovalEvent&#45;&gt;ApprovalCreatedEvent</title>
<path fill="none" stroke="#000000" d="M221.7906,-35C239.7755,-35 259.5644,-35 278.3223,-35"/>
<polygon fill="none" stroke="#000000" points="221.7181,-31.5001 211.7181,-35 221.7181,-38.5001 221.7181,-31.5001"/>
</g>
</g>
</svg>
