<?xml version="1.0" encoding="UTF-8" standalone="no"?>
<!DOCTYPE svg PUBLIC "-//W3C//DTD SVG 1.1//EN"
 "http://www.w3.org/Graphics/SVG/1.1/DTD/svg11.dtd">
<!-- Generated by graphviz version 2.38.0 (20140413.2041)
 -->
<!-- Title: hierarchy Pages: 1 -->
<svg width="520pt" height="261pt"
 viewBox="0.00 0.00 519.50 261.00" xmlns="http://www.w3.org/2000/svg" xmlns:xlink="http://www.w3.org/1999/xlink">
<g id="graph0" class="graph" transform="scale(1 1) rotate(0) translate(4 257)">
<title>hierarchy</title>
<polygon fill="white" stroke="none" points="-4,4 -4,-257 515.5,-257 515.5,4 -4,4"/>
<text text-anchor="middle" x="255.75" y="-38.8" font-family="Helvetica,sans-Serif" font-size="14.00">Allocation</text>
<text text-anchor="middle" x="255.75" y="-7.8" font-family="Helvetica,sans-Serif" font-size="14.00">package: com.tempoplugin.planner.event.api</text>
<!-- Event -->
<g id="node1" class="node"><title>Event</title>
<polygon fill="#f2f2f2" stroke="black" points="227,-216.5 227,-252.5 281,-252.5 281,-216.5 227,-216.5"/>
<text text-anchor="middle" x="254" y="-230.8" font-family="Helvetica,sans-Serif" font-size="14.00">Event</text>
</g>
<!-- AllocationEvent -->
<g id="node2" class="node"><title>AllocationEvent</title>
<polygon fill="#f2f2f2" stroke="black" points="199,-143.5 199,-179.5 309,-179.5 309,-143.5 199,-143.5"/>
<text text-anchor="middle" x="254" y="-157.8" font-family="Helvetica,sans-Serif" font-size="14.00">AllocationEvent</text>
</g>
<!-- Event&#45;&gt;AllocationEvent -->
<g id="edge1" class="edge"><title>Event&#45;&gt;AllocationEvent</title>
<path fill="none" stroke="black" d="M254,-206.253C254,-197.265 254,-187.529 254,-179.529"/>
<polygon fill="none" stroke="black" points="250.5,-206.313 254,-216.313 257.5,-206.313 250.5,-206.313"/>
</g>
<!-- AllocationCreatedEvent -->
<g id="node3" class="node"><title>AllocationCreatedEvent</title>
<polygon fill="#f2f2f2" stroke="black" points="0,-70.5 0,-106.5 158,-106.5 158,-70.5 0,-70.5"/>
<text text-anchor="middle" x="79" y="-84.8" font-family="Helvetica,sans-Serif" font-size="14.00">AllocationCreatedEvent</text>
</g>
<!-- AllocationEvent&#45;&gt;AllocationCreatedEvent -->
<g id="edge2" class="edge"><title>AllocationEvent&#45;&gt;AllocationCreatedEvent</title>
<path fill="none" stroke="black" d="M202.781,-139.72C176.838,-129.194 145.724,-116.571 121.181,-106.614"/>
<polygon fill="none" stroke="black" points="201.501,-142.977 212.083,-143.494 204.133,-136.491 201.501,-142.977"/>
</g>
<!-- AllocationDeletedEvent -->
<g id="node4" class="node"><title>AllocationDeletedEvent</title>
<polygon fill="#f2f2f2" stroke="black" points="176,-70.5 176,-106.5 332,-106.5 332,-70.5 176,-70.5"/>
<text text-anchor="middle" x="254" y="-84.8" font-family="Helvetica,sans-Serif" font-size="14.00">AllocationDeletedEvent</text>
</g>
<!-- AllocationEvent&#45;&gt;AllocationDeletedEvent -->
<g id="edge3" class="edge"><title>AllocationEvent&#45;&gt;AllocationDeletedEvent</title>
<path fill="none" stroke="black" d="M254,-133.253C254,-124.265 254,-114.529 254,-106.529"/>
<polygon fill="none" stroke="black" points="250.5,-133.313 254,-143.313 257.5,-133.313 250.5,-133.313"/>
</g>
<!-- AllocationUpdatedEvent -->
<g id="node5" class="node"><title>AllocationUpdatedEvent</title>
<polygon fill="#f2f2f2" stroke="black" points="350.5,-70.5 350.5,-106.5 511.5,-106.5 511.5,-70.5 350.5,-70.5"/>
<text text-anchor="middle" x="431" y="-84.8" font-family="Helvetica,sans-Serif" font-size="14.00">AllocationUpdatedEvent</text>
</g>
<!-- AllocationEvent&#45;&gt;AllocationUpdatedEvent -->
<g id="edge4" class="edge"><title>AllocationEvent&#45;&gt;AllocationUpdatedEvent</title>
<path fill="none" stroke="black" d="M305.804,-139.72C332.044,-129.194 363.513,-116.571 388.337,-106.614"/>
<polygon fill="none" stroke="black" points="304.374,-136.522 296.396,-143.494 306.98,-143.019 304.374,-136.522"/>
</g>
</g>
</svg>
