<?xml version="1.0" encoding="UTF-8" standalone="no"?>
<!DOCTYPE svg PUBLIC "-//W3C//DTD SVG 1.1//EN"
 "http://www.w3.org/Graphics/SVG/1.1/DTD/svg11.dtd">
<!-- Generated by graphviz version 2.38.0 (20140413.2041)
 -->
<!-- Title: hierarchy Pages: 1 -->
<svg width="521pt" height="261pt"
 viewBox="0.00 0.00 520.50 261.00" xmlns="http://www.w3.org/2000/svg" xmlns:xlink="http://www.w3.org/1999/xlink">
<g id="graph0" class="graph" transform="scale(1 1) rotate(0) translate(4 257)">
<title>hierarchy</title>
<polygon fill="white" stroke="none" points="-4,4 -4,-257 516.5,-257 516.5,4 -4,4"/>
<text text-anchor="middle" x="256.25" y="-38.8" font-family="Helvetica,sans-Serif" font-size="14.00">Customer</text>
<text text-anchor="middle" x="256.25" y="-7.8" font-family="Helvetica,sans-Serif" font-size="14.00">package: com.tempoplugin.customer.event.api</text>
<!-- Event -->
<g id="node1" class="node"><title>Event</title>
<polygon fill="#f2f2f2" stroke="black" points="228,-216.5 228,-252.5 282,-252.5 282,-216.5 228,-216.5"/>
<text text-anchor="middle" x="255" y="-230.8" font-family="Helvetica,sans-Serif" font-size="14.00">Event</text>
</g>
<!-- CustomerEvent -->
<g id="node2" class="node"><title>CustomerEvent</title>
<polygon fill="#f2f2f2" stroke="black" points="200,-143.5 200,-179.5 310,-179.5 310,-143.5 200,-143.5"/>
<text text-anchor="middle" x="255" y="-157.8" font-family="Helvetica,sans-Serif" font-size="14.00">CustomerEvent</text>
</g>
<!-- Event&#45;&gt;CustomerEvent -->
<g id="edge1" class="edge"><title>Event&#45;&gt;CustomerEvent</title>
<path fill="none" stroke="black" d="M255,-206.253C255,-197.265 255,-187.529 255,-179.529"/>
<polygon fill="none" stroke="black" points="251.5,-206.313 255,-216.313 258.5,-206.313 251.5,-206.313"/>
</g>
<!-- CustomerCreatedEvent -->
<g id="node3" class="node"><title>CustomerCreatedEvent</title>
<polygon fill="#f2f2f2" stroke="black" points="0,-70.5 0,-106.5 158,-106.5 158,-70.5 0,-70.5"/>
<text text-anchor="middle" x="79" y="-84.8" font-family="Helvetica,sans-Serif" font-size="14.00">CustomerCreatedEvent</text>
</g>
<!-- CustomerEvent&#45;&gt;CustomerCreatedEvent -->
<g id="edge2" class="edge"><title>CustomerEvent&#45;&gt;CustomerCreatedEvent</title>
<path fill="none" stroke="black" d="M203.488,-139.72C177.397,-129.194 146.106,-116.571 121.422,-106.614"/>
<polygon fill="none" stroke="black" points="202.26,-142.998 212.844,-143.494 204.879,-136.507 202.26,-142.998"/>
</g>
<!-- CustomerDeletedEvent -->
<g id="node4" class="node"><title>CustomerDeletedEvent</title>
<polygon fill="#f2f2f2" stroke="black" points="176.5,-70.5 176.5,-106.5 333.5,-106.5 333.5,-70.5 176.5,-70.5"/>
<text text-anchor="middle" x="255" y="-84.8" font-family="Helvetica,sans-Serif" font-size="14.00">CustomerDeletedEvent</text>
</g>
<!-- CustomerEvent&#45;&gt;CustomerDeletedEvent -->
<g id="edge3" class="edge"><title>CustomerEvent&#45;&gt;CustomerDeletedEvent</title>
<path fill="none" stroke="black" d="M255,-133.253C255,-124.265 255,-114.529 255,-106.529"/>
<polygon fill="none" stroke="black" points="251.5,-133.313 255,-143.313 258.5,-133.313 251.5,-133.313"/>
</g>
<!-- CustomerUpdatedEvent -->
<g id="node5" class="node"><title>CustomerUpdatedEvent</title>
<polygon fill="#f2f2f2" stroke="black" points="351.5,-70.5 351.5,-106.5 512.5,-106.5 512.5,-70.5 351.5,-70.5"/>
<text text-anchor="middle" x="432" y="-84.8" font-family="Helvetica,sans-Serif" font-size="14.00">CustomerUpdatedEvent</text>
</g>
<!-- CustomerEvent&#45;&gt;CustomerUpdatedEvent -->
<g id="edge4" class="edge"><title>CustomerEvent&#45;&gt;CustomerUpdatedEvent</title>
<path fill="none" stroke="black" d="M306.804,-139.72C333.044,-129.194 364.513,-116.571 389.337,-106.614"/>
<polygon fill="none" stroke="black" points="305.374,-136.522 297.396,-143.494 307.98,-143.019 305.374,-136.522"/>
</g>
</g>
</svg>
