<?xml version="1.0" encoding="UTF-8" standalone="no"?>
<!DOCTYPE svg PUBLIC "-//W3C//DTD SVG 1.1//EN"
 "http://www.w3.org/Graphics/SVG/1.1/DTD/svg11.dtd">
<!-- Generated by graphviz version 2.38.0 (20140413.2041)
 -->
<!-- Title: hierarchy Pages: 1 -->
<svg width="309pt" height="188pt"
 viewBox="0.00 0.00 309.00 188.00" xmlns="http://www.w3.org/2000/svg" xmlns:xlink="http://www.w3.org/1999/xlink">
<g id="graph0" class="graph" transform="scale(1 1) rotate(0) translate(4 184)">
<title>hierarchy</title>
<polygon fill="white" stroke="none" points="-4,4 -4,-184 305,-184 305,4 -4,4"/>
<text text-anchor="middle" x="150.5" y="-38.8" font-family="Helvetica,sans-Serif" font-size="14.00">Timesheet Approval</text>
<text text-anchor="middle" x="150.5" y="-7.8" font-family="Helvetica,sans-Serif" font-size="14.00">package: com.tempoplugin.timesheet.event.api</text>
<!-- Event -->
<g id="node1" class="node"><title>Event</title>
<polygon fill="#f2f2f2" stroke="black" points="123.5,-143.5 123.5,-179.5 177.5,-179.5 177.5,-143.5 123.5,-143.5"/>
<text text-anchor="middle" x="150.5" y="-157.8" font-family="Helvetica,sans-Serif" font-size="14.00">Event</text>
</g>
<!-- ApprovalEvent -->
<g id="node2" class="node"><title>ApprovalEvent</title>
<polygon fill="#f2f2f2" stroke="black" points="98.5,-70.5 98.5,-106.5 202.5,-106.5 202.5,-70.5 98.5,-70.5"/>
<text text-anchor="middle" x="150.5" y="-84.8" font-family="Helvetica,sans-Serif" font-size="14.00">ApprovalEvent</text>
</g>
<!-- Event&#45;&gt;ApprovalEvent -->
<g id="edge1" class="edge"><title>Event&#45;&gt;ApprovalEvent</title>
<path fill="none" stroke="black" d="M150.5,-133.253C150.5,-124.265 150.5,-114.529 150.5,-106.529"/>
<polygon fill="none" stroke="black" points="147,-133.313 150.5,-143.313 154,-133.313 147,-133.313"/>
</g>
</g>
</svg>
