<?xml version="1.0" encoding="UTF-8" standalone="no"?>
<!DOCTYPE svg PUBLIC "-//W3C//DTD SVG 1.1//EN"
 "http://www.w3.org/Graphics/SVG/1.1/DTD/svg11.dtd">
<!-- Generated by graphviz version 2.38.0 (20140413.2041)
 -->
<!-- Title: hierarchy Pages: 1 -->
<svg width="508pt" height="261pt"
 viewBox="0.00 0.00 507.50 261.00" xmlns="http://www.w3.org/2000/svg" xmlns:xlink="http://www.w3.org/1999/xlink">
<g id="graph0" class="graph" transform="scale(1 1) rotate(0) translate(4 257)">
<title>hierarchy</title>
<polygon fill="white" stroke="none" points="-4,4 -4,-257 503.5,-257 503.5,4 -4,4"/>
<text text-anchor="middle" x="249.75" y="-38.8" font-family="Helvetica,sans-Serif" font-size="14.00">Category</text>
<text text-anchor="middle" x="249.75" y="-7.8" font-family="Helvetica,sans-Serif" font-size="14.00">package: com.tempoplugin.accounts.attributes.api.event</text>
<!-- Event -->
<g id="node1" class="node"><title>Event</title>
<polygon fill="#f2f2f2" stroke="black" points="221,-216.5 221,-252.5 275,-252.5 275,-216.5 221,-216.5"/>
<text text-anchor="middle" x="248" y="-230.8" font-family="Helvetica,sans-Serif" font-size="14.00">Event</text>
</g>
<!-- CategoryEvent -->
<g id="node2" class="node"><title>CategoryEvent</title>
<polygon fill="#f2f2f2" stroke="black" points="195,-143.5 195,-179.5 301,-179.5 301,-143.5 195,-143.5"/>
<text text-anchor="middle" x="248" y="-157.8" font-family="Helvetica,sans-Serif" font-size="14.00">CategoryEvent</text>
</g>
<!-- Event&#45;&gt;CategoryEvent -->
<g id="edge1" class="edge"><title>Event&#45;&gt;CategoryEvent</title>
<path fill="none" stroke="black" d="M248,-206.253C248,-197.265 248,-187.529 248,-179.529"/>
<polygon fill="none" stroke="black" points="244.5,-206.313 248,-216.313 251.5,-206.313 244.5,-206.313"/>
</g>
<!-- CategoryCreatedEvent -->
<g id="node3" class="node"><title>CategoryCreatedEvent</title>
<polygon fill="#f2f2f2" stroke="black" points="0,-70.5 0,-106.5 154,-106.5 154,-70.5 0,-70.5"/>
<text text-anchor="middle" x="77" y="-84.8" font-family="Helvetica,sans-Serif" font-size="14.00">CategoryCreatedEvent</text>
</g>
<!-- CategoryEvent&#45;&gt;CategoryCreatedEvent -->
<g id="edge2" class="edge"><title>CategoryEvent&#45;&gt;CategoryCreatedEvent</title>
<path fill="none" stroke="black" d="M197.618,-139.581C172.335,-129.084 142.094,-116.527 118.217,-106.614"/>
<polygon fill="none" stroke="black" points="196.464,-142.891 207.041,-143.494 199.148,-136.427 196.464,-142.891"/>
</g>
<!-- CategoryDeletedEvent -->
<g id="node4" class="node"><title>CategoryDeletedEvent</title>
<polygon fill="#f2f2f2" stroke="black" points="172,-70.5 172,-106.5 324,-106.5 324,-70.5 172,-70.5"/>
<text text-anchor="middle" x="248" y="-84.8" font-family="Helvetica,sans-Serif" font-size="14.00">CategoryDeletedEvent</text>
</g>
<!-- CategoryEvent&#45;&gt;CategoryDeletedEvent -->
<g id="edge3" class="edge"><title>CategoryEvent&#45;&gt;CategoryDeletedEvent</title>
<path fill="none" stroke="black" d="M248,-133.253C248,-124.265 248,-114.529 248,-106.529"/>
<polygon fill="none" stroke="black" points="244.5,-133.313 248,-143.313 251.5,-133.313 244.5,-133.313"/>
</g>
<!-- CategoryUpdatedEvent -->
<g id="node5" class="node"><title>CategoryUpdatedEvent</title>
<polygon fill="#f2f2f2" stroke="black" points="342.5,-70.5 342.5,-106.5 499.5,-106.5 499.5,-70.5 342.5,-70.5"/>
<text text-anchor="middle" x="421" y="-84.8" font-family="Helvetica,sans-Serif" font-size="14.00">CategoryUpdatedEvent</text>
</g>
<!-- CategoryEvent&#45;&gt;CategoryUpdatedEvent -->
<g id="edge4" class="edge"><title>CategoryEvent&#45;&gt;CategoryUpdatedEvent</title>
<path fill="none" stroke="black" d="M298.971,-139.581C324.55,-129.084 355.144,-116.527 379.301,-106.614"/>
<polygon fill="none" stroke="black" points="297.36,-136.459 289.438,-143.494 300.018,-142.935 297.36,-136.459"/>
</g>
</g>
</svg>
