<?xml version="1.0" encoding="UTF-8" standalone="no"?>
<!DOCTYPE svg PUBLIC "-//W3C//DTD SVG 1.1//EN"
 "http://www.w3.org/Graphics/SVG/1.1/DTD/svg11.dtd">
<!-- Generated by graphviz version 2.38.0 (20140413.2041)
 -->
<!-- Title: hierarchy Pages: 1 -->
<svg width="449pt" height="261pt"
 viewBox="0.00 0.00 448.50 261.00" xmlns="http://www.w3.org/2000/svg" xmlns:xlink="http://www.w3.org/1999/xlink">
<g id="graph0" class="graph" transform="scale(1 1) rotate(0) translate(4 257)">
<title>hierarchy</title>
<polygon fill="white" stroke="none" points="-4,4 -4,-257 444.5,-257 444.5,4 -4,4"/>
<text text-anchor="middle" x="220.25" y="-38.8" font-family="Helvetica,sans-Serif" font-size="14.00">Team</text>
<text text-anchor="middle" x="220.25" y="-7.8" font-family="Helvetica,sans-Serif" font-size="14.00">package: com.tempoplugin.team.event.api</text>
<!-- Event -->
<g id="node1" class="node"><title>Event</title>
<polygon fill="#f2f2f2" stroke="black" points="192,-216.5 192,-252.5 246,-252.5 246,-216.5 192,-216.5"/>
<text text-anchor="middle" x="219" y="-230.8" font-family="Helvetica,sans-Serif" font-size="14.00">Event</text>
</g>
<!-- TeamEvent -->
<g id="node2" class="node"><title>TeamEvent</title>
<polygon fill="#f2f2f2" stroke="black" points="176,-143.5 176,-179.5 262,-179.5 262,-143.5 176,-143.5"/>
<text text-anchor="middle" x="219" y="-157.8" font-family="Helvetica,sans-Serif" font-size="14.00">TeamEvent</text>
</g>
<!-- Event&#45;&gt;TeamEvent -->
<g id="edge1" class="edge"><title>Event&#45;&gt;TeamEvent</title>
<path fill="none" stroke="black" d="M219,-206.253C219,-197.265 219,-187.529 219,-179.529"/>
<polygon fill="none" stroke="black" points="215.5,-206.313 219,-216.313 222.5,-206.313 215.5,-206.313"/>
</g>
<!-- TeamCreatedEvent -->
<g id="node3" class="node"><title>TeamCreatedEvent</title>
<polygon fill="#f2f2f2" stroke="black" points="0,-70.5 0,-106.5 134,-106.5 134,-70.5 0,-70.5"/>
<text text-anchor="middle" x="67" y="-84.8" font-family="Helvetica,sans-Serif" font-size="14.00">TeamCreatedEvent</text>
</g>
<!-- TeamEvent&#45;&gt;TeamCreatedEvent -->
<g id="edge2" class="edge"><title>TeamEvent&#45;&gt;TeamCreatedEvent</title>
<path fill="none" stroke="black" d="M173.323,-139.164C151.033,-128.752 124.581,-116.396 103.638,-106.614"/>
<polygon fill="none" stroke="black" points="172.051,-142.433 182.592,-143.494 175.013,-136.09 172.051,-142.433"/>
</g>
<!-- TeamDeletedEvent -->
<g id="node4" class="node"><title>TeamDeletedEvent</title>
<polygon fill="#f2f2f2" stroke="black" points="152.5,-70.5 152.5,-106.5 285.5,-106.5 285.5,-70.5 152.5,-70.5"/>
<text text-anchor="middle" x="219" y="-84.8" font-family="Helvetica,sans-Serif" font-size="14.00">TeamDeletedEvent</text>
</g>
<!-- TeamEvent&#45;&gt;TeamDeletedEvent -->
<g id="edge3" class="edge"><title>TeamEvent&#45;&gt;TeamDeletedEvent</title>
<path fill="none" stroke="black" d="M219,-133.253C219,-124.265 219,-114.529 219,-106.529"/>
<polygon fill="none" stroke="black" points="215.5,-133.313 219,-143.313 222.5,-133.313 215.5,-133.313"/>
</g>
<!-- TeamUpdatedEvent -->
<g id="node5" class="node"><title>TeamUpdatedEvent</title>
<polygon fill="#f2f2f2" stroke="black" points="303.5,-70.5 303.5,-106.5 440.5,-106.5 440.5,-70.5 303.5,-70.5"/>
<text text-anchor="middle" x="372" y="-84.8" font-family="Helvetica,sans-Serif" font-size="14.00">TeamUpdatedEvent</text>
</g>
<!-- TeamEvent&#45;&gt;TeamUpdatedEvent -->
<g id="edge4" class="edge"><title>TeamEvent&#45;&gt;TeamUpdatedEvent</title>
<path fill="none" stroke="black" d="M264.978,-139.164C287.414,-128.752 314.04,-116.396 335.121,-106.614"/>
<polygon fill="none" stroke="black" points="263.245,-136.109 255.647,-143.494 266.192,-142.459 263.245,-136.109"/>
</g>
</g>
</svg>
