<?xml version="1.0" encoding="UTF-8" standalone="no"?>
<!DOCTYPE svg PUBLIC "-//W3C//DTD SVG 1.1//EN"
 "http://www.w3.org/Graphics/SVG/1.1/DTD/svg11.dtd">
<!-- Generated by graphviz version 2.38.0 (20140413.2041)
 -->
<!-- Title: hierarchy Pages: 1 -->
<svg width="364pt" height="188pt"
 viewBox="0.00 0.00 364.00 188.00" xmlns="http://www.w3.org/2000/svg" xmlns:xlink="http://www.w3.org/1999/xlink">
<g id="graph0" class="graph" transform="scale(1 1) rotate(0) translate(4 184)">
<title>hierarchy</title>
<polygon fill="white" stroke="none" points="-4,4 -4,-184 360,-184 360,4 -4,4"/>
<text text-anchor="middle" x="178" y="-38.8" font-family="Helvetica,sans-Serif" font-size="14.00">Timesheet Approval</text>
<text text-anchor="middle" x="178" y="-7.8" font-family="Helvetica,sans-Serif" font-size="14.00">package: com.tempoplugin.timesheet.approval.event.api</text>
<!-- Event -->
<g id="node1" class="node"><title>Event</title>
<polygon fill="#f2f2f2" stroke="black" points="151,-143.5 151,-179.5 205,-179.5 205,-143.5 151,-143.5"/>
<text text-anchor="middle" x="178" y="-157.8" font-family="Helvetica,sans-Serif" font-size="14.00">Event</text>
</g>
<!-- ApprovalEvent -->
<g id="node2" class="node"><title>ApprovalEvent</title>
<polygon fill="#f2f2f2" stroke="black" points="126,-70.5 126,-106.5 230,-106.5 230,-70.5 126,-70.5"/>
<text text-anchor="middle" x="178" y="-84.8" font-family="Helvetica,sans-Serif" font-size="14.00">ApprovalEvent</text>
</g>
<!-- Event&#45;&gt;ApprovalEvent -->
<g id="edge1" class="edge"><title>Event&#45;&gt;ApprovalEvent</title>
<path fill="none" stroke="black" d="M178,-133.253C178,-124.265 178,-114.529 178,-106.529"/>
<polygon fill="none" stroke="black" points="174.5,-133.313 178,-143.313 181.5,-133.313 174.5,-133.313"/>
</g>
</g>
</svg>
