<?xml version="1.0" encoding="UTF-8" standalone="no"?>
<!DOCTYPE svg PUBLIC "-//W3C//DTD SVG 1.1//EN"
 "http://www.w3.org/Graphics/SVG/1.1/DTD/svg11.dtd">
<!-- Generated by graphviz version 2.40.1 (20161225.0304)
 -->
<!-- Title: hierarchy Pages: 1 -->
<svg width="521pt" height="259pt"
     viewBox="0.00 0.00 520.98 259.00" xmlns="http://www.w3.org/2000/svg">
<g id="graph0" class="graph" transform="scale(1 1) rotate(0) translate(4 255)">
<title>hierarchy</title>
<polygon fill="#ffffff" stroke="transparent" points="-4,4 -4,-255 516.9751,-255 516.9751,4 -4,4"/>
<text text-anchor="middle" x="256.4875" y="-36.8" font-family="Helvetica,sans-Serif" font-size="14.00" fill="#000000">Category</text>
<text text-anchor="middle" x="256.4875" y="-6.8" font-family="Helvetica,sans-Serif" font-size="14.00" fill="#000000">package: com.tempoplugin.category.api.event</text>
<!-- Event -->
<g id="node1" class="node">
<title>Event</title>
<polygon fill="#f2f2f2" stroke="#000000" points="228.2065,-214.5 228.2065,-250.5 282.2065,-250.5 282.2065,-214.5 228.2065,-214.5"/>
<text text-anchor="middle" x="255.1064" y="-228.3" font-family="Helvetica,sans-Serif" font-size="14.00" fill="#000000">Event</text>
</g>
<!-- CategoryEvent -->
<g id="node2" class="node">
<title>CategoryEvent</title>
<polygon fill="#f2f2f2" stroke="#000000" points="200.9033,-141.5 200.9033,-177.5 309.5098,-177.5 309.5098,-141.5 200.9033,-141.5"/>
<text text-anchor="middle" x="255.2065" y="-155.3" font-family="Helvetica,sans-Serif" font-size="14.00" fill="#000000">CategoryEvent</text>
</g>
<!-- Event&#45;&gt;CategoryEvent -->
<g id="edge1" class="edge">
<title>Event&#45;&gt;CategoryEvent</title>
<path fill="none" stroke="#000000" d="M255.2065,-204.3688C255.2065,-195.3769 255.2065,-185.6687 255.2065,-177.5904"/>
<polygon fill="none" stroke="#000000" points="251.7066,-204.455 255.2065,-214.4551 258.7066,-204.4551 251.7066,-204.455"/>
</g>
<!-- CategoryCreatedEvent -->
<g id="node3" class="node">
<title>CategoryCreatedEvent</title>
<polygon fill="#f2f2f2" stroke="#000000" points="0,-68.5 0,-104.5 158.4131,-104.5 158.4131,-68.5 0,-68.5"/>
<text text-anchor="middle" x="79.2065" y="-82.3" font-family="Helvetica,sans-Serif" font-size="14.00" fill="#000000">CategoryCreatedEvent</text>
</g>
<!-- CategoryEvent&#45;&gt;CategoryCreatedEvent -->
<g id="edge2" class="edge">
<title>CategoryEvent&#45;&gt;CategoryCreatedEvent</title>
<path fill="none" stroke="#000000" d="M202.2274,-137.5257C176.8586,-127.0034 146.8498,-114.5566 122.8217,-104.5904"/>
<polygon fill="none" stroke="#000000" points="201.123,-140.8567 211.7009,-141.4551 203.8049,-134.3908 201.123,-140.8567"/>
</g>
<!-- CategoryDeletedEvent -->
<g id="node4" class="node">
<title>CategoryDeletedEvent</title>
<polygon fill="#f2f2f2" stroke="#000000" points="176.7759,-68.5 176.7759,-104.5 333.6372,-104.5 333.6372,-68.5 176.7759,-68.5"/>
<text text-anchor="middle" x="255.2065" y="-82.3" font-family="Helvetica,sans-Serif" font-size="14.00" fill="#000000">CategoryDeletedEvent</text>
</g>
<!-- CategoryEvent&#45;&gt;CategoryDeletedEvent -->
<g id="edge3" class="edge">
<title>CategoryEvent&#45;&gt;CategoryDeletedEvent</title>
<path fill="none" stroke="#000000" d="M255.2065,-131.3688C255.2065,-122.3769 255.2065,-112.6687 255.2065,-104.5904"/>
<polygon fill="none" stroke="#000000" points="251.7066,-131.455 255.2065,-141.4551 258.7066,-131.4551 251.7066,-131.455"/>
</g>
<!-- CategoryUpdatedEvent -->
<g id="node5" class="node">
<title>CategoryUpdatedEvent</title>
<polygon fill="#f2f2f2" stroke="#000000" points="351.438,-68.5 351.438,-104.5 512.9751,-104.5 512.9751,-68.5 351.438,-68.5"/>
<text text-anchor="middle" x="432.2065" y="-82.3" font-family="Helvetica,sans-Serif" font-size="14.00" fill="#000000">CategoryUpdatedEvent</text>
</g>
<!-- CategoryEvent&#45;&gt;CategoryUpdatedEvent -->
<g id="edge4" class="edge">
<title>CategoryEvent&#45;&gt;CategoryUpdatedEvent</title>
<path fill="none" stroke="#000000" d="M308.4867,-137.5257C333.9997,-127.0034 364.179,-114.5566 388.3436,-104.5904"/>
<polygon fill="none" stroke="#000000" points="306.8695,-134.4066 298.9594,-141.4551 309.5385,-140.8779 306.8695,-134.4066"/>
</g>
</g>
</svg>
